%TF.GenerationSoftware,KiCad,Pcbnew,8.0.0-rc1*%
%TF.CreationDate,2024-05-26T19:18:52+09:00*%
%TF.ProjectId,KDL,4b444c2e-6b69-4636-9164-5f7063625858,rev?*%
%TF.SameCoordinates,PX2a88ac0PY77c8bf0*%
%TF.FileFunction,Paste,Top*%
%TF.FilePolarity,Positive*%
%FSLAX46Y46*%
G04 Gerber Fmt 4.6, Leading zero omitted, Abs format (unit mm)*
G04 Created by KiCad (PCBNEW 8.0.0-rc1) date 2024-05-26 19:18:52*
%MOMM*%
%LPD*%
G01*
G04 APERTURE LIST*
%ADD10R,1.600200X1.117600*%
%ADD11R,1.981200X0.558800*%
%ADD12R,1.117600X1.600200*%
%ADD13R,1.600000X0.855600*%
%ADD14R,0.855600X1.600000*%
%ADD15R,1.219200X0.762000*%
%ADD16R,1.320800X0.558800*%
%ADD17R,0.977900X0.508000*%
%ADD18R,1.450000X1.600000*%
%ADD19R,0.939800X2.489200*%
%ADD20R,6.705600X6.527800*%
G04 APERTURE END LIST*
D10*
%TO.C,R14*%
X66000000Y24605800D03*
X66000000Y27399800D03*
%TD*%
D11*
%TO.C,U5*%
X59150000Y50812800D03*
X59150000Y52082800D03*
X59150000Y53352800D03*
X59150000Y54622800D03*
X54222400Y54622800D03*
X54222400Y53352800D03*
X54222400Y52082800D03*
X54222400Y50812800D03*
%TD*%
D10*
%TO.C,R19*%
X34650000Y54747000D03*
X34650000Y51953000D03*
%TD*%
%TO.C,R3*%
X73900000Y31405800D03*
X73900000Y34199800D03*
%TD*%
D12*
%TO.C,R13*%
X66547000Y31352800D03*
X63753000Y31352800D03*
%TD*%
D13*
%TO.C,C9*%
X63650000Y49908402D03*
X63650000Y46852800D03*
%TD*%
D10*
%TO.C,R18*%
X73900000Y46852800D03*
X73900000Y49646800D03*
%TD*%
%TO.C,R11*%
X70400000Y49747000D03*
X70400000Y46953000D03*
%TD*%
%TO.C,R15*%
X76900000Y49646800D03*
X76900000Y46852800D03*
%TD*%
%TO.C,R6*%
X62650000Y8247000D03*
X62650000Y5453000D03*
%TD*%
D14*
%TO.C,C4*%
X33372199Y38100000D03*
X36427801Y38100000D03*
%TD*%
D15*
%TO.C,U3*%
X33223600Y46850000D03*
X36576400Y46850000D03*
%TD*%
D16*
%TO.C,CR1*%
X33650000Y60502802D03*
X33650000Y58602800D03*
X35682000Y59552801D03*
%TD*%
D10*
%TO.C,R9*%
X62688000Y21982800D03*
X62688000Y19188800D03*
%TD*%
D17*
%TO.C,U7*%
X43784750Y33300001D03*
X43784750Y32350000D03*
X43784750Y31399999D03*
X46515250Y31399999D03*
X46515250Y33300001D03*
%TD*%
D13*
%TO.C,C10*%
X21150000Y17797198D03*
X21150000Y20852800D03*
%TD*%
D10*
%TO.C,R5*%
X71699000Y22286800D03*
X71699000Y19492800D03*
%TD*%
D12*
%TO.C,R17*%
X66694000Y34352800D03*
X63900000Y34352800D03*
%TD*%
D10*
%TO.C,R16*%
X62900000Y27399800D03*
X62900000Y24605800D03*
%TD*%
%TO.C,R7*%
X71650000Y15497000D03*
X71650000Y12703000D03*
%TD*%
%TO.C,R20*%
X21150000Y10705800D03*
X21150000Y13499800D03*
%TD*%
%TO.C,R1*%
X74200000Y27599800D03*
X74200000Y24805800D03*
%TD*%
%TO.C,R21*%
X21150000Y6499800D03*
X21150000Y3705800D03*
%TD*%
D14*
%TO.C,C5*%
X33372199Y35350000D03*
X36427801Y35350000D03*
%TD*%
D15*
%TO.C,U6*%
X33473600Y31850000D03*
X36826400Y31850000D03*
%TD*%
D14*
%TO.C,C1*%
X36427801Y43600000D03*
X33372199Y43600000D03*
%TD*%
D10*
%TO.C,R12*%
X76500000Y34199800D03*
X76500000Y31405800D03*
%TD*%
D18*
%TO.C,S1*%
X49900000Y52102800D03*
X40500000Y52102800D03*
%TD*%
D14*
%TO.C,C2*%
X36427801Y40850000D03*
X33372199Y40850000D03*
%TD*%
%TO.C,C7*%
X38372199Y35350000D03*
X41427801Y35350000D03*
%TD*%
D10*
%TO.C,R2*%
X66900000Y46953000D03*
X66900000Y49747000D03*
%TD*%
%TO.C,R8*%
X62650000Y15497000D03*
X62650000Y12703000D03*
%TD*%
%TO.C,R10*%
X71400000Y8247000D03*
X71400000Y5453000D03*
%TD*%
%TO.C,R4*%
X76900000Y27599800D03*
X76900000Y24805800D03*
%TD*%
D19*
%TO.C,U4*%
X51864000Y33284100D03*
D20*
X54150000Y39850000D03*
D19*
X56436000Y33284100D03*
%TD*%
D14*
%TO.C,C6*%
X40594398Y40850000D03*
X43650000Y40850000D03*
%TD*%
M02*
