M48
; DRILL file {KiCad 8.0.0-rc1} date 2024-05-26T19:18:37+0900
; FORMAT={-:-/ absolute / metric / decimal}
; #@! TF.CreationDate,2024-05-26T19:18:37+09:00
; #@! TF.GenerationSoftware,Kicad,Pcbnew,8.0.0-rc1
; #@! TF.FileFunction,Plated,1,2,PTH
FMAT,2
METRIC
; #@! TA.AperFunction,Plated,PTH,ViaDrill
T1C0.100
; #@! TA.AperFunction,Plated,PTH,ViaDrill
T2C0.400
; #@! TA.AperFunction,Plated,PTH,ComponentDrill
T3C0.750
; #@! TA.AperFunction,Plated,PTH,ComponentDrill
T4C0.762
; #@! TA.AperFunction,Plated,PTH,ComponentDrill
T5C0.900
; #@! TA.AperFunction,Plated,PTH,ComponentDrill
T6C1.000
; #@! TA.AperFunction,Plated,PTH,ComponentDrill
T7C1.100
; #@! TA.AperFunction,Plated,PTH,ComponentDrill
T8C1.200
; #@! TA.AperFunction,Plated,PTH,ComponentDrill
T9C1.800
%
G90
G05
T1
X40.15Y33.6
X40.15Y31.35
X68.65Y49.272
T2
X31.65Y35.35
X32.15Y26.603
X38.139Y57.589
X38.15Y54.603
X41.9Y54.603
X42.096Y32.35
X44.15Y46.353
X45.4Y35.6
X49.65Y44.1
X49.9Y31.35
X53.4Y44.378
X54.65Y26.853
X55.9Y51.35
X57.15Y78.853
X57.4Y51.85
X58.9Y43.85
X59.65Y80.078
X59.9Y43.1
X60.147Y46.853
X61.1Y24.447
X62.15Y34.35
X62.4Y54.603
X62.9Y44.85
X64.65Y51.35
X68.2Y27.403
X68.9Y45.1
X71.9Y31.853
X72.4Y28.703
X74.15Y45.353
X74.9Y43.353
X76.65Y38.1
X78.65Y26.853
X79.399Y39.351
X79.441Y50.328
X79.65Y31.203
X79.9Y34.603
X80.9Y39.853
X81.7Y30.403
X83.15Y35.6
X89.65Y61.853
X91.15Y27.6
X93.9Y24.603
X105.5Y63.703
X106.387Y66.865
X109.425Y64.853
X110.15Y66.103
T3
X66.66Y43.403
X66.66Y42.133
X66.66Y40.863
X71.76Y43.373
X71.76Y42.103
X71.76Y40.833
T4
X71.86Y70.1
X72.015Y61.35
X74.4Y70.1
X74.555Y61.35
T5
X6.29Y76.373
X6.29Y73.833
X6.29Y71.293
X6.29Y68.753
X6.29Y66.213
X6.29Y63.673
X6.29Y61.133
X6.29Y58.593
X6.29Y56.053
X6.29Y53.513
X6.29Y50.973
X6.29Y48.433
X6.29Y45.893
X6.29Y43.353
X6.29Y40.813
X6.29Y38.273
X6.29Y35.733
X6.29Y33.193
X6.29Y30.653
X29.15Y76.373
X29.15Y73.833
X29.15Y71.293
X29.15Y68.753
X29.15Y66.213
X29.15Y63.673
X29.15Y61.133
X29.15Y58.593
X29.15Y56.053
X29.15Y53.513
X29.15Y50.973
X29.15Y48.433
X29.15Y45.893
X29.15Y43.353
X29.15Y40.813
X29.15Y38.273
X29.15Y35.733
X29.15Y33.193
X29.15Y30.653
X65.86Y6.85
X66.11Y14.1
X66.16Y20.803
X68.4Y6.85
X68.65Y14.1
X68.7Y20.803
X74.61Y14.1
X74.61Y6.85
X74.76Y20.81
X77.15Y14.1
X77.15Y6.85
X77.3Y20.81
T6
X92.039Y75.623
X92.039Y73.083
X92.039Y9.581
X92.039Y7.041
X94.579Y75.623
X94.579Y73.083
X94.579Y9.581
X94.579Y7.041
X97.119Y75.623
X97.119Y73.083
X97.119Y9.581
X97.119Y7.041
X99.659Y75.623
X99.659Y73.083
X99.659Y9.581
X99.659Y7.041
X102.199Y75.623
X102.199Y73.083
X102.199Y9.581
X102.199Y7.041
X104.739Y75.623
X104.739Y73.083
X104.739Y9.581
X104.739Y7.041
X107.279Y75.623
X107.279Y73.083
X107.279Y9.581
X107.279Y7.041
X109.819Y75.623
X109.819Y73.083
X109.819Y9.581
X109.819Y7.041
X112.359Y75.623
X112.359Y73.083
X112.359Y9.581
X112.359Y7.041
X114.899Y75.623
X114.899Y73.083
X114.899Y9.581
X114.899Y7.041
X117.439Y75.623
X117.439Y73.083
X117.439Y9.581
X117.439Y7.041
X119.979Y75.623
X119.979Y73.083
X119.979Y9.581
X119.979Y7.041
X122.519Y75.623
X122.519Y73.083
X122.519Y9.581
X122.519Y7.041
X125.059Y75.623
X125.059Y73.083
X125.059Y9.581
X125.059Y7.041
X127.599Y75.623
X127.599Y73.083
X127.599Y9.581
X127.599Y7.041
X130.139Y75.623
X130.139Y73.083
X130.139Y9.581
X130.139Y7.041
X132.679Y75.623
X132.679Y73.083
X132.679Y9.581
X132.679Y7.041
X135.219Y75.623
X135.219Y73.083
X135.219Y9.581
X135.219Y7.041
X137.759Y75.623
X137.759Y73.083
X137.759Y9.581
X137.759Y7.041
X140.299Y75.623
X140.299Y73.083
X140.299Y9.581
X140.299Y7.041
X142.839Y75.623
X142.839Y73.083
X142.839Y9.581
X142.839Y7.041
X145.379Y75.623
X145.379Y73.083
X145.379Y9.581
X145.379Y7.041
X147.919Y75.623
X147.919Y73.083
X147.919Y9.581
X147.919Y7.041
X148.686Y52.763
X148.686Y50.223
X148.686Y47.683
X148.686Y45.143
X150.459Y75.623
X150.459Y73.083
X150.459Y9.581
X150.459Y7.041
T7
X25.196Y19.358
X25.196Y16.818
X25.196Y14.278
X25.196Y11.738
T8
X6.843Y27.331
X6.843Y2.331
X9.383Y27.331
X9.383Y2.331
X11.923Y27.331
X11.923Y2.331
X14.463Y27.331
X14.463Y2.331
X17.003Y27.331
X17.003Y2.331
T9
X41.4Y65.55
X41.4Y60.05
X45.6Y65.55
X45.6Y60.05
X49.8Y65.55
X49.8Y60.05
X54.0Y65.55
X54.0Y60.05
X58.2Y65.55
X58.2Y60.05
X62.4Y65.55
X62.4Y60.05
M30
