%TF.GenerationSoftware,KiCad,Pcbnew,8.0.0-rc1*%
%TF.CreationDate,2024-05-26T19:18:52+09:00*%
%TF.ProjectId,KDL,4b444c2e-6b69-4636-9164-5f7063625858,rev?*%
%TF.SameCoordinates,PX2a88ac0PY77c8bf0*%
%TF.FileFunction,Soldermask,Top*%
%TF.FilePolarity,Negative*%
%FSLAX46Y46*%
G04 Gerber Fmt 4.6, Leading zero omitted, Abs format (unit mm)*
G04 Created by KiCad (PCBNEW 8.0.0-rc1) date 2024-05-26 19:18:52*
%MOMM*%
%LPD*%
G01*
G04 APERTURE LIST*
%ADD10R,1.600200X1.117600*%
%ADD11R,1.800000X1.800000*%
%ADD12C,1.800000*%
%ADD13R,1.981200X0.558800*%
%ADD14C,1.524000*%
%ADD15O,3.048800X1.626400*%
%ADD16R,1.117600X1.600200*%
%ADD17R,1.600000X0.855600*%
%ADD18C,2.999999*%
%ADD19R,2.300000X2.300000*%
%ADD20C,2.300000*%
%ADD21R,0.855600X1.600000*%
%ADD22R,1.219200X0.762000*%
%ADD23R,1.320800X0.558800*%
%ADD24R,0.977900X0.508000*%
%ADD25R,1.500000X1.050000*%
%ADD26O,1.500000X1.050000*%
%ADD27R,1.270000X1.270000*%
%ADD28C,1.270000*%
%ADD29R,1.450000X1.600000*%
%ADD30O,1.700000X1.700000*%
%ADD31R,1.700000X1.700000*%
%ADD32R,0.939800X2.489200*%
%ADD33R,6.705600X6.527800*%
%ADD34C,1.700000*%
G04 APERTURE END LIST*
D10*
%TO.C,R14*%
X66000000Y24605800D03*
X66000000Y27399800D03*
%TD*%
D11*
%TO.C,D1*%
X74760000Y20809800D03*
D12*
X77300000Y20809800D03*
%TD*%
D13*
%TO.C,U5*%
X59150000Y50812800D03*
X59150000Y52082800D03*
X59150000Y53352800D03*
X59150000Y54622800D03*
X54222400Y54622800D03*
X54222400Y53352800D03*
X54222400Y52082800D03*
X54222400Y50812800D03*
%TD*%
D14*
%TO.C,U1*%
X25196000Y11737600D03*
X25196000Y14277600D03*
X25196000Y16817600D03*
X25196000Y19357600D03*
%TD*%
D10*
%TO.C,R19*%
X34650000Y54747000D03*
X34650000Y51953000D03*
%TD*%
%TO.C,R3*%
X73900000Y31405800D03*
X73900000Y34199800D03*
%TD*%
D15*
%TO.C,U8*%
X29150000Y30652800D03*
X29150000Y33192800D03*
X29150000Y63672800D03*
X6290000Y30652800D03*
X6290000Y45892800D03*
X6290000Y63672800D03*
X6290000Y66212800D03*
X6290000Y61132800D03*
X6290000Y53512800D03*
X6290000Y76372800D03*
X6290000Y73832800D03*
X6290000Y71292800D03*
X29150000Y68752800D03*
X29150000Y71292800D03*
X29150000Y73832800D03*
X29150000Y61132800D03*
X29150000Y66212800D03*
X29150000Y58592800D03*
X6290000Y68752800D03*
X6290000Y58592800D03*
X6290000Y56052800D03*
X6290000Y50972800D03*
X6290000Y48432800D03*
X6290000Y43352800D03*
X6290000Y35732800D03*
X6290000Y33192800D03*
X29150000Y50972800D03*
X29150000Y53512800D03*
X29150000Y56052800D03*
X29150000Y45892800D03*
X29150000Y48432800D03*
X29150000Y40812800D03*
X29150000Y43352800D03*
X29150000Y35732800D03*
X29150000Y38272800D03*
X6290000Y40812800D03*
X6290000Y38272800D03*
X29150000Y76372800D03*
%TD*%
D16*
%TO.C,R13*%
X66547000Y31352800D03*
X63753000Y31352800D03*
%TD*%
D11*
%TO.C,D5*%
X66160000Y20802800D03*
D12*
X68700000Y20802800D03*
%TD*%
D11*
%TO.C,D4*%
X66110000Y14100000D03*
D12*
X68650000Y14100000D03*
%TD*%
D17*
%TO.C,C9*%
X63650000Y49908402D03*
X63650000Y46852800D03*
%TD*%
D10*
%TO.C,R18*%
X73900000Y46852800D03*
X73900000Y49646800D03*
%TD*%
%TO.C,R11*%
X70400000Y49747000D03*
X70400000Y46953000D03*
%TD*%
%TO.C,R15*%
X76900000Y49646800D03*
X76900000Y46852800D03*
%TD*%
D18*
%TO.C,J1*%
X62400000Y72850000D03*
X41400042Y72850000D03*
D19*
X41400042Y65549999D03*
D20*
X45600041Y65549999D03*
X49800040Y65549999D03*
X54000040Y65549999D03*
X58200039Y65549999D03*
X62400038Y65549999D03*
X41400042Y60050000D03*
X45600041Y60050000D03*
X49800040Y60050000D03*
X54000040Y60050000D03*
X58200039Y60050000D03*
X62400038Y60050000D03*
%TD*%
D10*
%TO.C,R6*%
X62650000Y8247000D03*
X62650000Y5453000D03*
%TD*%
D21*
%TO.C,C4*%
X33372199Y38100000D03*
X36427801Y38100000D03*
%TD*%
D11*
%TO.C,D3*%
X74610000Y14100000D03*
D12*
X77150000Y14100000D03*
%TD*%
D22*
%TO.C,U3*%
X33223600Y46850000D03*
X36576400Y46850000D03*
%TD*%
D23*
%TO.C,CR1*%
X33650000Y60502802D03*
X33650000Y58602800D03*
X35682000Y59552801D03*
%TD*%
D10*
%TO.C,R9*%
X62688000Y21982800D03*
X62688000Y19188800D03*
%TD*%
D24*
%TO.C,U7*%
X43784750Y33300001D03*
X43784750Y32350000D03*
X43784750Y31399999D03*
X46515250Y31399999D03*
X46515250Y33300001D03*
%TD*%
D17*
%TO.C,C10*%
X21150000Y17797198D03*
X21150000Y20852800D03*
%TD*%
D10*
%TO.C,R5*%
X71699000Y22286800D03*
X71699000Y19492800D03*
%TD*%
D16*
%TO.C,R17*%
X66694000Y34352800D03*
X63900000Y34352800D03*
%TD*%
D10*
%TO.C,R16*%
X62900000Y27399800D03*
X62900000Y24605800D03*
%TD*%
%TO.C,R7*%
X71650000Y15497000D03*
X71650000Y12703000D03*
%TD*%
%TO.C,R20*%
X21150000Y10705800D03*
X21150000Y13499800D03*
%TD*%
%TO.C,R1*%
X74200000Y27599800D03*
X74200000Y24805800D03*
%TD*%
%TO.C,R21*%
X21150000Y6499800D03*
X21150000Y3705800D03*
%TD*%
D11*
%TO.C,D6*%
X74610000Y6850000D03*
D12*
X77150000Y6850000D03*
%TD*%
D25*
%TO.C,Q1*%
X71760000Y40832800D03*
D26*
X71760000Y42102800D03*
X71760000Y43372800D03*
%TD*%
D21*
%TO.C,C5*%
X33372199Y35350000D03*
X36427801Y35350000D03*
%TD*%
D22*
%TO.C,U6*%
X33473600Y31850000D03*
X36826400Y31850000D03*
%TD*%
D27*
%TO.C,C3*%
X71860000Y70100000D03*
D28*
X74400000Y70100000D03*
%TD*%
D21*
%TO.C,C1*%
X36427801Y43600000D03*
X33372199Y43600000D03*
%TD*%
D10*
%TO.C,R12*%
X76500000Y34199800D03*
X76500000Y31405800D03*
%TD*%
D29*
%TO.C,S1*%
X49900000Y52102800D03*
X40500000Y52102800D03*
%TD*%
D30*
%TO.C,U9*%
X142839000Y73082800D03*
X130139000Y7040600D03*
X130139000Y9580600D03*
X127599000Y7040600D03*
X127599000Y9580600D03*
X122519000Y7040600D03*
X122519000Y9580600D03*
X119979000Y7040600D03*
X119979000Y9580600D03*
X112359000Y9580600D03*
X104739000Y9580600D03*
X102199000Y7040600D03*
X102199000Y9580600D03*
X99659000Y7040600D03*
X99659000Y9580600D03*
X97119000Y7040600D03*
X97119000Y9580600D03*
X94579000Y7040600D03*
X92039000Y73082800D03*
X94579000Y75622800D03*
X94579000Y73082800D03*
X97119000Y75622800D03*
X97119000Y73082800D03*
X99659000Y75622800D03*
X99659000Y73082800D03*
X102199000Y75622800D03*
X102199000Y73082800D03*
X104739000Y75622800D03*
X107279000Y75622800D03*
X107279000Y73082800D03*
X109819000Y75622800D03*
X109819000Y73082800D03*
X114899000Y73082800D03*
X117439000Y75622800D03*
X119979000Y75622800D03*
X119979000Y73082800D03*
X122519000Y75622800D03*
X122519000Y73082800D03*
X125059000Y75622800D03*
X125059000Y73082800D03*
X127599000Y75622800D03*
X132679000Y75622800D03*
X132679000Y73082800D03*
X145379000Y73082800D03*
X135219000Y75622800D03*
X145379000Y7040600D03*
D31*
X148686500Y52762800D03*
D30*
X148686500Y50222800D03*
X148686500Y47682800D03*
X148686500Y45142800D03*
X147919000Y75622800D03*
X145379000Y75622800D03*
X142839000Y75622800D03*
X140299000Y75622800D03*
X137759000Y75622800D03*
X130139000Y75622800D03*
X114899000Y75622800D03*
X112359000Y75622800D03*
X92039000Y75622800D03*
D31*
X150459000Y73082800D03*
D30*
X147919000Y73082800D03*
X140299000Y73082800D03*
X137759000Y73082800D03*
X135219000Y73082800D03*
X130139000Y73082800D03*
X127599000Y73082800D03*
X117439000Y73082800D03*
X112359000Y73082800D03*
X104739000Y73082800D03*
X150459000Y9580600D03*
X147919000Y9580600D03*
X145379000Y9580600D03*
X142839000Y9580600D03*
X140299000Y9580600D03*
X137759000Y9580600D03*
X135219000Y9580600D03*
X132679000Y9580600D03*
X125059000Y9580600D03*
X117439000Y9580600D03*
X114899000Y9580600D03*
X109819000Y9580600D03*
X107279000Y9580600D03*
X94579000Y9580600D03*
X92039000Y9580600D03*
X147919000Y7040600D03*
X142839000Y7040600D03*
X140299000Y7040600D03*
X137759000Y7040600D03*
X135219000Y7040600D03*
X132679000Y7040600D03*
X125059000Y7040600D03*
X117439000Y7040600D03*
X114899000Y7040600D03*
X112359000Y7040600D03*
X109819000Y7040600D03*
X107279000Y7040600D03*
X104739000Y7040600D03*
X92039000Y7040600D03*
X150459000Y75622800D03*
D31*
X150459000Y7040600D03*
%TD*%
D21*
%TO.C,C2*%
X36427801Y40850000D03*
X33372199Y40850000D03*
%TD*%
D27*
%TO.C,C8*%
X72015000Y61350000D03*
D28*
X74555000Y61350000D03*
%TD*%
D21*
%TO.C,C7*%
X38372199Y35350000D03*
X41427801Y35350000D03*
%TD*%
D10*
%TO.C,R2*%
X66900000Y46953000D03*
X66900000Y49747000D03*
%TD*%
%TO.C,R8*%
X62650000Y15497000D03*
X62650000Y12703000D03*
%TD*%
%TO.C,R10*%
X71400000Y8247000D03*
X71400000Y5453000D03*
%TD*%
D11*
%TO.C,D2*%
X65860000Y6850000D03*
D12*
X68400000Y6850000D03*
%TD*%
D10*
%TO.C,R4*%
X76900000Y27599800D03*
X76900000Y24805800D03*
%TD*%
D25*
%TO.C,Q2*%
X66660000Y40862800D03*
D26*
X66660000Y42132800D03*
X66660000Y43402800D03*
%TD*%
D32*
%TO.C,U4*%
X51864000Y33284100D03*
D33*
X54150000Y39850000D03*
D32*
X56436000Y33284100D03*
%TD*%
D34*
%TO.C,U2*%
X14463000Y2330800D03*
X11923000Y2330800D03*
X9383000Y2330800D03*
X6843000Y2330800D03*
X6843000Y27330800D03*
X9383000Y27330800D03*
X11923000Y27330800D03*
X14463000Y27330800D03*
X17003000Y27330800D03*
X17003000Y2330800D03*
%TD*%
D21*
%TO.C,C6*%
X40594398Y40850000D03*
X43650000Y40850000D03*
%TD*%
M02*
