%TF.GenerationSoftware,KiCad,Pcbnew,8.0.0-rc1*%
%TF.CreationDate,2024-05-26T19:18:53+09:00*%
%TF.ProjectId,KDL,4b444c2e-6b69-4636-9164-5f7063625858,rev?*%
%TF.SameCoordinates,PX2a88ac0PY77c8bf0*%
%TF.FileFunction,Soldermask,Bot*%
%TF.FilePolarity,Negative*%
%FSLAX46Y46*%
G04 Gerber Fmt 4.6, Leading zero omitted, Abs format (unit mm)*
G04 Created by KiCad (PCBNEW 8.0.0-rc1) date 2024-05-26 19:18:53*
%MOMM*%
%LPD*%
G01*
G04 APERTURE LIST*
%ADD10R,1.800000X1.800000*%
%ADD11C,1.800000*%
%ADD12C,1.524000*%
%ADD13O,3.048800X1.626400*%
%ADD14C,2.999999*%
%ADD15R,2.300000X2.300000*%
%ADD16C,2.300000*%
%ADD17R,1.500000X1.050000*%
%ADD18O,1.500000X1.050000*%
%ADD19R,1.270000X1.270000*%
%ADD20C,1.270000*%
%ADD21O,1.700000X1.700000*%
%ADD22R,1.700000X1.700000*%
%ADD23C,1.700000*%
G04 APERTURE END LIST*
D10*
%TO.C,D1*%
X74760000Y20809800D03*
D11*
X77300000Y20809800D03*
%TD*%
D12*
%TO.C,U1*%
X25196000Y11737600D03*
X25196000Y14277600D03*
X25196000Y16817600D03*
X25196000Y19357600D03*
%TD*%
D13*
%TO.C,U8*%
X29150000Y30652800D03*
X29150000Y33192800D03*
X29150000Y63672800D03*
X6290000Y30652800D03*
X6290000Y45892800D03*
X6290000Y63672800D03*
X6290000Y66212800D03*
X6290000Y61132800D03*
X6290000Y53512800D03*
X6290000Y76372800D03*
X6290000Y73832800D03*
X6290000Y71292800D03*
X29150000Y68752800D03*
X29150000Y71292800D03*
X29150000Y73832800D03*
X29150000Y61132800D03*
X29150000Y66212800D03*
X29150000Y58592800D03*
X6290000Y68752800D03*
X6290000Y58592800D03*
X6290000Y56052800D03*
X6290000Y50972800D03*
X6290000Y48432800D03*
X6290000Y43352800D03*
X6290000Y35732800D03*
X6290000Y33192800D03*
X29150000Y50972800D03*
X29150000Y53512800D03*
X29150000Y56052800D03*
X29150000Y45892800D03*
X29150000Y48432800D03*
X29150000Y40812800D03*
X29150000Y43352800D03*
X29150000Y35732800D03*
X29150000Y38272800D03*
X6290000Y40812800D03*
X6290000Y38272800D03*
X29150000Y76372800D03*
%TD*%
D10*
%TO.C,D5*%
X66160000Y20802800D03*
D11*
X68700000Y20802800D03*
%TD*%
D10*
%TO.C,D4*%
X66110000Y14100000D03*
D11*
X68650000Y14100000D03*
%TD*%
D14*
%TO.C,J1*%
X62400000Y72850000D03*
X41400042Y72850000D03*
D15*
X41400042Y65549999D03*
D16*
X45600041Y65549999D03*
X49800040Y65549999D03*
X54000040Y65549999D03*
X58200039Y65549999D03*
X62400038Y65549999D03*
X41400042Y60050000D03*
X45600041Y60050000D03*
X49800040Y60050000D03*
X54000040Y60050000D03*
X58200039Y60050000D03*
X62400038Y60050000D03*
%TD*%
D10*
%TO.C,D3*%
X74610000Y14100000D03*
D11*
X77150000Y14100000D03*
%TD*%
D10*
%TO.C,D6*%
X74610000Y6850000D03*
D11*
X77150000Y6850000D03*
%TD*%
D17*
%TO.C,Q1*%
X71760000Y40832800D03*
D18*
X71760000Y42102800D03*
X71760000Y43372800D03*
%TD*%
D19*
%TO.C,C3*%
X71860000Y70100000D03*
D20*
X74400000Y70100000D03*
%TD*%
D21*
%TO.C,U9*%
X142839000Y73082800D03*
X130139000Y7040600D03*
X130139000Y9580600D03*
X127599000Y7040600D03*
X127599000Y9580600D03*
X122519000Y7040600D03*
X122519000Y9580600D03*
X119979000Y7040600D03*
X119979000Y9580600D03*
X112359000Y9580600D03*
X104739000Y9580600D03*
X102199000Y7040600D03*
X102199000Y9580600D03*
X99659000Y7040600D03*
X99659000Y9580600D03*
X97119000Y7040600D03*
X97119000Y9580600D03*
X94579000Y7040600D03*
X92039000Y73082800D03*
X94579000Y75622800D03*
X94579000Y73082800D03*
X97119000Y75622800D03*
X97119000Y73082800D03*
X99659000Y75622800D03*
X99659000Y73082800D03*
X102199000Y75622800D03*
X102199000Y73082800D03*
X104739000Y75622800D03*
X107279000Y75622800D03*
X107279000Y73082800D03*
X109819000Y75622800D03*
X109819000Y73082800D03*
X114899000Y73082800D03*
X117439000Y75622800D03*
X119979000Y75622800D03*
X119979000Y73082800D03*
X122519000Y75622800D03*
X122519000Y73082800D03*
X125059000Y75622800D03*
X125059000Y73082800D03*
X127599000Y75622800D03*
X132679000Y75622800D03*
X132679000Y73082800D03*
X145379000Y73082800D03*
X135219000Y75622800D03*
X145379000Y7040600D03*
D22*
X148686500Y52762800D03*
D21*
X148686500Y50222800D03*
X148686500Y47682800D03*
X148686500Y45142800D03*
X147919000Y75622800D03*
X145379000Y75622800D03*
X142839000Y75622800D03*
X140299000Y75622800D03*
X137759000Y75622800D03*
X130139000Y75622800D03*
X114899000Y75622800D03*
X112359000Y75622800D03*
X92039000Y75622800D03*
D22*
X150459000Y73082800D03*
D21*
X147919000Y73082800D03*
X140299000Y73082800D03*
X137759000Y73082800D03*
X135219000Y73082800D03*
X130139000Y73082800D03*
X127599000Y73082800D03*
X117439000Y73082800D03*
X112359000Y73082800D03*
X104739000Y73082800D03*
X150459000Y9580600D03*
X147919000Y9580600D03*
X145379000Y9580600D03*
X142839000Y9580600D03*
X140299000Y9580600D03*
X137759000Y9580600D03*
X135219000Y9580600D03*
X132679000Y9580600D03*
X125059000Y9580600D03*
X117439000Y9580600D03*
X114899000Y9580600D03*
X109819000Y9580600D03*
X107279000Y9580600D03*
X94579000Y9580600D03*
X92039000Y9580600D03*
X147919000Y7040600D03*
X142839000Y7040600D03*
X140299000Y7040600D03*
X137759000Y7040600D03*
X135219000Y7040600D03*
X132679000Y7040600D03*
X125059000Y7040600D03*
X117439000Y7040600D03*
X114899000Y7040600D03*
X112359000Y7040600D03*
X109819000Y7040600D03*
X107279000Y7040600D03*
X104739000Y7040600D03*
X92039000Y7040600D03*
X150459000Y75622800D03*
D22*
X150459000Y7040600D03*
%TD*%
D19*
%TO.C,C8*%
X72015000Y61350000D03*
D20*
X74555000Y61350000D03*
%TD*%
D10*
%TO.C,D2*%
X65860000Y6850000D03*
D11*
X68400000Y6850000D03*
%TD*%
D17*
%TO.C,Q2*%
X66660000Y40862800D03*
D18*
X66660000Y42132800D03*
X66660000Y43402800D03*
%TD*%
D23*
%TO.C,U2*%
X14463000Y2330800D03*
X11923000Y2330800D03*
X9383000Y2330800D03*
X6843000Y2330800D03*
X6843000Y27330800D03*
X9383000Y27330800D03*
X11923000Y27330800D03*
X14463000Y27330800D03*
X17003000Y27330800D03*
X17003000Y2330800D03*
%TD*%
M02*
