%TF.GenerationSoftware,KiCad,Pcbnew,8.0.0-rc1*%
%TF.CreationDate,2024-05-26T19:18:32+09:00*%
%TF.ProjectId,KDL,4b444c2e-6b69-4636-9164-5f7063625858,rev?*%
%TF.SameCoordinates,PX2a88ac0PY77c8bf0*%
%TF.FileFunction,Drillmap*%
%TF.FilePolarity,Positive*%
%FSLAX45Y45*%
G04 Gerber Fmt 4.5, Leading zero omitted, Abs format (unit mm)*
G04 Created by KiCad (PCBNEW 8.0.0-rc1) date 2024-05-26 19:18:32*
%MOMM*%
%LPD*%
G01*
G04 APERTURE LIST*
%ADD10C,0.050000*%
%ADD11C,0.200000*%
%ADD12C,0.299999*%
G04 APERTURE END LIST*
D10*
X415000Y260000D02*
G75*
G02*
X115000Y260000I-150000J0D01*
G01*
X115000Y260000D02*
G75*
G02*
X415000Y260000I150000J0D01*
G01*
D11*
X0Y8200000D02*
X17000000Y8200000D01*
X17000000Y0D01*
X0Y0D01*
X0Y8200000D01*
D10*
X16890000Y260000D02*
G75*
G02*
X16590000Y260000I-150000J0D01*
G01*
X16590000Y260000D02*
G75*
G02*
X16890000Y260000I150000J0D01*
G01*
X16890000Y7935000D02*
G75*
G02*
X16590000Y7935000I-150000J0D01*
G01*
X16590000Y7935000D02*
G75*
G02*
X16890000Y7935000I150000J0D01*
G01*
X415000Y7935000D02*
G75*
G02*
X115000Y7935000I-150000J0D01*
G01*
X115000Y7935000D02*
G75*
G02*
X415000Y7935000I150000J0D01*
G01*
D11*
D12*
X3990004Y7435000D02*
X4290004Y7135000D01*
X4290004Y7435000D02*
X3990004Y7135000D01*
X6090000Y7435000D02*
X6390000Y7135000D01*
X6390000Y7435000D02*
X6090000Y7135000D01*
D11*
X250777Y-321484D02*
X250777Y-121484D01*
X250777Y-121484D02*
X298396Y-121484D01*
X298396Y-121484D02*
X326967Y-131008D01*
X326967Y-131008D02*
X346015Y-150055D01*
X346015Y-150055D02*
X355539Y-169103D01*
X355539Y-169103D02*
X365062Y-207198D01*
X365062Y-207198D02*
X365062Y-235769D01*
X365062Y-235769D02*
X355539Y-273865D01*
X355539Y-273865D02*
X346015Y-292912D01*
X346015Y-292912D02*
X326967Y-311960D01*
X326967Y-311960D02*
X298396Y-321484D01*
X298396Y-321484D02*
X250777Y-321484D01*
X450777Y-321484D02*
X450777Y-188150D01*
X450777Y-226246D02*
X460301Y-207198D01*
X460301Y-207198D02*
X469824Y-197674D01*
X469824Y-197674D02*
X488872Y-188150D01*
X488872Y-188150D02*
X507920Y-188150D01*
X574586Y-321484D02*
X574586Y-188150D01*
X574586Y-121484D02*
X565063Y-131008D01*
X565063Y-131008D02*
X574586Y-140531D01*
X574586Y-140531D02*
X584110Y-131008D01*
X584110Y-131008D02*
X574586Y-121484D01*
X574586Y-121484D02*
X574586Y-140531D01*
X698396Y-321484D02*
X679348Y-311960D01*
X679348Y-311960D02*
X669824Y-292912D01*
X669824Y-292912D02*
X669824Y-121484D01*
X803158Y-321484D02*
X784110Y-311960D01*
X784110Y-311960D02*
X774586Y-292912D01*
X774586Y-292912D02*
X774586Y-121484D01*
X1031729Y-321484D02*
X1031729Y-121484D01*
X1031729Y-121484D02*
X1098396Y-264341D01*
X1098396Y-264341D02*
X1165063Y-121484D01*
X1165063Y-121484D02*
X1165063Y-321484D01*
X1346015Y-321484D02*
X1346015Y-216722D01*
X1346015Y-216722D02*
X1336491Y-197674D01*
X1336491Y-197674D02*
X1317444Y-188150D01*
X1317444Y-188150D02*
X1279348Y-188150D01*
X1279348Y-188150D02*
X1260301Y-197674D01*
X1346015Y-311960D02*
X1326967Y-321484D01*
X1326967Y-321484D02*
X1279348Y-321484D01*
X1279348Y-321484D02*
X1260301Y-311960D01*
X1260301Y-311960D02*
X1250777Y-292912D01*
X1250777Y-292912D02*
X1250777Y-273865D01*
X1250777Y-273865D02*
X1260301Y-254817D01*
X1260301Y-254817D02*
X1279348Y-245293D01*
X1279348Y-245293D02*
X1326967Y-245293D01*
X1326967Y-245293D02*
X1346015Y-235769D01*
X1441253Y-188150D02*
X1441253Y-388150D01*
X1441253Y-197674D02*
X1460301Y-188150D01*
X1460301Y-188150D02*
X1498396Y-188150D01*
X1498396Y-188150D02*
X1517443Y-197674D01*
X1517443Y-197674D02*
X1526967Y-207198D01*
X1526967Y-207198D02*
X1536491Y-226246D01*
X1536491Y-226246D02*
X1536491Y-283389D01*
X1536491Y-283389D02*
X1526967Y-302436D01*
X1526967Y-302436D02*
X1517443Y-311960D01*
X1517443Y-311960D02*
X1498396Y-321484D01*
X1498396Y-321484D02*
X1460301Y-321484D01*
X1460301Y-321484D02*
X1441253Y-311960D01*
X1622205Y-302436D02*
X1631729Y-311960D01*
X1631729Y-311960D02*
X1622205Y-321484D01*
X1622205Y-321484D02*
X1612682Y-311960D01*
X1612682Y-311960D02*
X1622205Y-302436D01*
X1622205Y-302436D02*
X1622205Y-321484D01*
X1622205Y-197674D02*
X1631729Y-207198D01*
X1631729Y-207198D02*
X1622205Y-216722D01*
X1622205Y-216722D02*
X1612682Y-207198D01*
X1612682Y-207198D02*
X1622205Y-197674D01*
X1622205Y-197674D02*
X1622205Y-216722D01*
X-210000Y-550000D02*
X-10000Y-750000D01*
X-10000Y-550000D02*
X-210000Y-750000D01*
X231729Y-541484D02*
X355539Y-541484D01*
X355539Y-541484D02*
X288872Y-617674D01*
X288872Y-617674D02*
X317444Y-617674D01*
X317444Y-617674D02*
X336491Y-627198D01*
X336491Y-627198D02*
X346015Y-636722D01*
X346015Y-636722D02*
X355539Y-655770D01*
X355539Y-655770D02*
X355539Y-703388D01*
X355539Y-703388D02*
X346015Y-722436D01*
X346015Y-722436D02*
X336491Y-731960D01*
X336491Y-731960D02*
X317444Y-741484D01*
X317444Y-741484D02*
X260301Y-741484D01*
X260301Y-741484D02*
X241253Y-731960D01*
X241253Y-731960D02*
X231729Y-722436D01*
X441253Y-722436D02*
X450777Y-731960D01*
X450777Y-731960D02*
X441253Y-741484D01*
X441253Y-741484D02*
X431729Y-731960D01*
X431729Y-731960D02*
X441253Y-722436D01*
X441253Y-722436D02*
X441253Y-741484D01*
X574586Y-541484D02*
X593634Y-541484D01*
X593634Y-541484D02*
X612682Y-551008D01*
X612682Y-551008D02*
X622205Y-560531D01*
X622205Y-560531D02*
X631729Y-579579D01*
X631729Y-579579D02*
X641253Y-617674D01*
X641253Y-617674D02*
X641253Y-665293D01*
X641253Y-665293D02*
X631729Y-703388D01*
X631729Y-703388D02*
X622205Y-722436D01*
X622205Y-722436D02*
X612682Y-731960D01*
X612682Y-731960D02*
X593634Y-741484D01*
X593634Y-741484D02*
X574586Y-741484D01*
X574586Y-741484D02*
X555539Y-731960D01*
X555539Y-731960D02*
X546015Y-722436D01*
X546015Y-722436D02*
X536491Y-703388D01*
X536491Y-703388D02*
X526967Y-665293D01*
X526967Y-665293D02*
X526967Y-617674D01*
X526967Y-617674D02*
X536491Y-579579D01*
X536491Y-579579D02*
X546015Y-560531D01*
X546015Y-560531D02*
X555539Y-551008D01*
X555539Y-551008D02*
X574586Y-541484D01*
X765062Y-541484D02*
X784110Y-541484D01*
X784110Y-541484D02*
X803158Y-551008D01*
X803158Y-551008D02*
X812682Y-560531D01*
X812682Y-560531D02*
X822205Y-579579D01*
X822205Y-579579D02*
X831729Y-617674D01*
X831729Y-617674D02*
X831729Y-665293D01*
X831729Y-665293D02*
X822205Y-703388D01*
X822205Y-703388D02*
X812682Y-722436D01*
X812682Y-722436D02*
X803158Y-731960D01*
X803158Y-731960D02*
X784110Y-741484D01*
X784110Y-741484D02*
X765062Y-741484D01*
X765062Y-741484D02*
X746015Y-731960D01*
X746015Y-731960D02*
X736491Y-722436D01*
X736491Y-722436D02*
X726967Y-703388D01*
X726967Y-703388D02*
X717443Y-665293D01*
X717443Y-665293D02*
X717443Y-617674D01*
X717443Y-617674D02*
X726967Y-579579D01*
X726967Y-579579D02*
X736491Y-560531D01*
X736491Y-560531D02*
X746015Y-551008D01*
X746015Y-551008D02*
X765062Y-541484D01*
X955539Y-541484D02*
X974586Y-541484D01*
X974586Y-541484D02*
X993634Y-551008D01*
X993634Y-551008D02*
X1003158Y-560531D01*
X1003158Y-560531D02*
X1012682Y-579579D01*
X1012682Y-579579D02*
X1022205Y-617674D01*
X1022205Y-617674D02*
X1022205Y-665293D01*
X1022205Y-665293D02*
X1012682Y-703388D01*
X1012682Y-703388D02*
X1003158Y-722436D01*
X1003158Y-722436D02*
X993634Y-731960D01*
X993634Y-731960D02*
X974586Y-741484D01*
X974586Y-741484D02*
X955539Y-741484D01*
X955539Y-741484D02*
X936491Y-731960D01*
X936491Y-731960D02*
X926967Y-722436D01*
X926967Y-722436D02*
X917443Y-703388D01*
X917443Y-703388D02*
X907920Y-665293D01*
X907920Y-665293D02*
X907920Y-617674D01*
X907920Y-617674D02*
X917443Y-579579D01*
X917443Y-579579D02*
X926967Y-560531D01*
X926967Y-560531D02*
X936491Y-551008D01*
X936491Y-551008D02*
X955539Y-541484D01*
X1107920Y-741484D02*
X1107920Y-608150D01*
X1107920Y-627198D02*
X1117444Y-617674D01*
X1117444Y-617674D02*
X1136491Y-608150D01*
X1136491Y-608150D02*
X1165063Y-608150D01*
X1165063Y-608150D02*
X1184110Y-617674D01*
X1184110Y-617674D02*
X1193634Y-636722D01*
X1193634Y-636722D02*
X1193634Y-741484D01*
X1193634Y-636722D02*
X1203158Y-617674D01*
X1203158Y-617674D02*
X1222205Y-608150D01*
X1222205Y-608150D02*
X1250777Y-608150D01*
X1250777Y-608150D02*
X1269825Y-617674D01*
X1269825Y-617674D02*
X1279348Y-636722D01*
X1279348Y-636722D02*
X1279348Y-741484D01*
X1374586Y-741484D02*
X1374586Y-608150D01*
X1374586Y-627198D02*
X1384110Y-617674D01*
X1384110Y-617674D02*
X1403158Y-608150D01*
X1403158Y-608150D02*
X1431729Y-608150D01*
X1431729Y-608150D02*
X1450777Y-617674D01*
X1450777Y-617674D02*
X1460301Y-636722D01*
X1460301Y-636722D02*
X1460301Y-741484D01*
X1460301Y-636722D02*
X1469824Y-617674D01*
X1469824Y-617674D02*
X1488872Y-608150D01*
X1488872Y-608150D02*
X1517443Y-608150D01*
X1517443Y-608150D02*
X1536491Y-617674D01*
X1536491Y-617674D02*
X1546015Y-636722D01*
X1546015Y-636722D02*
X1546015Y-741484D01*
X1936491Y-531960D02*
X1765063Y-789103D01*
X2193634Y-541484D02*
X2212682Y-541484D01*
X2212682Y-541484D02*
X2231729Y-551008D01*
X2231729Y-551008D02*
X2241253Y-560531D01*
X2241253Y-560531D02*
X2250777Y-579579D01*
X2250777Y-579579D02*
X2260301Y-617674D01*
X2260301Y-617674D02*
X2260301Y-665293D01*
X2260301Y-665293D02*
X2250777Y-703388D01*
X2250777Y-703388D02*
X2241253Y-722436D01*
X2241253Y-722436D02*
X2231729Y-731960D01*
X2231729Y-731960D02*
X2212682Y-741484D01*
X2212682Y-741484D02*
X2193634Y-741484D01*
X2193634Y-741484D02*
X2174587Y-731960D01*
X2174587Y-731960D02*
X2165063Y-722436D01*
X2165063Y-722436D02*
X2155539Y-703388D01*
X2155539Y-703388D02*
X2146015Y-665293D01*
X2146015Y-665293D02*
X2146015Y-617674D01*
X2146015Y-617674D02*
X2155539Y-579579D01*
X2155539Y-579579D02*
X2165063Y-560531D01*
X2165063Y-560531D02*
X2174587Y-551008D01*
X2174587Y-551008D02*
X2193634Y-541484D01*
X2346015Y-722436D02*
X2355539Y-731960D01*
X2355539Y-731960D02*
X2346015Y-741484D01*
X2346015Y-741484D02*
X2336491Y-731960D01*
X2336491Y-731960D02*
X2346015Y-722436D01*
X2346015Y-722436D02*
X2346015Y-741484D01*
X2546015Y-741484D02*
X2431729Y-741484D01*
X2488872Y-741484D02*
X2488872Y-541484D01*
X2488872Y-541484D02*
X2469825Y-570055D01*
X2469825Y-570055D02*
X2450777Y-589103D01*
X2450777Y-589103D02*
X2431729Y-598627D01*
X2736491Y-741484D02*
X2622206Y-741484D01*
X2679348Y-741484D02*
X2679348Y-541484D01*
X2679348Y-541484D02*
X2660301Y-570055D01*
X2660301Y-570055D02*
X2641253Y-589103D01*
X2641253Y-589103D02*
X2622206Y-598627D01*
X2850777Y-627198D02*
X2831729Y-617674D01*
X2831729Y-617674D02*
X2822206Y-608150D01*
X2822206Y-608150D02*
X2812682Y-589103D01*
X2812682Y-589103D02*
X2812682Y-579579D01*
X2812682Y-579579D02*
X2822206Y-560531D01*
X2822206Y-560531D02*
X2831729Y-551008D01*
X2831729Y-551008D02*
X2850777Y-541484D01*
X2850777Y-541484D02*
X2888872Y-541484D01*
X2888872Y-541484D02*
X2907920Y-551008D01*
X2907920Y-551008D02*
X2917444Y-560531D01*
X2917444Y-560531D02*
X2926967Y-579579D01*
X2926967Y-579579D02*
X2926967Y-589103D01*
X2926967Y-589103D02*
X2917444Y-608150D01*
X2917444Y-608150D02*
X2907920Y-617674D01*
X2907920Y-617674D02*
X2888872Y-627198D01*
X2888872Y-627198D02*
X2850777Y-627198D01*
X2850777Y-627198D02*
X2831729Y-636722D01*
X2831729Y-636722D02*
X2822206Y-646246D01*
X2822206Y-646246D02*
X2812682Y-665293D01*
X2812682Y-665293D02*
X2812682Y-703388D01*
X2812682Y-703388D02*
X2822206Y-722436D01*
X2822206Y-722436D02*
X2831729Y-731960D01*
X2831729Y-731960D02*
X2850777Y-741484D01*
X2850777Y-741484D02*
X2888872Y-741484D01*
X2888872Y-741484D02*
X2907920Y-731960D01*
X2907920Y-731960D02*
X2917444Y-722436D01*
X2917444Y-722436D02*
X2926967Y-703388D01*
X2926967Y-703388D02*
X2926967Y-665293D01*
X2926967Y-665293D02*
X2917444Y-646246D01*
X2917444Y-646246D02*
X2907920Y-636722D01*
X2907920Y-636722D02*
X2888872Y-627198D01*
X3117444Y-741484D02*
X3003158Y-741484D01*
X3060301Y-741484D02*
X3060301Y-541484D01*
X3060301Y-541484D02*
X3041253Y-570055D01*
X3041253Y-570055D02*
X3022206Y-589103D01*
X3022206Y-589103D02*
X3003158Y-598627D01*
X3193634Y-541484D02*
X3193634Y-579579D01*
X3269825Y-541484D02*
X3269825Y-579579D01*
X3565063Y-817674D02*
X3555539Y-808150D01*
X3555539Y-808150D02*
X3536491Y-779579D01*
X3536491Y-779579D02*
X3526968Y-760531D01*
X3526968Y-760531D02*
X3517444Y-731960D01*
X3517444Y-731960D02*
X3507920Y-684341D01*
X3507920Y-684341D02*
X3507920Y-646246D01*
X3507920Y-646246D02*
X3517444Y-598627D01*
X3517444Y-598627D02*
X3526968Y-570055D01*
X3526968Y-570055D02*
X3536491Y-551008D01*
X3536491Y-551008D02*
X3555539Y-522436D01*
X3555539Y-522436D02*
X3565063Y-512912D01*
X3631729Y-560531D02*
X3641253Y-551008D01*
X3641253Y-551008D02*
X3660301Y-541484D01*
X3660301Y-541484D02*
X3707920Y-541484D01*
X3707920Y-541484D02*
X3726968Y-551008D01*
X3726968Y-551008D02*
X3736491Y-560531D01*
X3736491Y-560531D02*
X3746015Y-579579D01*
X3746015Y-579579D02*
X3746015Y-598627D01*
X3746015Y-598627D02*
X3736491Y-627198D01*
X3736491Y-627198D02*
X3622206Y-741484D01*
X3622206Y-741484D02*
X3746015Y-741484D01*
X3984110Y-741484D02*
X3984110Y-541484D01*
X4069825Y-741484D02*
X4069825Y-636722D01*
X4069825Y-636722D02*
X4060301Y-617674D01*
X4060301Y-617674D02*
X4041253Y-608150D01*
X4041253Y-608150D02*
X4012682Y-608150D01*
X4012682Y-608150D02*
X3993634Y-617674D01*
X3993634Y-617674D02*
X3984110Y-627198D01*
X4193634Y-741484D02*
X4174587Y-731960D01*
X4174587Y-731960D02*
X4165063Y-722436D01*
X4165063Y-722436D02*
X4155539Y-703388D01*
X4155539Y-703388D02*
X4155539Y-646246D01*
X4155539Y-646246D02*
X4165063Y-627198D01*
X4165063Y-627198D02*
X4174587Y-617674D01*
X4174587Y-617674D02*
X4193634Y-608150D01*
X4193634Y-608150D02*
X4222206Y-608150D01*
X4222206Y-608150D02*
X4241253Y-617674D01*
X4241253Y-617674D02*
X4250777Y-627198D01*
X4250777Y-627198D02*
X4260301Y-646246D01*
X4260301Y-646246D02*
X4260301Y-703388D01*
X4260301Y-703388D02*
X4250777Y-722436D01*
X4250777Y-722436D02*
X4241253Y-731960D01*
X4241253Y-731960D02*
X4222206Y-741484D01*
X4222206Y-741484D02*
X4193634Y-741484D01*
X4374587Y-741484D02*
X4355539Y-731960D01*
X4355539Y-731960D02*
X4346015Y-712912D01*
X4346015Y-712912D02*
X4346015Y-541484D01*
X4526968Y-731960D02*
X4507920Y-741484D01*
X4507920Y-741484D02*
X4469825Y-741484D01*
X4469825Y-741484D02*
X4450777Y-731960D01*
X4450777Y-731960D02*
X4441253Y-712912D01*
X4441253Y-712912D02*
X4441253Y-636722D01*
X4441253Y-636722D02*
X4450777Y-617674D01*
X4450777Y-617674D02*
X4469825Y-608150D01*
X4469825Y-608150D02*
X4507920Y-608150D01*
X4507920Y-608150D02*
X4526968Y-617674D01*
X4526968Y-617674D02*
X4536492Y-636722D01*
X4536492Y-636722D02*
X4536492Y-655770D01*
X4536492Y-655770D02*
X4441253Y-674817D01*
X4612682Y-731960D02*
X4631730Y-741484D01*
X4631730Y-741484D02*
X4669825Y-741484D01*
X4669825Y-741484D02*
X4688873Y-731960D01*
X4688873Y-731960D02*
X4698396Y-712912D01*
X4698396Y-712912D02*
X4698396Y-703388D01*
X4698396Y-703388D02*
X4688873Y-684341D01*
X4688873Y-684341D02*
X4669825Y-674817D01*
X4669825Y-674817D02*
X4641253Y-674817D01*
X4641253Y-674817D02*
X4622206Y-665293D01*
X4622206Y-665293D02*
X4612682Y-646246D01*
X4612682Y-646246D02*
X4612682Y-636722D01*
X4612682Y-636722D02*
X4622206Y-617674D01*
X4622206Y-617674D02*
X4641253Y-608150D01*
X4641253Y-608150D02*
X4669825Y-608150D01*
X4669825Y-608150D02*
X4688873Y-617674D01*
X4765063Y-817674D02*
X4774587Y-808150D01*
X4774587Y-808150D02*
X4793634Y-779579D01*
X4793634Y-779579D02*
X4803158Y-760531D01*
X4803158Y-760531D02*
X4812682Y-731960D01*
X4812682Y-731960D02*
X4822206Y-684341D01*
X4822206Y-684341D02*
X4822206Y-646246D01*
X4822206Y-646246D02*
X4812682Y-598627D01*
X4812682Y-598627D02*
X4803158Y-570055D01*
X4803158Y-570055D02*
X4793634Y-551008D01*
X4793634Y-551008D02*
X4774587Y-522436D01*
X4774587Y-522436D02*
X4765063Y-512912D01*
X5126968Y-817674D02*
X5117444Y-808150D01*
X5117444Y-808150D02*
X5098396Y-779579D01*
X5098396Y-779579D02*
X5088873Y-760531D01*
X5088873Y-760531D02*
X5079349Y-731960D01*
X5079349Y-731960D02*
X5069825Y-684341D01*
X5069825Y-684341D02*
X5069825Y-646246D01*
X5069825Y-646246D02*
X5079349Y-598627D01*
X5079349Y-598627D02*
X5088873Y-570055D01*
X5088873Y-570055D02*
X5098396Y-551008D01*
X5098396Y-551008D02*
X5117444Y-522436D01*
X5117444Y-522436D02*
X5126968Y-512912D01*
X5203158Y-608150D02*
X5203158Y-741484D01*
X5203158Y-627198D02*
X5212682Y-617674D01*
X5212682Y-617674D02*
X5231730Y-608150D01*
X5231730Y-608150D02*
X5260301Y-608150D01*
X5260301Y-608150D02*
X5279349Y-617674D01*
X5279349Y-617674D02*
X5288873Y-636722D01*
X5288873Y-636722D02*
X5288873Y-741484D01*
X5412682Y-741484D02*
X5393634Y-731960D01*
X5393634Y-731960D02*
X5384111Y-722436D01*
X5384111Y-722436D02*
X5374587Y-703388D01*
X5374587Y-703388D02*
X5374587Y-646246D01*
X5374587Y-646246D02*
X5384111Y-627198D01*
X5384111Y-627198D02*
X5393634Y-617674D01*
X5393634Y-617674D02*
X5412682Y-608150D01*
X5412682Y-608150D02*
X5441254Y-608150D01*
X5441254Y-608150D02*
X5460301Y-617674D01*
X5460301Y-617674D02*
X5469825Y-627198D01*
X5469825Y-627198D02*
X5479349Y-646246D01*
X5479349Y-646246D02*
X5479349Y-703388D01*
X5479349Y-703388D02*
X5469825Y-722436D01*
X5469825Y-722436D02*
X5460301Y-731960D01*
X5460301Y-731960D02*
X5441254Y-741484D01*
X5441254Y-741484D02*
X5412682Y-741484D01*
X5536492Y-608150D02*
X5612682Y-608150D01*
X5565063Y-541484D02*
X5565063Y-712912D01*
X5565063Y-712912D02*
X5574587Y-731960D01*
X5574587Y-731960D02*
X5593634Y-741484D01*
X5593634Y-741484D02*
X5612682Y-741484D01*
X5831730Y-608150D02*
X5831730Y-808150D01*
X5831730Y-617674D02*
X5850777Y-608150D01*
X5850777Y-608150D02*
X5888873Y-608150D01*
X5888873Y-608150D02*
X5907920Y-617674D01*
X5907920Y-617674D02*
X5917444Y-627198D01*
X5917444Y-627198D02*
X5926968Y-646246D01*
X5926968Y-646246D02*
X5926968Y-703388D01*
X5926968Y-703388D02*
X5917444Y-722436D01*
X5917444Y-722436D02*
X5907920Y-731960D01*
X5907920Y-731960D02*
X5888873Y-741484D01*
X5888873Y-741484D02*
X5850777Y-741484D01*
X5850777Y-741484D02*
X5831730Y-731960D01*
X6041253Y-741484D02*
X6022206Y-731960D01*
X6022206Y-731960D02*
X6012682Y-712912D01*
X6012682Y-712912D02*
X6012682Y-541484D01*
X6203158Y-741484D02*
X6203158Y-636722D01*
X6203158Y-636722D02*
X6193634Y-617674D01*
X6193634Y-617674D02*
X6174587Y-608150D01*
X6174587Y-608150D02*
X6136492Y-608150D01*
X6136492Y-608150D02*
X6117444Y-617674D01*
X6203158Y-731960D02*
X6184111Y-741484D01*
X6184111Y-741484D02*
X6136492Y-741484D01*
X6136492Y-741484D02*
X6117444Y-731960D01*
X6117444Y-731960D02*
X6107920Y-712912D01*
X6107920Y-712912D02*
X6107920Y-693865D01*
X6107920Y-693865D02*
X6117444Y-674817D01*
X6117444Y-674817D02*
X6136492Y-665293D01*
X6136492Y-665293D02*
X6184111Y-665293D01*
X6184111Y-665293D02*
X6203158Y-655770D01*
X6269825Y-608150D02*
X6346015Y-608150D01*
X6298396Y-541484D02*
X6298396Y-712912D01*
X6298396Y-712912D02*
X6307920Y-731960D01*
X6307920Y-731960D02*
X6326968Y-741484D01*
X6326968Y-741484D02*
X6346015Y-741484D01*
X6488873Y-731960D02*
X6469825Y-741484D01*
X6469825Y-741484D02*
X6431730Y-741484D01*
X6431730Y-741484D02*
X6412682Y-731960D01*
X6412682Y-731960D02*
X6403158Y-712912D01*
X6403158Y-712912D02*
X6403158Y-636722D01*
X6403158Y-636722D02*
X6412682Y-617674D01*
X6412682Y-617674D02*
X6431730Y-608150D01*
X6431730Y-608150D02*
X6469825Y-608150D01*
X6469825Y-608150D02*
X6488873Y-617674D01*
X6488873Y-617674D02*
X6498396Y-636722D01*
X6498396Y-636722D02*
X6498396Y-655770D01*
X6498396Y-655770D02*
X6403158Y-674817D01*
X6669825Y-741484D02*
X6669825Y-541484D01*
X6669825Y-731960D02*
X6650777Y-741484D01*
X6650777Y-741484D02*
X6612682Y-741484D01*
X6612682Y-741484D02*
X6593634Y-731960D01*
X6593634Y-731960D02*
X6584111Y-722436D01*
X6584111Y-722436D02*
X6574587Y-703388D01*
X6574587Y-703388D02*
X6574587Y-646246D01*
X6574587Y-646246D02*
X6584111Y-627198D01*
X6584111Y-627198D02*
X6593634Y-617674D01*
X6593634Y-617674D02*
X6612682Y-608150D01*
X6612682Y-608150D02*
X6650777Y-608150D01*
X6650777Y-608150D02*
X6669825Y-617674D01*
X6746015Y-817674D02*
X6755539Y-808150D01*
X6755539Y-808150D02*
X6774587Y-779579D01*
X6774587Y-779579D02*
X6784111Y-760531D01*
X6784111Y-760531D02*
X6793634Y-731960D01*
X6793634Y-731960D02*
X6803158Y-684341D01*
X6803158Y-684341D02*
X6803158Y-646246D01*
X6803158Y-646246D02*
X6793634Y-598627D01*
X6793634Y-598627D02*
X6784111Y-570055D01*
X6784111Y-570055D02*
X6774587Y-551008D01*
X6774587Y-551008D02*
X6755539Y-522436D01*
X6755539Y-522436D02*
X6746015Y-512912D01*
M02*
