M48
; DRILL file {KiCad 8.0.0-rc1} date 2024-02-28T14:24:34+0900
; FORMAT={-:-/ absolute / metric / decimal}
; #@! TF.CreationDate,2024-02-28T14:24:34+09:00
; #@! TF.GenerationSoftware,Kicad,Pcbnew,8.0.0-rc1
; #@! TF.FileFunction,Plated,1,2,PTH
FMAT,2
METRIC
; #@! TA.AperFunction,Plated,PTH,ViaDrill
T1C0.100
; #@! TA.AperFunction,Plated,PTH,ViaDrill
T2C0.400
; #@! TA.AperFunction,Plated,PTH,ComponentDrill
T3C0.750
; #@! TA.AperFunction,Plated,PTH,ComponentDrill
T4C0.800
; #@! TA.AperFunction,Plated,PTH,ComponentDrill
T5C0.900
; #@! TA.AperFunction,Plated,PTH,ComponentDrill
T6C1.000
; #@! TA.AperFunction,Plated,PTH,ComponentDrill
T7C1.100
; #@! TA.AperFunction,Plated,PTH,ComponentDrill
T8C1.200
; #@! TA.AperFunction,Plated,PTH,ComponentDrill
T9C1.245
; #@! TA.AperFunction,Plated,PTH,ComponentDrill
T10C1.800
%
G90
G05
T1
X113.25Y-76.331
T2
X76.75Y-99.0
X82.739Y-68.014
X82.75Y-71.0
X86.25Y-79.25
X86.5Y-71.0
X88.75Y-79.25
X93.737Y-81.263
X99.25Y-98.75
X100.5Y-74.253
X101.75Y-46.75
X102.0Y-73.753
X104.25Y-45.525
X105.7Y-101.156
X107.0Y-71.0
X109.25Y-74.253
X110.25Y-68.753
X112.8Y-98.2
X113.5Y-80.503
X115.235Y-49.679
X116.5Y-93.75
X117.0Y-96.9
X117.25Y-72.003
X118.0Y-65.003
X118.75Y-80.25
X119.5Y-82.25
X119.75Y-68.753
X123.25Y-98.75
X123.999Y-86.251
X124.041Y-75.275
X124.25Y-94.4
X124.5Y-91.0
X125.5Y-85.75
X126.3Y-95.2
X127.75Y-90.003
X134.25Y-63.75
X135.75Y-98.003
X138.5Y-101.0
X150.1Y-61.9
X150.987Y-58.737
X154.025Y-60.75
X154.75Y-59.5
T3
X111.26Y-82.2
X111.26Y-83.47
X111.26Y-84.74
X116.36Y-82.23
X116.36Y-83.5
X116.36Y-84.77
T4
X78.75Y-46.75
X78.75Y-48.75
X78.75Y-53.0
X78.75Y-55.0
X78.75Y-57.0
T5
X50.89Y-49.23
X50.89Y-51.77
X50.89Y-54.31
X50.89Y-56.85
X50.89Y-59.39
X50.89Y-61.93
X50.89Y-64.47
X50.89Y-67.01
X50.89Y-69.55
X50.89Y-72.09
X50.89Y-74.63
X50.89Y-77.17
X50.89Y-79.71
X50.89Y-82.25
X50.89Y-84.79
X50.89Y-87.33
X50.89Y-89.87
X50.89Y-92.41
X50.89Y-94.95
X73.75Y-49.23
X73.75Y-51.77
X73.75Y-54.31
X73.75Y-56.85
X73.75Y-59.39
X73.75Y-61.93
X73.75Y-64.47
X73.75Y-67.01
X73.75Y-69.55
X73.75Y-72.09
X73.75Y-74.63
X73.75Y-77.17
X73.75Y-79.71
X73.75Y-82.25
X73.75Y-84.79
X73.75Y-87.33
X73.75Y-89.87
X73.75Y-92.41
X73.75Y-94.95
X110.4Y-118.0
X110.637Y-111.5
X110.76Y-104.8
X112.94Y-118.0
X113.177Y-111.5
X113.3Y-104.8
X118.889Y-111.596
X119.36Y-104.793
X119.46Y-118.1
X121.429Y-111.596
X121.9Y-104.793
X122.0Y-118.1
T6
X136.639Y-49.98
X136.639Y-52.52
X136.639Y-116.022
X136.639Y-118.562
X139.179Y-49.98
X139.179Y-52.52
X139.179Y-116.022
X139.179Y-118.562
X141.719Y-49.98
X141.719Y-52.52
X141.719Y-116.022
X141.719Y-118.562
X144.259Y-49.98
X144.259Y-52.52
X144.259Y-116.022
X144.259Y-118.562
X146.799Y-49.98
X146.799Y-52.52
X146.799Y-116.022
X146.799Y-118.562
X149.339Y-49.98
X149.339Y-52.52
X149.339Y-116.022
X149.339Y-118.562
X151.879Y-49.98
X151.879Y-52.52
X151.879Y-116.022
X151.879Y-118.562
X154.419Y-49.98
X154.419Y-52.52
X154.419Y-116.022
X154.419Y-118.562
X156.959Y-49.98
X156.959Y-52.52
X156.959Y-116.022
X156.959Y-118.562
X159.499Y-49.98
X159.499Y-52.52
X159.499Y-116.022
X159.499Y-118.562
X162.039Y-49.98
X162.039Y-52.52
X162.039Y-116.022
X162.039Y-118.562
X164.579Y-49.98
X164.579Y-52.52
X164.579Y-116.022
X164.579Y-118.562
X167.119Y-49.98
X167.119Y-52.52
X167.119Y-116.022
X167.119Y-118.562
X169.659Y-49.98
X169.659Y-52.52
X169.659Y-116.022
X169.659Y-118.562
X172.199Y-49.98
X172.199Y-52.52
X172.199Y-116.022
X172.199Y-118.562
X174.739Y-49.98
X174.739Y-52.52
X174.739Y-116.022
X174.739Y-118.562
X177.279Y-49.98
X177.279Y-52.52
X177.279Y-116.022
X177.279Y-118.562
X179.819Y-49.98
X179.819Y-52.52
X179.819Y-116.022
X179.819Y-118.562
X182.359Y-49.98
X182.359Y-52.52
X182.359Y-116.022
X182.359Y-118.562
X184.899Y-49.98
X184.899Y-52.52
X184.899Y-116.022
X184.899Y-118.562
X187.439Y-49.98
X187.439Y-52.52
X187.439Y-116.022
X187.439Y-118.562
X189.979Y-49.98
X189.979Y-52.52
X189.979Y-116.022
X189.979Y-118.562
X192.519Y-49.98
X192.519Y-52.52
X192.519Y-116.022
X192.519Y-118.562
X193.286Y-72.84
X193.286Y-75.38
X193.286Y-77.92
X193.286Y-80.46
X195.059Y-49.98
X195.059Y-52.52
X195.059Y-116.022
X195.059Y-118.562
T7
X69.796Y-106.221
X69.796Y-108.761
X69.796Y-111.301
X69.796Y-113.841
X80.971Y-79.765
X80.971Y-82.305
X80.971Y-90.705
X80.971Y-93.245
X99.431Y-79.765
X99.431Y-82.305
X99.431Y-90.705
X99.431Y-93.245
T8
X51.443Y-98.272
X51.443Y-123.272
X53.983Y-98.272
X53.983Y-123.272
X56.523Y-98.272
X56.523Y-123.272
X59.063Y-98.272
X59.063Y-123.272
X61.603Y-98.272
X61.603Y-123.272
T9
X116.97Y-47.753
X116.97Y-50.253
X116.97Y-52.753
X116.97Y-55.253
T10
X85.95Y-60.0
X85.95Y-65.5
X90.15Y-60.0
X90.15Y-65.5
X94.35Y-60.0
X94.35Y-65.5
X98.55Y-60.0
X98.55Y-65.5
X102.75Y-60.0
X102.75Y-65.5
X106.95Y-60.0
X106.95Y-65.5
M30
