%TF.GenerationSoftware,KiCad,Pcbnew,8.0.0-rc1*%
%TF.CreationDate,2024-02-28T14:24:43+09:00*%
%TF.ProjectId,KDL,4b444c2e-6b69-4636-9164-5f7063625858,rev?*%
%TF.SameCoordinates,Original*%
%TF.FileFunction,Soldermask,Bot*%
%TF.FilePolarity,Negative*%
%FSLAX46Y46*%
G04 Gerber Fmt 4.6, Leading zero omitted, Abs format (unit mm)*
G04 Created by KiCad (PCBNEW 8.0.0-rc1) date 2024-02-28 14:24:43*
%MOMM*%
%LPD*%
G01*
G04 APERTURE LIST*
%ADD10R,1.800000X1.800000*%
%ADD11C,1.800000*%
%ADD12C,1.524000*%
%ADD13R,1.350000X1.350000*%
%ADD14O,1.350000X1.350000*%
%ADD15O,3.048800X1.626400*%
%ADD16C,2.999999*%
%ADD17R,2.300000X2.300000*%
%ADD18C,2.300000*%
%ADD19C,1.752600*%
%ADD20R,1.500000X1.050000*%
%ADD21O,1.500000X1.050000*%
%ADD22O,1.700000X1.700000*%
%ADD23R,1.700000X1.700000*%
%ADD24C,1.700000*%
%ADD25C,0.100000*%
%ADD26C,0.508000*%
G04 APERTURE END LIST*
D10*
%TO.C,D1*%
X119360000Y-104793000D03*
D11*
X121900000Y-104793000D03*
%TD*%
D12*
%TO.C,U2*%
X69796000Y-113841000D03*
X69796000Y-111301000D03*
X69796000Y-108761000D03*
X69796000Y-106221000D03*
%TD*%
D13*
%TO.C,J2*%
X78750000Y-53000000D03*
D14*
X78750000Y-55000000D03*
X78750000Y-57000000D03*
%TD*%
D15*
%TO.C,U4*%
X73750000Y-94950000D03*
X73750000Y-92410000D03*
X73750000Y-61930000D03*
X50890000Y-94950000D03*
X50890000Y-79710000D03*
X50890000Y-61930000D03*
X50890000Y-59390000D03*
X50890000Y-64470000D03*
X50890000Y-72090000D03*
X50890000Y-49230000D03*
X50890000Y-51770000D03*
X50890000Y-54310000D03*
X73750000Y-56850000D03*
X73750000Y-54310000D03*
X73750000Y-51770000D03*
X73750000Y-64470000D03*
X73750000Y-59390000D03*
X73750000Y-67010000D03*
X50890000Y-56850000D03*
X50890000Y-67010000D03*
X50890000Y-69550000D03*
X50890000Y-74630000D03*
X50890000Y-77170000D03*
X50890000Y-82250000D03*
X50890000Y-89870000D03*
X50890000Y-92410000D03*
X73750000Y-74630000D03*
X73750000Y-72090000D03*
X73750000Y-69550000D03*
X73750000Y-79710000D03*
X73750000Y-77170000D03*
X73750000Y-84790000D03*
X73750000Y-82250000D03*
X73750000Y-89870000D03*
X73750000Y-87330000D03*
X50890000Y-84790000D03*
X50890000Y-87330000D03*
X73750000Y-49230000D03*
%TD*%
D10*
%TO.C,D5*%
X110760000Y-104800000D03*
D11*
X113300000Y-104800000D03*
%TD*%
D10*
%TO.C,D4*%
X110637000Y-111500000D03*
D11*
X113177000Y-111500000D03*
%TD*%
D16*
%TO.C,J1*%
X106949961Y-52699999D03*
X85950003Y-52699999D03*
D17*
X85950003Y-60000000D03*
D18*
X90150002Y-60000000D03*
X94350001Y-60000000D03*
X98550001Y-60000000D03*
X102750000Y-60000000D03*
X106949999Y-60000000D03*
X85950003Y-65499999D03*
X90150002Y-65499999D03*
X94350001Y-65499999D03*
X98550001Y-65499999D03*
X102750000Y-65499999D03*
X106949999Y-65499999D03*
%TD*%
D12*
%TO.C,U1*%
X99431000Y-79765000D03*
X99431000Y-82305000D03*
X99431000Y-90705000D03*
X99431000Y-93245000D03*
X80971000Y-79765000D03*
X80971000Y-82305000D03*
X80971000Y-90705000D03*
X80971000Y-93245000D03*
%TD*%
D19*
%TO.C,J3*%
X116970199Y-47752800D03*
X116970199Y-50252800D03*
X116970199Y-52752800D03*
X116970199Y-55252800D03*
%TD*%
D10*
%TO.C,D3*%
X118889000Y-111596000D03*
D11*
X121429000Y-111596000D03*
%TD*%
D10*
%TO.C,D6*%
X119460000Y-118100000D03*
D11*
X122000000Y-118100000D03*
%TD*%
D20*
%TO.C,Q1*%
X116360000Y-84770000D03*
D21*
X116360000Y-83500000D03*
X116360000Y-82230000D03*
%TD*%
D13*
%TO.C,J4*%
X78750000Y-46750000D03*
D14*
X78750000Y-48750000D03*
%TD*%
D22*
%TO.C,U5*%
X187439000Y-52520000D03*
X174739000Y-118562200D03*
X174739000Y-116022200D03*
X172199000Y-118562200D03*
X172199000Y-116022200D03*
X167119000Y-118562200D03*
X167119000Y-116022200D03*
X164579000Y-118562200D03*
X164579000Y-116022200D03*
X156959000Y-116022200D03*
X149339000Y-116022200D03*
X146799000Y-118562200D03*
X146799000Y-116022200D03*
X144259000Y-118562200D03*
X144259000Y-116022200D03*
X141719000Y-118562200D03*
X141719000Y-116022200D03*
X139179000Y-118562200D03*
X136639000Y-52520000D03*
X139179000Y-49980000D03*
X139179000Y-52520000D03*
X141719000Y-49980000D03*
X141719000Y-52520000D03*
X144259000Y-49980000D03*
X144259000Y-52520000D03*
X146799000Y-49980000D03*
X146799000Y-52520000D03*
X149339000Y-49980000D03*
X151879000Y-49980000D03*
X151879000Y-52520000D03*
X154419000Y-49980000D03*
X154419000Y-52520000D03*
X159499000Y-52520000D03*
X162039000Y-49980000D03*
X164579000Y-49980000D03*
X164579000Y-52520000D03*
X167119000Y-49980000D03*
X167119000Y-52520000D03*
X169659000Y-49980000D03*
X169659000Y-52520000D03*
X172199000Y-49980000D03*
X177279000Y-49980000D03*
X177279000Y-52520000D03*
X189979000Y-52520000D03*
X179819000Y-49980000D03*
X189979000Y-118562200D03*
D23*
X193286500Y-72840000D03*
D22*
X193286500Y-75380000D03*
X193286500Y-77920000D03*
X193286500Y-80460000D03*
X192519000Y-49980000D03*
X189979000Y-49980000D03*
X187439000Y-49980000D03*
X184899000Y-49980000D03*
X182359000Y-49980000D03*
X174739000Y-49980000D03*
X159499000Y-49980000D03*
X156959000Y-49980000D03*
X136639000Y-49980000D03*
D23*
X195059000Y-52520000D03*
D22*
X192519000Y-52520000D03*
X184899000Y-52520000D03*
X182359000Y-52520000D03*
X179819000Y-52520000D03*
X174739000Y-52520000D03*
X172199000Y-52520000D03*
X162039000Y-52520000D03*
X156959000Y-52520000D03*
X149339000Y-52520000D03*
X195059000Y-116022200D03*
X192519000Y-116022200D03*
X189979000Y-116022200D03*
X187439000Y-116022200D03*
X184899000Y-116022200D03*
X182359000Y-116022200D03*
X179819000Y-116022200D03*
X177279000Y-116022200D03*
X169659000Y-116022200D03*
X162039000Y-116022200D03*
X159499000Y-116022200D03*
X154419000Y-116022200D03*
X151879000Y-116022200D03*
X139179000Y-116022200D03*
X136639000Y-116022200D03*
X192519000Y-118562200D03*
X187439000Y-118562200D03*
X184899000Y-118562200D03*
X182359000Y-118562200D03*
X179819000Y-118562200D03*
X177279000Y-118562200D03*
X169659000Y-118562200D03*
X162039000Y-118562200D03*
X159499000Y-118562200D03*
X156959000Y-118562200D03*
X154419000Y-118562200D03*
X151879000Y-118562200D03*
X149339000Y-118562200D03*
X136639000Y-118562200D03*
X195059000Y-49980000D03*
D23*
X195059000Y-118562200D03*
%TD*%
D10*
%TO.C,D2*%
X110400000Y-118000000D03*
D11*
X112940000Y-118000000D03*
%TD*%
D20*
%TO.C,Q2*%
X111260000Y-84740000D03*
D21*
X111260000Y-83470000D03*
X111260000Y-82200000D03*
%TD*%
D24*
%TO.C,U6*%
X59063000Y-123272000D03*
X56523000Y-123272000D03*
X53983000Y-123272000D03*
X51443000Y-123272000D03*
X51443000Y-98272000D03*
X53983000Y-98272000D03*
X56523000Y-98272000D03*
X59063000Y-98272000D03*
X61603000Y-98272000D03*
X61603000Y-123272000D03*
%TD*%
D25*
X100196115Y-62125219D02*
X100196115Y-62934742D01*
X100196115Y-62934742D02*
X100148496Y-63029980D01*
X100148496Y-63029980D02*
X100100877Y-63077600D01*
X100100877Y-63077600D02*
X100005639Y-63125219D01*
X100005639Y-63125219D02*
X99815163Y-63125219D01*
X99815163Y-63125219D02*
X99719925Y-63077600D01*
X99719925Y-63077600D02*
X99672306Y-63029980D01*
X99672306Y-63029980D02*
X99624687Y-62934742D01*
X99624687Y-62934742D02*
X99624687Y-62125219D01*
X99386592Y-63220457D02*
X98624687Y-63220457D01*
X98529448Y-62125219D02*
X97958020Y-62125219D01*
X98243734Y-63125219D02*
X98243734Y-62125219D01*
X97719924Y-62125219D02*
X97053258Y-63125219D01*
X97053258Y-62125219D02*
X97719924Y-63125219D01*
X99946115Y-67375219D02*
X99946115Y-68184742D01*
X99946115Y-68184742D02*
X99898496Y-68279980D01*
X99898496Y-68279980D02*
X99850877Y-68327600D01*
X99850877Y-68327600D02*
X99755639Y-68375219D01*
X99755639Y-68375219D02*
X99565163Y-68375219D01*
X99565163Y-68375219D02*
X99469925Y-68327600D01*
X99469925Y-68327600D02*
X99422306Y-68279980D01*
X99422306Y-68279980D02*
X99374687Y-68184742D01*
X99374687Y-68184742D02*
X99374687Y-67375219D01*
X99136592Y-68470457D02*
X98374687Y-68470457D01*
X97565163Y-68375219D02*
X97898496Y-67899028D01*
X98136591Y-68375219D02*
X98136591Y-67375219D01*
X98136591Y-67375219D02*
X97755639Y-67375219D01*
X97755639Y-67375219D02*
X97660401Y-67422838D01*
X97660401Y-67422838D02*
X97612782Y-67470457D01*
X97612782Y-67470457D02*
X97565163Y-67565695D01*
X97565163Y-67565695D02*
X97565163Y-67708552D01*
X97565163Y-67708552D02*
X97612782Y-67803790D01*
X97612782Y-67803790D02*
X97660401Y-67851409D01*
X97660401Y-67851409D02*
X97755639Y-67899028D01*
X97755639Y-67899028D02*
X98136591Y-67899028D01*
X97231829Y-67375219D02*
X96565163Y-68375219D01*
X96565163Y-67375219D02*
X97231829Y-68375219D01*
X108124687Y-63029980D02*
X108172306Y-63077600D01*
X108172306Y-63077600D02*
X108315163Y-63125219D01*
X108315163Y-63125219D02*
X108410401Y-63125219D01*
X108410401Y-63125219D02*
X108553258Y-63077600D01*
X108553258Y-63077600D02*
X108648496Y-62982361D01*
X108648496Y-62982361D02*
X108696115Y-62887123D01*
X108696115Y-62887123D02*
X108743734Y-62696647D01*
X108743734Y-62696647D02*
X108743734Y-62553790D01*
X108743734Y-62553790D02*
X108696115Y-62363314D01*
X108696115Y-62363314D02*
X108648496Y-62268076D01*
X108648496Y-62268076D02*
X108553258Y-62172838D01*
X108553258Y-62172838D02*
X108410401Y-62125219D01*
X108410401Y-62125219D02*
X108315163Y-62125219D01*
X108315163Y-62125219D02*
X108172306Y-62172838D01*
X108172306Y-62172838D02*
X108124687Y-62220457D01*
X107743734Y-62839504D02*
X107267544Y-62839504D01*
X107838972Y-63125219D02*
X107505639Y-62125219D01*
X107505639Y-62125219D02*
X107172306Y-63125219D01*
X106838972Y-63125219D02*
X106838972Y-62125219D01*
X106838972Y-62125219D02*
X106267544Y-63125219D01*
X106267544Y-63125219D02*
X106267544Y-62125219D01*
X105791353Y-63125219D02*
X105791353Y-62125219D01*
X105791353Y-62601409D02*
X105219925Y-62601409D01*
X105219925Y-63125219D02*
X105219925Y-62125219D01*
X95743734Y-62839504D02*
X95267544Y-62839504D01*
X95838972Y-63125219D02*
X95505639Y-62125219D01*
X95505639Y-62125219D02*
X95172306Y-63125219D01*
X94838972Y-63125219D02*
X94838972Y-62125219D01*
X94362782Y-63125219D02*
X94362782Y-62125219D01*
X94362782Y-62125219D02*
X93791354Y-63125219D01*
X93791354Y-63125219D02*
X93791354Y-62125219D01*
X93124687Y-62125219D02*
X93029449Y-62125219D01*
X93029449Y-62125219D02*
X92934211Y-62172838D01*
X92934211Y-62172838D02*
X92886592Y-62220457D01*
X92886592Y-62220457D02*
X92838973Y-62315695D01*
X92838973Y-62315695D02*
X92791354Y-62506171D01*
X92791354Y-62506171D02*
X92791354Y-62744266D01*
X92791354Y-62744266D02*
X92838973Y-62934742D01*
X92838973Y-62934742D02*
X92886592Y-63029980D01*
X92886592Y-63029980D02*
X92934211Y-63077600D01*
X92934211Y-63077600D02*
X93029449Y-63125219D01*
X93029449Y-63125219D02*
X93124687Y-63125219D01*
X93124687Y-63125219D02*
X93219925Y-63077600D01*
X93219925Y-63077600D02*
X93267544Y-63029980D01*
X93267544Y-63029980D02*
X93315163Y-62934742D01*
X93315163Y-62934742D02*
X93362782Y-62744266D01*
X93362782Y-62744266D02*
X93362782Y-62506171D01*
X93362782Y-62506171D02*
X93315163Y-62315695D01*
X93315163Y-62315695D02*
X93267544Y-62220457D01*
X93267544Y-62220457D02*
X93219925Y-62172838D01*
X93219925Y-62172838D02*
X93124687Y-62125219D01*
X103993734Y-68327600D02*
X103850877Y-68375219D01*
X103850877Y-68375219D02*
X103612782Y-68375219D01*
X103612782Y-68375219D02*
X103517544Y-68327600D01*
X103517544Y-68327600D02*
X103469925Y-68279980D01*
X103469925Y-68279980D02*
X103422306Y-68184742D01*
X103422306Y-68184742D02*
X103422306Y-68089504D01*
X103422306Y-68089504D02*
X103469925Y-67994266D01*
X103469925Y-67994266D02*
X103517544Y-67946647D01*
X103517544Y-67946647D02*
X103612782Y-67899028D01*
X103612782Y-67899028D02*
X103803258Y-67851409D01*
X103803258Y-67851409D02*
X103898496Y-67803790D01*
X103898496Y-67803790D02*
X103946115Y-67756171D01*
X103946115Y-67756171D02*
X103993734Y-67660933D01*
X103993734Y-67660933D02*
X103993734Y-67565695D01*
X103993734Y-67565695D02*
X103946115Y-67470457D01*
X103946115Y-67470457D02*
X103898496Y-67422838D01*
X103898496Y-67422838D02*
X103803258Y-67375219D01*
X103803258Y-67375219D02*
X103565163Y-67375219D01*
X103565163Y-67375219D02*
X103422306Y-67422838D01*
X102422306Y-68279980D02*
X102469925Y-68327600D01*
X102469925Y-68327600D02*
X102612782Y-68375219D01*
X102612782Y-68375219D02*
X102708020Y-68375219D01*
X102708020Y-68375219D02*
X102850877Y-68327600D01*
X102850877Y-68327600D02*
X102946115Y-68232361D01*
X102946115Y-68232361D02*
X102993734Y-68137123D01*
X102993734Y-68137123D02*
X103041353Y-67946647D01*
X103041353Y-67946647D02*
X103041353Y-67803790D01*
X103041353Y-67803790D02*
X102993734Y-67613314D01*
X102993734Y-67613314D02*
X102946115Y-67518076D01*
X102946115Y-67518076D02*
X102850877Y-67422838D01*
X102850877Y-67422838D02*
X102708020Y-67375219D01*
X102708020Y-67375219D02*
X102612782Y-67375219D01*
X102612782Y-67375219D02*
X102469925Y-67422838D01*
X102469925Y-67422838D02*
X102422306Y-67470457D01*
X101517544Y-68375219D02*
X101993734Y-68375219D01*
X101993734Y-68375219D02*
X101993734Y-67375219D01*
X87588972Y-62125219D02*
X87255639Y-63125219D01*
X87255639Y-63125219D02*
X86922306Y-62125219D01*
X86255639Y-62601409D02*
X86112782Y-62649028D01*
X86112782Y-62649028D02*
X86065163Y-62696647D01*
X86065163Y-62696647D02*
X86017544Y-62791885D01*
X86017544Y-62791885D02*
X86017544Y-62934742D01*
X86017544Y-62934742D02*
X86065163Y-63029980D01*
X86065163Y-63029980D02*
X86112782Y-63077600D01*
X86112782Y-63077600D02*
X86208020Y-63125219D01*
X86208020Y-63125219D02*
X86588972Y-63125219D01*
X86588972Y-63125219D02*
X86588972Y-62125219D01*
X86588972Y-62125219D02*
X86255639Y-62125219D01*
X86255639Y-62125219D02*
X86160401Y-62172838D01*
X86160401Y-62172838D02*
X86112782Y-62220457D01*
X86112782Y-62220457D02*
X86065163Y-62315695D01*
X86065163Y-62315695D02*
X86065163Y-62410933D01*
X86065163Y-62410933D02*
X86112782Y-62506171D01*
X86112782Y-62506171D02*
X86160401Y-62553790D01*
X86160401Y-62553790D02*
X86255639Y-62601409D01*
X86255639Y-62601409D02*
X86588972Y-62601409D01*
X85588972Y-62125219D02*
X85588972Y-62934742D01*
X85588972Y-62934742D02*
X85541353Y-63029980D01*
X85541353Y-63029980D02*
X85493734Y-63077600D01*
X85493734Y-63077600D02*
X85398496Y-63125219D01*
X85398496Y-63125219D02*
X85208020Y-63125219D01*
X85208020Y-63125219D02*
X85112782Y-63077600D01*
X85112782Y-63077600D02*
X85065163Y-63029980D01*
X85065163Y-63029980D02*
X85017544Y-62934742D01*
X85017544Y-62934742D02*
X85017544Y-62125219D01*
X84588972Y-63077600D02*
X84446115Y-63125219D01*
X84446115Y-63125219D02*
X84208020Y-63125219D01*
X84208020Y-63125219D02*
X84112782Y-63077600D01*
X84112782Y-63077600D02*
X84065163Y-63029980D01*
X84065163Y-63029980D02*
X84017544Y-62934742D01*
X84017544Y-62934742D02*
X84017544Y-62839504D01*
X84017544Y-62839504D02*
X84065163Y-62744266D01*
X84065163Y-62744266D02*
X84112782Y-62696647D01*
X84112782Y-62696647D02*
X84208020Y-62649028D01*
X84208020Y-62649028D02*
X84398496Y-62601409D01*
X84398496Y-62601409D02*
X84493734Y-62553790D01*
X84493734Y-62553790D02*
X84541353Y-62506171D01*
X84541353Y-62506171D02*
X84588972Y-62410933D01*
X84588972Y-62410933D02*
X84588972Y-62315695D01*
X84588972Y-62315695D02*
X84541353Y-62220457D01*
X84541353Y-62220457D02*
X84493734Y-62172838D01*
X84493734Y-62172838D02*
X84398496Y-62125219D01*
X84398496Y-62125219D02*
X84160401Y-62125219D01*
X84160401Y-62125219D02*
X84017544Y-62172838D01*
X86672306Y-67422838D02*
X86767544Y-67375219D01*
X86767544Y-67375219D02*
X86910401Y-67375219D01*
X86910401Y-67375219D02*
X87053258Y-67422838D01*
X87053258Y-67422838D02*
X87148496Y-67518076D01*
X87148496Y-67518076D02*
X87196115Y-67613314D01*
X87196115Y-67613314D02*
X87243734Y-67803790D01*
X87243734Y-67803790D02*
X87243734Y-67946647D01*
X87243734Y-67946647D02*
X87196115Y-68137123D01*
X87196115Y-68137123D02*
X87148496Y-68232361D01*
X87148496Y-68232361D02*
X87053258Y-68327600D01*
X87053258Y-68327600D02*
X86910401Y-68375219D01*
X86910401Y-68375219D02*
X86815163Y-68375219D01*
X86815163Y-68375219D02*
X86672306Y-68327600D01*
X86672306Y-68327600D02*
X86624687Y-68279980D01*
X86624687Y-68279980D02*
X86624687Y-67946647D01*
X86624687Y-67946647D02*
X86815163Y-67946647D01*
X86196115Y-68375219D02*
X86196115Y-67375219D01*
X86196115Y-67375219D02*
X85624687Y-68375219D01*
X85624687Y-68375219D02*
X85624687Y-67375219D01*
X85148496Y-68375219D02*
X85148496Y-67375219D01*
X85148496Y-67375219D02*
X84910401Y-67375219D01*
X84910401Y-67375219D02*
X84767544Y-67422838D01*
X84767544Y-67422838D02*
X84672306Y-67518076D01*
X84672306Y-67518076D02*
X84624687Y-67613314D01*
X84624687Y-67613314D02*
X84577068Y-67803790D01*
X84577068Y-67803790D02*
X84577068Y-67946647D01*
X84577068Y-67946647D02*
X84624687Y-68137123D01*
X84624687Y-68137123D02*
X84672306Y-68232361D01*
X84672306Y-68232361D02*
X84767544Y-68327600D01*
X84767544Y-68327600D02*
X84910401Y-68375219D01*
X84910401Y-68375219D02*
X85148496Y-68375219D01*
X107874687Y-68279980D02*
X107922306Y-68327600D01*
X107922306Y-68327600D02*
X108065163Y-68375219D01*
X108065163Y-68375219D02*
X108160401Y-68375219D01*
X108160401Y-68375219D02*
X108303258Y-68327600D01*
X108303258Y-68327600D02*
X108398496Y-68232361D01*
X108398496Y-68232361D02*
X108446115Y-68137123D01*
X108446115Y-68137123D02*
X108493734Y-67946647D01*
X108493734Y-67946647D02*
X108493734Y-67803790D01*
X108493734Y-67803790D02*
X108446115Y-67613314D01*
X108446115Y-67613314D02*
X108398496Y-67518076D01*
X108398496Y-67518076D02*
X108303258Y-67422838D01*
X108303258Y-67422838D02*
X108160401Y-67375219D01*
X108160401Y-67375219D02*
X108065163Y-67375219D01*
X108065163Y-67375219D02*
X107922306Y-67422838D01*
X107922306Y-67422838D02*
X107874687Y-67470457D01*
X107493734Y-68089504D02*
X107017544Y-68089504D01*
X107588972Y-68375219D02*
X107255639Y-67375219D01*
X107255639Y-67375219D02*
X106922306Y-68375219D01*
X106588972Y-68375219D02*
X106588972Y-67375219D01*
X106588972Y-67375219D02*
X106017544Y-68375219D01*
X106017544Y-68375219D02*
X106017544Y-67375219D01*
X105065163Y-68375219D02*
X105541353Y-68375219D01*
X105541353Y-68375219D02*
X105541353Y-67375219D01*
X103993734Y-63077600D02*
X103850877Y-63125219D01*
X103850877Y-63125219D02*
X103612782Y-63125219D01*
X103612782Y-63125219D02*
X103517544Y-63077600D01*
X103517544Y-63077600D02*
X103469925Y-63029980D01*
X103469925Y-63029980D02*
X103422306Y-62934742D01*
X103422306Y-62934742D02*
X103422306Y-62839504D01*
X103422306Y-62839504D02*
X103469925Y-62744266D01*
X103469925Y-62744266D02*
X103517544Y-62696647D01*
X103517544Y-62696647D02*
X103612782Y-62649028D01*
X103612782Y-62649028D02*
X103803258Y-62601409D01*
X103803258Y-62601409D02*
X103898496Y-62553790D01*
X103898496Y-62553790D02*
X103946115Y-62506171D01*
X103946115Y-62506171D02*
X103993734Y-62410933D01*
X103993734Y-62410933D02*
X103993734Y-62315695D01*
X103993734Y-62315695D02*
X103946115Y-62220457D01*
X103946115Y-62220457D02*
X103898496Y-62172838D01*
X103898496Y-62172838D02*
X103803258Y-62125219D01*
X103803258Y-62125219D02*
X103565163Y-62125219D01*
X103565163Y-62125219D02*
X103422306Y-62172838D01*
X102993734Y-63125219D02*
X102993734Y-62125219D01*
X102993734Y-62125219D02*
X102755639Y-62125219D01*
X102755639Y-62125219D02*
X102612782Y-62172838D01*
X102612782Y-62172838D02*
X102517544Y-62268076D01*
X102517544Y-62268076D02*
X102469925Y-62363314D01*
X102469925Y-62363314D02*
X102422306Y-62553790D01*
X102422306Y-62553790D02*
X102422306Y-62696647D01*
X102422306Y-62696647D02*
X102469925Y-62887123D01*
X102469925Y-62887123D02*
X102517544Y-62982361D01*
X102517544Y-62982361D02*
X102612782Y-63077600D01*
X102612782Y-63077600D02*
X102755639Y-63125219D01*
X102755639Y-63125219D02*
X102993734Y-63125219D01*
X102041353Y-62839504D02*
X101565163Y-62839504D01*
X102136591Y-63125219D02*
X101803258Y-62125219D01*
X101803258Y-62125219D02*
X101469925Y-63125219D01*
X91196115Y-68375219D02*
X91196115Y-67375219D01*
X91196115Y-67375219D02*
X90958020Y-67375219D01*
X90958020Y-67375219D02*
X90815163Y-67422838D01*
X90815163Y-67422838D02*
X90719925Y-67518076D01*
X90719925Y-67518076D02*
X90672306Y-67613314D01*
X90672306Y-67613314D02*
X90624687Y-67803790D01*
X90624687Y-67803790D02*
X90624687Y-67946647D01*
X90624687Y-67946647D02*
X90672306Y-68137123D01*
X90672306Y-68137123D02*
X90719925Y-68232361D01*
X90719925Y-68232361D02*
X90815163Y-68327600D01*
X90815163Y-68327600D02*
X90958020Y-68375219D01*
X90958020Y-68375219D02*
X91196115Y-68375219D01*
X90196115Y-68375219D02*
X90196115Y-67375219D01*
X89719925Y-68375219D02*
X89719925Y-67375219D01*
X89719925Y-67375219D02*
X89148497Y-68375219D01*
X89148497Y-68375219D02*
X89148497Y-67375219D01*
X88148497Y-68375219D02*
X88719925Y-68375219D01*
X88434211Y-68375219D02*
X88434211Y-67375219D01*
X88434211Y-67375219D02*
X88529449Y-67518076D01*
X88529449Y-67518076D02*
X88624687Y-67613314D01*
X88624687Y-67613314D02*
X88719925Y-67660933D01*
X95743734Y-68089504D02*
X95267544Y-68089504D01*
X95838972Y-68375219D02*
X95505639Y-67375219D01*
X95505639Y-67375219D02*
X95172306Y-68375219D01*
X94838972Y-68375219D02*
X94838972Y-67375219D01*
X94362782Y-68375219D02*
X94362782Y-67375219D01*
X94362782Y-67375219D02*
X93791354Y-68375219D01*
X93791354Y-68375219D02*
X93791354Y-67375219D01*
X92791354Y-68375219D02*
X93362782Y-68375219D01*
X93077068Y-68375219D02*
X93077068Y-67375219D01*
X93077068Y-67375219D02*
X93172306Y-67518076D01*
X93172306Y-67518076D02*
X93267544Y-67613314D01*
X93267544Y-67613314D02*
X93362782Y-67660933D01*
X91696115Y-63125219D02*
X91696115Y-62125219D01*
X91696115Y-62125219D02*
X91458020Y-62125219D01*
X91458020Y-62125219D02*
X91315163Y-62172838D01*
X91315163Y-62172838D02*
X91219925Y-62268076D01*
X91219925Y-62268076D02*
X91172306Y-62363314D01*
X91172306Y-62363314D02*
X91124687Y-62553790D01*
X91124687Y-62553790D02*
X91124687Y-62696647D01*
X91124687Y-62696647D02*
X91172306Y-62887123D01*
X91172306Y-62887123D02*
X91219925Y-62982361D01*
X91219925Y-62982361D02*
X91315163Y-63077600D01*
X91315163Y-63077600D02*
X91458020Y-63125219D01*
X91458020Y-63125219D02*
X91696115Y-63125219D01*
X90696115Y-63125219D02*
X90696115Y-62125219D01*
X90219925Y-63125219D02*
X90219925Y-62125219D01*
X90219925Y-62125219D02*
X89648497Y-63125219D01*
X89648497Y-63125219D02*
X89648497Y-62125219D01*
X88981830Y-62125219D02*
X88886592Y-62125219D01*
X88886592Y-62125219D02*
X88791354Y-62172838D01*
X88791354Y-62172838D02*
X88743735Y-62220457D01*
X88743735Y-62220457D02*
X88696116Y-62315695D01*
X88696116Y-62315695D02*
X88648497Y-62506171D01*
X88648497Y-62506171D02*
X88648497Y-62744266D01*
X88648497Y-62744266D02*
X88696116Y-62934742D01*
X88696116Y-62934742D02*
X88743735Y-63029980D01*
X88743735Y-63029980D02*
X88791354Y-63077600D01*
X88791354Y-63077600D02*
X88886592Y-63125219D01*
X88886592Y-63125219D02*
X88981830Y-63125219D01*
X88981830Y-63125219D02*
X89077068Y-63077600D01*
X89077068Y-63077600D02*
X89124687Y-63029980D01*
X89124687Y-63029980D02*
X89172306Y-62934742D01*
X89172306Y-62934742D02*
X89219925Y-62744266D01*
X89219925Y-62744266D02*
X89219925Y-62506171D01*
X89219925Y-62506171D02*
X89172306Y-62315695D01*
X89172306Y-62315695D02*
X89124687Y-62220457D01*
X89124687Y-62220457D02*
X89077068Y-62172838D01*
X89077068Y-62172838D02*
X88981830Y-62125219D01*
D26*
%TO.C,J3*%
X117351199Y-44543200D02*
G75*
G02*
X116589199Y-44543200I-381000J0D01*
G01*
X116589199Y-44543200D02*
G75*
G02*
X117351199Y-44543200I381000J0D01*
G01*
%TD*%
M02*
