%TF.GenerationSoftware,KiCad,Pcbnew,8.0.0-rc1*%
%TF.CreationDate,2024-02-28T14:24:35+09:00*%
%TF.ProjectId,KDL,4b444c2e-6b69-4636-9164-5f7063625858,rev?*%
%TF.SameCoordinates,Original*%
%TF.FileFunction,Drillmap*%
%TF.FilePolarity,Positive*%
%FSLAX45Y45*%
G04 Gerber Fmt 4.5, Leading zero omitted, Abs format (unit mm)*
G04 Created by KiCad (PCBNEW 8.0.0-rc1) date 2024-02-28 14:24:35*
%MOMM*%
%LPD*%
G01*
G04 APERTURE LIST*
%ADD10C,0.050000*%
%ADD11C,0.200000*%
%ADD12C,0.100000*%
%ADD13C,0.110000*%
%ADD14C,0.120000*%
%ADD15C,0.124460*%
%ADD16C,0.180000*%
G04 APERTURE END LIST*
D10*
X4875000Y-12300280D02*
G75*
G02*
X4575000Y-12300280I-150000J0D01*
G01*
X4575000Y-12300280D02*
G75*
G02*
X4875000Y-12300280I150000J0D01*
G01*
D11*
X4460000Y-4360280D02*
X21460000Y-4360280D01*
X21460000Y-12560280D01*
X4460000Y-12560280D01*
X4460000Y-4360280D01*
D10*
X21350000Y-12300280D02*
G75*
G02*
X21050000Y-12300280I-150000J0D01*
G01*
X21050000Y-12300280D02*
G75*
G02*
X21350000Y-12300280I150000J0D01*
G01*
X21350000Y-4625280D02*
G75*
G02*
X21050000Y-4625280I-150000J0D01*
G01*
X21050000Y-4625280D02*
G75*
G02*
X21350000Y-4625280I150000J0D01*
G01*
X4875000Y-4625280D02*
G75*
G02*
X4575000Y-4625280I-150000J0D01*
G01*
X4575000Y-4625280D02*
G75*
G02*
X4875000Y-4625280I150000J0D01*
G01*
D11*
D12*
X11320000Y-7628080D02*
X11330000Y-7638080D01*
X11330000Y-7628080D02*
X11320000Y-7638080D01*
X7695000Y-9900000D02*
G75*
G02*
X7655000Y-9900000I-20000J0D01*
G01*
X7655000Y-9900000D02*
G75*
G02*
X7695000Y-9900000I20000J0D01*
G01*
X8293875Y-6801405D02*
G75*
G02*
X8253875Y-6801405I-20000J0D01*
G01*
X8253875Y-6801405D02*
G75*
G02*
X8293875Y-6801405I20000J0D01*
G01*
X8295000Y-7100000D02*
G75*
G02*
X8255000Y-7100000I-20000J0D01*
G01*
X8255000Y-7100000D02*
G75*
G02*
X8295000Y-7100000I20000J0D01*
G01*
X8645000Y-7925000D02*
G75*
G02*
X8605000Y-7925000I-20000J0D01*
G01*
X8605000Y-7925000D02*
G75*
G02*
X8645000Y-7925000I20000J0D01*
G01*
X8670000Y-7100000D02*
G75*
G02*
X8630000Y-7100000I-20000J0D01*
G01*
X8630000Y-7100000D02*
G75*
G02*
X8670000Y-7100000I20000J0D01*
G01*
X8895000Y-7925000D02*
G75*
G02*
X8855000Y-7925000I-20000J0D01*
G01*
X8855000Y-7925000D02*
G75*
G02*
X8895000Y-7925000I20000J0D01*
G01*
X9393735Y-8126265D02*
G75*
G02*
X9353735Y-8126265I-20000J0D01*
G01*
X9353735Y-8126265D02*
G75*
G02*
X9393735Y-8126265I20000J0D01*
G01*
X9945000Y-9875000D02*
G75*
G02*
X9905000Y-9875000I-20000J0D01*
G01*
X9905000Y-9875000D02*
G75*
G02*
X9945000Y-9875000I20000J0D01*
G01*
X10070000Y-7425280D02*
G75*
G02*
X10030000Y-7425280I-20000J0D01*
G01*
X10030000Y-7425280D02*
G75*
G02*
X10070000Y-7425280I20000J0D01*
G01*
X10195000Y-4675000D02*
G75*
G02*
X10155000Y-4675000I-20000J0D01*
G01*
X10155000Y-4675000D02*
G75*
G02*
X10195000Y-4675000I20000J0D01*
G01*
X10220000Y-7375280D02*
G75*
G02*
X10180000Y-7375280I-20000J0D01*
G01*
X10180000Y-7375280D02*
G75*
G02*
X10220000Y-7375280I20000J0D01*
G01*
X10445000Y-4552500D02*
G75*
G02*
X10405000Y-4552500I-20000J0D01*
G01*
X10405000Y-4552500D02*
G75*
G02*
X10445000Y-4552500I20000J0D01*
G01*
X10590000Y-10115580D02*
G75*
G02*
X10550000Y-10115580I-20000J0D01*
G01*
X10550000Y-10115580D02*
G75*
G02*
X10590000Y-10115580I20000J0D01*
G01*
X10720000Y-7100000D02*
G75*
G02*
X10680000Y-7100000I-20000J0D01*
G01*
X10680000Y-7100000D02*
G75*
G02*
X10720000Y-7100000I20000J0D01*
G01*
X10945000Y-7425280D02*
G75*
G02*
X10905000Y-7425280I-20000J0D01*
G01*
X10905000Y-7425280D02*
G75*
G02*
X10945000Y-7425280I20000J0D01*
G01*
X11045000Y-6875280D02*
G75*
G02*
X11005000Y-6875280I-20000J0D01*
G01*
X11005000Y-6875280D02*
G75*
G02*
X11045000Y-6875280I20000J0D01*
G01*
X11300000Y-9820000D02*
G75*
G02*
X11260000Y-9820000I-20000J0D01*
G01*
X11260000Y-9820000D02*
G75*
G02*
X11300000Y-9820000I20000J0D01*
G01*
X11370000Y-8050280D02*
G75*
G02*
X11330000Y-8050280I-20000J0D01*
G01*
X11330000Y-8050280D02*
G75*
G02*
X11370000Y-8050280I20000J0D01*
G01*
X11543510Y-4967910D02*
G75*
G02*
X11503510Y-4967910I-20000J0D01*
G01*
X11503510Y-4967910D02*
G75*
G02*
X11543510Y-4967910I20000J0D01*
G01*
X11670000Y-9375000D02*
G75*
G02*
X11630000Y-9375000I-20000J0D01*
G01*
X11630000Y-9375000D02*
G75*
G02*
X11670000Y-9375000I20000J0D01*
G01*
X11720000Y-9690000D02*
G75*
G02*
X11680000Y-9690000I-20000J0D01*
G01*
X11680000Y-9690000D02*
G75*
G02*
X11720000Y-9690000I20000J0D01*
G01*
X11745000Y-7200280D02*
G75*
G02*
X11705000Y-7200280I-20000J0D01*
G01*
X11705000Y-7200280D02*
G75*
G02*
X11745000Y-7200280I20000J0D01*
G01*
X11820000Y-6500280D02*
G75*
G02*
X11780000Y-6500280I-20000J0D01*
G01*
X11780000Y-6500280D02*
G75*
G02*
X11820000Y-6500280I20000J0D01*
G01*
X11895000Y-8025000D02*
G75*
G02*
X11855000Y-8025000I-20000J0D01*
G01*
X11855000Y-8025000D02*
G75*
G02*
X11895000Y-8025000I20000J0D01*
G01*
X11970000Y-8225000D02*
G75*
G02*
X11930000Y-8225000I-20000J0D01*
G01*
X11930000Y-8225000D02*
G75*
G02*
X11970000Y-8225000I20000J0D01*
G01*
X11995000Y-6875280D02*
G75*
G02*
X11955000Y-6875280I-20000J0D01*
G01*
X11955000Y-6875280D02*
G75*
G02*
X11995000Y-6875280I20000J0D01*
G01*
X12345000Y-9875000D02*
G75*
G02*
X12305000Y-9875000I-20000J0D01*
G01*
X12305000Y-9875000D02*
G75*
G02*
X12345000Y-9875000I20000J0D01*
G01*
X12419860Y-8625140D02*
G75*
G02*
X12379860Y-8625140I-20000J0D01*
G01*
X12379860Y-8625140D02*
G75*
G02*
X12419860Y-8625140I20000J0D01*
G01*
X12424050Y-7527500D02*
G75*
G02*
X12384050Y-7527500I-20000J0D01*
G01*
X12384050Y-7527500D02*
G75*
G02*
X12424050Y-7527500I20000J0D01*
G01*
X12445000Y-9440000D02*
G75*
G02*
X12405000Y-9440000I-20000J0D01*
G01*
X12405000Y-9440000D02*
G75*
G02*
X12445000Y-9440000I20000J0D01*
G01*
X12470000Y-9100000D02*
G75*
G02*
X12430000Y-9100000I-20000J0D01*
G01*
X12430000Y-9100000D02*
G75*
G02*
X12470000Y-9100000I20000J0D01*
G01*
X12570000Y-8575000D02*
G75*
G02*
X12530000Y-8575000I-20000J0D01*
G01*
X12530000Y-8575000D02*
G75*
G02*
X12570000Y-8575000I20000J0D01*
G01*
X12650000Y-9520000D02*
G75*
G02*
X12610000Y-9520000I-20000J0D01*
G01*
X12610000Y-9520000D02*
G75*
G02*
X12650000Y-9520000I20000J0D01*
G01*
X12795000Y-9000280D02*
G75*
G02*
X12755000Y-9000280I-20000J0D01*
G01*
X12755000Y-9000280D02*
G75*
G02*
X12795000Y-9000280I20000J0D01*
G01*
X13445000Y-6375000D02*
G75*
G02*
X13405000Y-6375000I-20000J0D01*
G01*
X13405000Y-6375000D02*
G75*
G02*
X13445000Y-6375000I20000J0D01*
G01*
X13595000Y-9800280D02*
G75*
G02*
X13555000Y-9800280I-20000J0D01*
G01*
X13555000Y-9800280D02*
G75*
G02*
X13595000Y-9800280I20000J0D01*
G01*
X13870000Y-10100000D02*
G75*
G02*
X13830000Y-10100000I-20000J0D01*
G01*
X13830000Y-10100000D02*
G75*
G02*
X13870000Y-10100000I20000J0D01*
G01*
X15030000Y-6190000D02*
G75*
G02*
X14990000Y-6190000I-20000J0D01*
G01*
X14990000Y-6190000D02*
G75*
G02*
X15030000Y-6190000I20000J0D01*
G01*
X15118735Y-5873735D02*
G75*
G02*
X15078735Y-5873735I-20000J0D01*
G01*
X15078735Y-5873735D02*
G75*
G02*
X15118735Y-5873735I20000J0D01*
G01*
X15422500Y-6075000D02*
G75*
G02*
X15382500Y-6075000I-20000J0D01*
G01*
X15382500Y-6075000D02*
G75*
G02*
X15422500Y-6075000I20000J0D01*
G01*
X15495000Y-5950000D02*
G75*
G02*
X15455000Y-5950000I-20000J0D01*
G01*
X15455000Y-5950000D02*
G75*
G02*
X15495000Y-5950000I20000J0D01*
G01*
X11126000Y-8182500D02*
X11126000Y-8257500D01*
X11088500Y-8220000D02*
X11163500Y-8220000D01*
X11126000Y-8309500D02*
X11126000Y-8384500D01*
X11088500Y-8347000D02*
X11163500Y-8347000D01*
X11126000Y-8436500D02*
X11126000Y-8511500D01*
X11088500Y-8474000D02*
X11163500Y-8474000D01*
X11636000Y-8185500D02*
X11636000Y-8260500D01*
X11598500Y-8223000D02*
X11673500Y-8223000D01*
X11636000Y-8312500D02*
X11636000Y-8387500D01*
X11598500Y-8350000D02*
X11673500Y-8350000D01*
X11636000Y-8439500D02*
X11636000Y-8514500D01*
X11598500Y-8477000D02*
X11673500Y-8477000D01*
X7903284Y-4703285D02*
X7903284Y-4646716D01*
X7846715Y-4646716D01*
X7846715Y-4703285D01*
X7903284Y-4703285D01*
X7903284Y-4903285D02*
X7903284Y-4846716D01*
X7846715Y-4846716D01*
X7846715Y-4903285D01*
X7903284Y-4903285D01*
X7903284Y-5328285D02*
X7903284Y-5271716D01*
X7846715Y-5271716D01*
X7846715Y-5328285D01*
X7903284Y-5328285D01*
X7903284Y-5528285D02*
X7903284Y-5471716D01*
X7846715Y-5471716D01*
X7846715Y-5528285D01*
X7903284Y-5528285D01*
X7903284Y-5728284D02*
X7903284Y-5671715D01*
X7846715Y-5671715D01*
X7846715Y-5728284D01*
X7903284Y-5728284D01*
X5089000Y-4968000D02*
X5134000Y-4923000D01*
X5089000Y-4878000D01*
X5044000Y-4923000D01*
X5089000Y-4968000D01*
X5089000Y-5222000D02*
X5134000Y-5177000D01*
X5089000Y-5132000D01*
X5044000Y-5177000D01*
X5089000Y-5222000D01*
X5089000Y-5476000D02*
X5134000Y-5431000D01*
X5089000Y-5386000D01*
X5044000Y-5431000D01*
X5089000Y-5476000D01*
X5089000Y-5730000D02*
X5134000Y-5685000D01*
X5089000Y-5640000D01*
X5044000Y-5685000D01*
X5089000Y-5730000D01*
X5089000Y-5984000D02*
X5134000Y-5939000D01*
X5089000Y-5894000D01*
X5044000Y-5939000D01*
X5089000Y-5984000D01*
X5089000Y-6238000D02*
X5134000Y-6193000D01*
X5089000Y-6148000D01*
X5044000Y-6193000D01*
X5089000Y-6238000D01*
X5089000Y-6492000D02*
X5134000Y-6447000D01*
X5089000Y-6402000D01*
X5044000Y-6447000D01*
X5089000Y-6492000D01*
X5089000Y-6746000D02*
X5134000Y-6701000D01*
X5089000Y-6656000D01*
X5044000Y-6701000D01*
X5089000Y-6746000D01*
X5089000Y-7000000D02*
X5134000Y-6955000D01*
X5089000Y-6910000D01*
X5044000Y-6955000D01*
X5089000Y-7000000D01*
X5089000Y-7254000D02*
X5134000Y-7209000D01*
X5089000Y-7164000D01*
X5044000Y-7209000D01*
X5089000Y-7254000D01*
X5089000Y-7508000D02*
X5134000Y-7463000D01*
X5089000Y-7418000D01*
X5044000Y-7463000D01*
X5089000Y-7508000D01*
X5089000Y-7762000D02*
X5134000Y-7717000D01*
X5089000Y-7672000D01*
X5044000Y-7717000D01*
X5089000Y-7762000D01*
X5089000Y-8016000D02*
X5134000Y-7971000D01*
X5089000Y-7926000D01*
X5044000Y-7971000D01*
X5089000Y-8016000D01*
X5089000Y-8270000D02*
X5134000Y-8225000D01*
X5089000Y-8180000D01*
X5044000Y-8225000D01*
X5089000Y-8270000D01*
X5089000Y-8524000D02*
X5134000Y-8479000D01*
X5089000Y-8434000D01*
X5044000Y-8479000D01*
X5089000Y-8524000D01*
X5089000Y-8778000D02*
X5134000Y-8733000D01*
X5089000Y-8688000D01*
X5044000Y-8733000D01*
X5089000Y-8778000D01*
X5089000Y-9032000D02*
X5134000Y-8987000D01*
X5089000Y-8942000D01*
X5044000Y-8987000D01*
X5089000Y-9032000D01*
X5089000Y-9286000D02*
X5134000Y-9241000D01*
X5089000Y-9196000D01*
X5044000Y-9241000D01*
X5089000Y-9286000D01*
X5089000Y-9540000D02*
X5134000Y-9495000D01*
X5089000Y-9450000D01*
X5044000Y-9495000D01*
X5089000Y-9540000D01*
X7375000Y-4968000D02*
X7420000Y-4923000D01*
X7375000Y-4878000D01*
X7330000Y-4923000D01*
X7375000Y-4968000D01*
X7375000Y-5222000D02*
X7420000Y-5177000D01*
X7375000Y-5132000D01*
X7330000Y-5177000D01*
X7375000Y-5222000D01*
X7375000Y-5476000D02*
X7420000Y-5431000D01*
X7375000Y-5386000D01*
X7330000Y-5431000D01*
X7375000Y-5476000D01*
X7375000Y-5730000D02*
X7420000Y-5685000D01*
X7375000Y-5640000D01*
X7330000Y-5685000D01*
X7375000Y-5730000D01*
X7375000Y-5984000D02*
X7420000Y-5939000D01*
X7375000Y-5894000D01*
X7330000Y-5939000D01*
X7375000Y-5984000D01*
X7375000Y-6238000D02*
X7420000Y-6193000D01*
X7375000Y-6148000D01*
X7330000Y-6193000D01*
X7375000Y-6238000D01*
X7375000Y-6492000D02*
X7420000Y-6447000D01*
X7375000Y-6402000D01*
X7330000Y-6447000D01*
X7375000Y-6492000D01*
X7375000Y-6746000D02*
X7420000Y-6701000D01*
X7375000Y-6656000D01*
X7330000Y-6701000D01*
X7375000Y-6746000D01*
X7375000Y-7000000D02*
X7420000Y-6955000D01*
X7375000Y-6910000D01*
X7330000Y-6955000D01*
X7375000Y-7000000D01*
X7375000Y-7254000D02*
X7420000Y-7209000D01*
X7375000Y-7164000D01*
X7330000Y-7209000D01*
X7375000Y-7254000D01*
X7375000Y-7508000D02*
X7420000Y-7463000D01*
X7375000Y-7418000D01*
X7330000Y-7463000D01*
X7375000Y-7508000D01*
X7375000Y-7762000D02*
X7420000Y-7717000D01*
X7375000Y-7672000D01*
X7330000Y-7717000D01*
X7375000Y-7762000D01*
X7375000Y-8016000D02*
X7420000Y-7971000D01*
X7375000Y-7926000D01*
X7330000Y-7971000D01*
X7375000Y-8016000D01*
X7375000Y-8270000D02*
X7420000Y-8225000D01*
X7375000Y-8180000D01*
X7330000Y-8225000D01*
X7375000Y-8270000D01*
X7375000Y-8524000D02*
X7420000Y-8479000D01*
X7375000Y-8434000D01*
X7330000Y-8479000D01*
X7375000Y-8524000D01*
X7375000Y-8778000D02*
X7420000Y-8733000D01*
X7375000Y-8688000D01*
X7330000Y-8733000D01*
X7375000Y-8778000D01*
X7375000Y-9032000D02*
X7420000Y-8987000D01*
X7375000Y-8942000D01*
X7330000Y-8987000D01*
X7375000Y-9032000D01*
X7375000Y-9286000D02*
X7420000Y-9241000D01*
X7375000Y-9196000D01*
X7330000Y-9241000D01*
X7375000Y-9286000D01*
X7375000Y-9540000D02*
X7420000Y-9495000D01*
X7375000Y-9450000D01*
X7330000Y-9495000D01*
X7375000Y-9540000D01*
X11040000Y-11845000D02*
X11085000Y-11800000D01*
X11040000Y-11755000D01*
X10995000Y-11800000D01*
X11040000Y-11845000D01*
X11063700Y-11195000D02*
X11108700Y-11150000D01*
X11063700Y-11105000D01*
X11018700Y-11150000D01*
X11063700Y-11195000D01*
X11076000Y-10525000D02*
X11121000Y-10480000D01*
X11076000Y-10435000D01*
X11031000Y-10480000D01*
X11076000Y-10525000D01*
X11294000Y-11845000D02*
X11339000Y-11800000D01*
X11294000Y-11755000D01*
X11249000Y-11800000D01*
X11294000Y-11845000D01*
X11317700Y-11195000D02*
X11362700Y-11150000D01*
X11317700Y-11105000D01*
X11272700Y-11150000D01*
X11317700Y-11195000D01*
X11330000Y-10525000D02*
X11375000Y-10480000D01*
X11330000Y-10435000D01*
X11285000Y-10480000D01*
X11330000Y-10525000D01*
X11888900Y-11204600D02*
X11933900Y-11159600D01*
X11888900Y-11114600D01*
X11843900Y-11159600D01*
X11888900Y-11204600D01*
X11936000Y-10524300D02*
X11981000Y-10479300D01*
X11936000Y-10434300D01*
X11891000Y-10479300D01*
X11936000Y-10524300D01*
X11946000Y-11855000D02*
X11991000Y-11810000D01*
X11946000Y-11765000D01*
X11901000Y-11810000D01*
X11946000Y-11855000D01*
X12142900Y-11204600D02*
X12187900Y-11159600D01*
X12142900Y-11114600D01*
X12097900Y-11159600D01*
X12142900Y-11204600D01*
X12190000Y-10524300D02*
X12235000Y-10479300D01*
X12190000Y-10434300D01*
X12145000Y-10479300D01*
X12190000Y-10524300D01*
X12200000Y-11855000D02*
X12245000Y-11810000D01*
X12200000Y-11765000D01*
X12155000Y-11810000D01*
X12200000Y-11855000D01*
X13613900Y-4948000D02*
X13713900Y-5048000D01*
X13713900Y-4948000D02*
X13613900Y-5048000D01*
X13713900Y-4998000D02*
G75*
G02*
X13613900Y-4998000I-50000J0D01*
G01*
X13613900Y-4998000D02*
G75*
G02*
X13713900Y-4998000I50000J0D01*
G01*
X13613900Y-5202000D02*
X13713900Y-5302000D01*
X13713900Y-5202000D02*
X13613900Y-5302000D01*
X13713900Y-5252000D02*
G75*
G02*
X13613900Y-5252000I-50000J0D01*
G01*
X13613900Y-5252000D02*
G75*
G02*
X13713900Y-5252000I50000J0D01*
G01*
X13613900Y-11552220D02*
X13713900Y-11652220D01*
X13713900Y-11552220D02*
X13613900Y-11652220D01*
X13713900Y-11602220D02*
G75*
G02*
X13613900Y-11602220I-50000J0D01*
G01*
X13613900Y-11602220D02*
G75*
G02*
X13713900Y-11602220I50000J0D01*
G01*
X13613900Y-11806220D02*
X13713900Y-11906220D01*
X13713900Y-11806220D02*
X13613900Y-11906220D01*
X13713900Y-11856220D02*
G75*
G02*
X13613900Y-11856220I-50000J0D01*
G01*
X13613900Y-11856220D02*
G75*
G02*
X13713900Y-11856220I50000J0D01*
G01*
X13867900Y-4948000D02*
X13967900Y-5048000D01*
X13967900Y-4948000D02*
X13867900Y-5048000D01*
X13967900Y-4998000D02*
G75*
G02*
X13867900Y-4998000I-50000J0D01*
G01*
X13867900Y-4998000D02*
G75*
G02*
X13967900Y-4998000I50000J0D01*
G01*
X13867900Y-5202000D02*
X13967900Y-5302000D01*
X13967900Y-5202000D02*
X13867900Y-5302000D01*
X13967900Y-5252000D02*
G75*
G02*
X13867900Y-5252000I-50000J0D01*
G01*
X13867900Y-5252000D02*
G75*
G02*
X13967900Y-5252000I50000J0D01*
G01*
X13867900Y-11552220D02*
X13967900Y-11652220D01*
X13967900Y-11552220D02*
X13867900Y-11652220D01*
X13967900Y-11602220D02*
G75*
G02*
X13867900Y-11602220I-50000J0D01*
G01*
X13867900Y-11602220D02*
G75*
G02*
X13967900Y-11602220I50000J0D01*
G01*
X13867900Y-11806220D02*
X13967900Y-11906220D01*
X13967900Y-11806220D02*
X13867900Y-11906220D01*
X13967900Y-11856220D02*
G75*
G02*
X13867900Y-11856220I-50000J0D01*
G01*
X13867900Y-11856220D02*
G75*
G02*
X13967900Y-11856220I50000J0D01*
G01*
X14121900Y-4948000D02*
X14221900Y-5048000D01*
X14221900Y-4948000D02*
X14121900Y-5048000D01*
X14221900Y-4998000D02*
G75*
G02*
X14121900Y-4998000I-50000J0D01*
G01*
X14121900Y-4998000D02*
G75*
G02*
X14221900Y-4998000I50000J0D01*
G01*
X14121900Y-5202000D02*
X14221900Y-5302000D01*
X14221900Y-5202000D02*
X14121900Y-5302000D01*
X14221900Y-5252000D02*
G75*
G02*
X14121900Y-5252000I-50000J0D01*
G01*
X14121900Y-5252000D02*
G75*
G02*
X14221900Y-5252000I50000J0D01*
G01*
X14121900Y-11552220D02*
X14221900Y-11652220D01*
X14221900Y-11552220D02*
X14121900Y-11652220D01*
X14221900Y-11602220D02*
G75*
G02*
X14121900Y-11602220I-50000J0D01*
G01*
X14121900Y-11602220D02*
G75*
G02*
X14221900Y-11602220I50000J0D01*
G01*
X14121900Y-11806220D02*
X14221900Y-11906220D01*
X14221900Y-11806220D02*
X14121900Y-11906220D01*
X14221900Y-11856220D02*
G75*
G02*
X14121900Y-11856220I-50000J0D01*
G01*
X14121900Y-11856220D02*
G75*
G02*
X14221900Y-11856220I50000J0D01*
G01*
X14375900Y-4948000D02*
X14475900Y-5048000D01*
X14475900Y-4948000D02*
X14375900Y-5048000D01*
X14475900Y-4998000D02*
G75*
G02*
X14375900Y-4998000I-50000J0D01*
G01*
X14375900Y-4998000D02*
G75*
G02*
X14475900Y-4998000I50000J0D01*
G01*
X14375900Y-5202000D02*
X14475900Y-5302000D01*
X14475900Y-5202000D02*
X14375900Y-5302000D01*
X14475900Y-5252000D02*
G75*
G02*
X14375900Y-5252000I-50000J0D01*
G01*
X14375900Y-5252000D02*
G75*
G02*
X14475900Y-5252000I50000J0D01*
G01*
X14375900Y-11552220D02*
X14475900Y-11652220D01*
X14475900Y-11552220D02*
X14375900Y-11652220D01*
X14475900Y-11602220D02*
G75*
G02*
X14375900Y-11602220I-50000J0D01*
G01*
X14375900Y-11602220D02*
G75*
G02*
X14475900Y-11602220I50000J0D01*
G01*
X14375900Y-11806220D02*
X14475900Y-11906220D01*
X14475900Y-11806220D02*
X14375900Y-11906220D01*
X14475900Y-11856220D02*
G75*
G02*
X14375900Y-11856220I-50000J0D01*
G01*
X14375900Y-11856220D02*
G75*
G02*
X14475900Y-11856220I50000J0D01*
G01*
X14629900Y-4948000D02*
X14729900Y-5048000D01*
X14729900Y-4948000D02*
X14629900Y-5048000D01*
X14729900Y-4998000D02*
G75*
G02*
X14629900Y-4998000I-50000J0D01*
G01*
X14629900Y-4998000D02*
G75*
G02*
X14729900Y-4998000I50000J0D01*
G01*
X14629900Y-5202000D02*
X14729900Y-5302000D01*
X14729900Y-5202000D02*
X14629900Y-5302000D01*
X14729900Y-5252000D02*
G75*
G02*
X14629900Y-5252000I-50000J0D01*
G01*
X14629900Y-5252000D02*
G75*
G02*
X14729900Y-5252000I50000J0D01*
G01*
X14629900Y-11552220D02*
X14729900Y-11652220D01*
X14729900Y-11552220D02*
X14629900Y-11652220D01*
X14729900Y-11602220D02*
G75*
G02*
X14629900Y-11602220I-50000J0D01*
G01*
X14629900Y-11602220D02*
G75*
G02*
X14729900Y-11602220I50000J0D01*
G01*
X14629900Y-11806220D02*
X14729900Y-11906220D01*
X14729900Y-11806220D02*
X14629900Y-11906220D01*
X14729900Y-11856220D02*
G75*
G02*
X14629900Y-11856220I-50000J0D01*
G01*
X14629900Y-11856220D02*
G75*
G02*
X14729900Y-11856220I50000J0D01*
G01*
X14883900Y-4948000D02*
X14983900Y-5048000D01*
X14983900Y-4948000D02*
X14883900Y-5048000D01*
X14983900Y-4998000D02*
G75*
G02*
X14883900Y-4998000I-50000J0D01*
G01*
X14883900Y-4998000D02*
G75*
G02*
X14983900Y-4998000I50000J0D01*
G01*
X14883900Y-5202000D02*
X14983900Y-5302000D01*
X14983900Y-5202000D02*
X14883900Y-5302000D01*
X14983900Y-5252000D02*
G75*
G02*
X14883900Y-5252000I-50000J0D01*
G01*
X14883900Y-5252000D02*
G75*
G02*
X14983900Y-5252000I50000J0D01*
G01*
X14883900Y-11552220D02*
X14983900Y-11652220D01*
X14983900Y-11552220D02*
X14883900Y-11652220D01*
X14983900Y-11602220D02*
G75*
G02*
X14883900Y-11602220I-50000J0D01*
G01*
X14883900Y-11602220D02*
G75*
G02*
X14983900Y-11602220I50000J0D01*
G01*
X14883900Y-11806220D02*
X14983900Y-11906220D01*
X14983900Y-11806220D02*
X14883900Y-11906220D01*
X14983900Y-11856220D02*
G75*
G02*
X14883900Y-11856220I-50000J0D01*
G01*
X14883900Y-11856220D02*
G75*
G02*
X14983900Y-11856220I50000J0D01*
G01*
X15137900Y-4948000D02*
X15237900Y-5048000D01*
X15237900Y-4948000D02*
X15137900Y-5048000D01*
X15237900Y-4998000D02*
G75*
G02*
X15137900Y-4998000I-50000J0D01*
G01*
X15137900Y-4998000D02*
G75*
G02*
X15237900Y-4998000I50000J0D01*
G01*
X15137900Y-5202000D02*
X15237900Y-5302000D01*
X15237900Y-5202000D02*
X15137900Y-5302000D01*
X15237900Y-5252000D02*
G75*
G02*
X15137900Y-5252000I-50000J0D01*
G01*
X15137900Y-5252000D02*
G75*
G02*
X15237900Y-5252000I50000J0D01*
G01*
X15137900Y-11552220D02*
X15237900Y-11652220D01*
X15237900Y-11552220D02*
X15137900Y-11652220D01*
X15237900Y-11602220D02*
G75*
G02*
X15137900Y-11602220I-50000J0D01*
G01*
X15137900Y-11602220D02*
G75*
G02*
X15237900Y-11602220I50000J0D01*
G01*
X15137900Y-11806220D02*
X15237900Y-11906220D01*
X15237900Y-11806220D02*
X15137900Y-11906220D01*
X15237900Y-11856220D02*
G75*
G02*
X15137900Y-11856220I-50000J0D01*
G01*
X15137900Y-11856220D02*
G75*
G02*
X15237900Y-11856220I50000J0D01*
G01*
X15391900Y-4948000D02*
X15491900Y-5048000D01*
X15491900Y-4948000D02*
X15391900Y-5048000D01*
X15491900Y-4998000D02*
G75*
G02*
X15391900Y-4998000I-50000J0D01*
G01*
X15391900Y-4998000D02*
G75*
G02*
X15491900Y-4998000I50000J0D01*
G01*
X15391900Y-5202000D02*
X15491900Y-5302000D01*
X15491900Y-5202000D02*
X15391900Y-5302000D01*
X15491900Y-5252000D02*
G75*
G02*
X15391900Y-5252000I-50000J0D01*
G01*
X15391900Y-5252000D02*
G75*
G02*
X15491900Y-5252000I50000J0D01*
G01*
X15391900Y-11552220D02*
X15491900Y-11652220D01*
X15491900Y-11552220D02*
X15391900Y-11652220D01*
X15491900Y-11602220D02*
G75*
G02*
X15391900Y-11602220I-50000J0D01*
G01*
X15391900Y-11602220D02*
G75*
G02*
X15491900Y-11602220I50000J0D01*
G01*
X15391900Y-11806220D02*
X15491900Y-11906220D01*
X15491900Y-11806220D02*
X15391900Y-11906220D01*
X15491900Y-11856220D02*
G75*
G02*
X15391900Y-11856220I-50000J0D01*
G01*
X15391900Y-11856220D02*
G75*
G02*
X15491900Y-11856220I50000J0D01*
G01*
X15645900Y-4948000D02*
X15745900Y-5048000D01*
X15745900Y-4948000D02*
X15645900Y-5048000D01*
X15745900Y-4998000D02*
G75*
G02*
X15645900Y-4998000I-50000J0D01*
G01*
X15645900Y-4998000D02*
G75*
G02*
X15745900Y-4998000I50000J0D01*
G01*
X15645900Y-5202000D02*
X15745900Y-5302000D01*
X15745900Y-5202000D02*
X15645900Y-5302000D01*
X15745900Y-5252000D02*
G75*
G02*
X15645900Y-5252000I-50000J0D01*
G01*
X15645900Y-5252000D02*
G75*
G02*
X15745900Y-5252000I50000J0D01*
G01*
X15645900Y-11552220D02*
X15745900Y-11652220D01*
X15745900Y-11552220D02*
X15645900Y-11652220D01*
X15745900Y-11602220D02*
G75*
G02*
X15645900Y-11602220I-50000J0D01*
G01*
X15645900Y-11602220D02*
G75*
G02*
X15745900Y-11602220I50000J0D01*
G01*
X15645900Y-11806220D02*
X15745900Y-11906220D01*
X15745900Y-11806220D02*
X15645900Y-11906220D01*
X15745900Y-11856220D02*
G75*
G02*
X15645900Y-11856220I-50000J0D01*
G01*
X15645900Y-11856220D02*
G75*
G02*
X15745900Y-11856220I50000J0D01*
G01*
X15899900Y-4948000D02*
X15999900Y-5048000D01*
X15999900Y-4948000D02*
X15899900Y-5048000D01*
X15999900Y-4998000D02*
G75*
G02*
X15899900Y-4998000I-50000J0D01*
G01*
X15899900Y-4998000D02*
G75*
G02*
X15999900Y-4998000I50000J0D01*
G01*
X15899900Y-5202000D02*
X15999900Y-5302000D01*
X15999900Y-5202000D02*
X15899900Y-5302000D01*
X15999900Y-5252000D02*
G75*
G02*
X15899900Y-5252000I-50000J0D01*
G01*
X15899900Y-5252000D02*
G75*
G02*
X15999900Y-5252000I50000J0D01*
G01*
X15899900Y-11552220D02*
X15999900Y-11652220D01*
X15999900Y-11552220D02*
X15899900Y-11652220D01*
X15999900Y-11602220D02*
G75*
G02*
X15899900Y-11602220I-50000J0D01*
G01*
X15899900Y-11602220D02*
G75*
G02*
X15999900Y-11602220I50000J0D01*
G01*
X15899900Y-11806220D02*
X15999900Y-11906220D01*
X15999900Y-11806220D02*
X15899900Y-11906220D01*
X15999900Y-11856220D02*
G75*
G02*
X15899900Y-11856220I-50000J0D01*
G01*
X15899900Y-11856220D02*
G75*
G02*
X15999900Y-11856220I50000J0D01*
G01*
X16153900Y-4948000D02*
X16253900Y-5048000D01*
X16253900Y-4948000D02*
X16153900Y-5048000D01*
X16253900Y-4998000D02*
G75*
G02*
X16153900Y-4998000I-50000J0D01*
G01*
X16153900Y-4998000D02*
G75*
G02*
X16253900Y-4998000I50000J0D01*
G01*
X16153900Y-5202000D02*
X16253900Y-5302000D01*
X16253900Y-5202000D02*
X16153900Y-5302000D01*
X16253900Y-5252000D02*
G75*
G02*
X16153900Y-5252000I-50000J0D01*
G01*
X16153900Y-5252000D02*
G75*
G02*
X16253900Y-5252000I50000J0D01*
G01*
X16153900Y-11552220D02*
X16253900Y-11652220D01*
X16253900Y-11552220D02*
X16153900Y-11652220D01*
X16253900Y-11602220D02*
G75*
G02*
X16153900Y-11602220I-50000J0D01*
G01*
X16153900Y-11602220D02*
G75*
G02*
X16253900Y-11602220I50000J0D01*
G01*
X16153900Y-11806220D02*
X16253900Y-11906220D01*
X16253900Y-11806220D02*
X16153900Y-11906220D01*
X16253900Y-11856220D02*
G75*
G02*
X16153900Y-11856220I-50000J0D01*
G01*
X16153900Y-11856220D02*
G75*
G02*
X16253900Y-11856220I50000J0D01*
G01*
X16407900Y-4948000D02*
X16507900Y-5048000D01*
X16507900Y-4948000D02*
X16407900Y-5048000D01*
X16507900Y-4998000D02*
G75*
G02*
X16407900Y-4998000I-50000J0D01*
G01*
X16407900Y-4998000D02*
G75*
G02*
X16507900Y-4998000I50000J0D01*
G01*
X16407900Y-5202000D02*
X16507900Y-5302000D01*
X16507900Y-5202000D02*
X16407900Y-5302000D01*
X16507900Y-5252000D02*
G75*
G02*
X16407900Y-5252000I-50000J0D01*
G01*
X16407900Y-5252000D02*
G75*
G02*
X16507900Y-5252000I50000J0D01*
G01*
X16407900Y-11552220D02*
X16507900Y-11652220D01*
X16507900Y-11552220D02*
X16407900Y-11652220D01*
X16507900Y-11602220D02*
G75*
G02*
X16407900Y-11602220I-50000J0D01*
G01*
X16407900Y-11602220D02*
G75*
G02*
X16507900Y-11602220I50000J0D01*
G01*
X16407900Y-11806220D02*
X16507900Y-11906220D01*
X16507900Y-11806220D02*
X16407900Y-11906220D01*
X16507900Y-11856220D02*
G75*
G02*
X16407900Y-11856220I-50000J0D01*
G01*
X16407900Y-11856220D02*
G75*
G02*
X16507900Y-11856220I50000J0D01*
G01*
X16661900Y-4948000D02*
X16761900Y-5048000D01*
X16761900Y-4948000D02*
X16661900Y-5048000D01*
X16761900Y-4998000D02*
G75*
G02*
X16661900Y-4998000I-50000J0D01*
G01*
X16661900Y-4998000D02*
G75*
G02*
X16761900Y-4998000I50000J0D01*
G01*
X16661900Y-5202000D02*
X16761900Y-5302000D01*
X16761900Y-5202000D02*
X16661900Y-5302000D01*
X16761900Y-5252000D02*
G75*
G02*
X16661900Y-5252000I-50000J0D01*
G01*
X16661900Y-5252000D02*
G75*
G02*
X16761900Y-5252000I50000J0D01*
G01*
X16661900Y-11552220D02*
X16761900Y-11652220D01*
X16761900Y-11552220D02*
X16661900Y-11652220D01*
X16761900Y-11602220D02*
G75*
G02*
X16661900Y-11602220I-50000J0D01*
G01*
X16661900Y-11602220D02*
G75*
G02*
X16761900Y-11602220I50000J0D01*
G01*
X16661900Y-11806220D02*
X16761900Y-11906220D01*
X16761900Y-11806220D02*
X16661900Y-11906220D01*
X16761900Y-11856220D02*
G75*
G02*
X16661900Y-11856220I-50000J0D01*
G01*
X16661900Y-11856220D02*
G75*
G02*
X16761900Y-11856220I50000J0D01*
G01*
X16915900Y-4948000D02*
X17015900Y-5048000D01*
X17015900Y-4948000D02*
X16915900Y-5048000D01*
X17015900Y-4998000D02*
G75*
G02*
X16915900Y-4998000I-50000J0D01*
G01*
X16915900Y-4998000D02*
G75*
G02*
X17015900Y-4998000I50000J0D01*
G01*
X16915900Y-5202000D02*
X17015900Y-5302000D01*
X17015900Y-5202000D02*
X16915900Y-5302000D01*
X17015900Y-5252000D02*
G75*
G02*
X16915900Y-5252000I-50000J0D01*
G01*
X16915900Y-5252000D02*
G75*
G02*
X17015900Y-5252000I50000J0D01*
G01*
X16915900Y-11552220D02*
X17015900Y-11652220D01*
X17015900Y-11552220D02*
X16915900Y-11652220D01*
X17015900Y-11602220D02*
G75*
G02*
X16915900Y-11602220I-50000J0D01*
G01*
X16915900Y-11602220D02*
G75*
G02*
X17015900Y-11602220I50000J0D01*
G01*
X16915900Y-11806220D02*
X17015900Y-11906220D01*
X17015900Y-11806220D02*
X16915900Y-11906220D01*
X17015900Y-11856220D02*
G75*
G02*
X16915900Y-11856220I-50000J0D01*
G01*
X16915900Y-11856220D02*
G75*
G02*
X17015900Y-11856220I50000J0D01*
G01*
X17169900Y-4948000D02*
X17269900Y-5048000D01*
X17269900Y-4948000D02*
X17169900Y-5048000D01*
X17269900Y-4998000D02*
G75*
G02*
X17169900Y-4998000I-50000J0D01*
G01*
X17169900Y-4998000D02*
G75*
G02*
X17269900Y-4998000I50000J0D01*
G01*
X17169900Y-5202000D02*
X17269900Y-5302000D01*
X17269900Y-5202000D02*
X17169900Y-5302000D01*
X17269900Y-5252000D02*
G75*
G02*
X17169900Y-5252000I-50000J0D01*
G01*
X17169900Y-5252000D02*
G75*
G02*
X17269900Y-5252000I50000J0D01*
G01*
X17169900Y-11552220D02*
X17269900Y-11652220D01*
X17269900Y-11552220D02*
X17169900Y-11652220D01*
X17269900Y-11602220D02*
G75*
G02*
X17169900Y-11602220I-50000J0D01*
G01*
X17169900Y-11602220D02*
G75*
G02*
X17269900Y-11602220I50000J0D01*
G01*
X17169900Y-11806220D02*
X17269900Y-11906220D01*
X17269900Y-11806220D02*
X17169900Y-11906220D01*
X17269900Y-11856220D02*
G75*
G02*
X17169900Y-11856220I-50000J0D01*
G01*
X17169900Y-11856220D02*
G75*
G02*
X17269900Y-11856220I50000J0D01*
G01*
X17423900Y-4948000D02*
X17523900Y-5048000D01*
X17523900Y-4948000D02*
X17423900Y-5048000D01*
X17523900Y-4998000D02*
G75*
G02*
X17423900Y-4998000I-50000J0D01*
G01*
X17423900Y-4998000D02*
G75*
G02*
X17523900Y-4998000I50000J0D01*
G01*
X17423900Y-5202000D02*
X17523900Y-5302000D01*
X17523900Y-5202000D02*
X17423900Y-5302000D01*
X17523900Y-5252000D02*
G75*
G02*
X17423900Y-5252000I-50000J0D01*
G01*
X17423900Y-5252000D02*
G75*
G02*
X17523900Y-5252000I50000J0D01*
G01*
X17423900Y-11552220D02*
X17523900Y-11652220D01*
X17523900Y-11552220D02*
X17423900Y-11652220D01*
X17523900Y-11602220D02*
G75*
G02*
X17423900Y-11602220I-50000J0D01*
G01*
X17423900Y-11602220D02*
G75*
G02*
X17523900Y-11602220I50000J0D01*
G01*
X17423900Y-11806220D02*
X17523900Y-11906220D01*
X17523900Y-11806220D02*
X17423900Y-11906220D01*
X17523900Y-11856220D02*
G75*
G02*
X17423900Y-11856220I-50000J0D01*
G01*
X17423900Y-11856220D02*
G75*
G02*
X17523900Y-11856220I50000J0D01*
G01*
X17677900Y-4948000D02*
X17777900Y-5048000D01*
X17777900Y-4948000D02*
X17677900Y-5048000D01*
X17777900Y-4998000D02*
G75*
G02*
X17677900Y-4998000I-50000J0D01*
G01*
X17677900Y-4998000D02*
G75*
G02*
X17777900Y-4998000I50000J0D01*
G01*
X17677900Y-5202000D02*
X17777900Y-5302000D01*
X17777900Y-5202000D02*
X17677900Y-5302000D01*
X17777900Y-5252000D02*
G75*
G02*
X17677900Y-5252000I-50000J0D01*
G01*
X17677900Y-5252000D02*
G75*
G02*
X17777900Y-5252000I50000J0D01*
G01*
X17677900Y-11552220D02*
X17777900Y-11652220D01*
X17777900Y-11552220D02*
X17677900Y-11652220D01*
X17777900Y-11602220D02*
G75*
G02*
X17677900Y-11602220I-50000J0D01*
G01*
X17677900Y-11602220D02*
G75*
G02*
X17777900Y-11602220I50000J0D01*
G01*
X17677900Y-11806220D02*
X17777900Y-11906220D01*
X17777900Y-11806220D02*
X17677900Y-11906220D01*
X17777900Y-11856220D02*
G75*
G02*
X17677900Y-11856220I-50000J0D01*
G01*
X17677900Y-11856220D02*
G75*
G02*
X17777900Y-11856220I50000J0D01*
G01*
X17931900Y-4948000D02*
X18031900Y-5048000D01*
X18031900Y-4948000D02*
X17931900Y-5048000D01*
X18031900Y-4998000D02*
G75*
G02*
X17931900Y-4998000I-50000J0D01*
G01*
X17931900Y-4998000D02*
G75*
G02*
X18031900Y-4998000I50000J0D01*
G01*
X17931900Y-5202000D02*
X18031900Y-5302000D01*
X18031900Y-5202000D02*
X17931900Y-5302000D01*
X18031900Y-5252000D02*
G75*
G02*
X17931900Y-5252000I-50000J0D01*
G01*
X17931900Y-5252000D02*
G75*
G02*
X18031900Y-5252000I50000J0D01*
G01*
X17931900Y-11552220D02*
X18031900Y-11652220D01*
X18031900Y-11552220D02*
X17931900Y-11652220D01*
X18031900Y-11602220D02*
G75*
G02*
X17931900Y-11602220I-50000J0D01*
G01*
X17931900Y-11602220D02*
G75*
G02*
X18031900Y-11602220I50000J0D01*
G01*
X17931900Y-11806220D02*
X18031900Y-11906220D01*
X18031900Y-11806220D02*
X17931900Y-11906220D01*
X18031900Y-11856220D02*
G75*
G02*
X17931900Y-11856220I-50000J0D01*
G01*
X17931900Y-11856220D02*
G75*
G02*
X18031900Y-11856220I50000J0D01*
G01*
X18185900Y-4948000D02*
X18285900Y-5048000D01*
X18285900Y-4948000D02*
X18185900Y-5048000D01*
X18285900Y-4998000D02*
G75*
G02*
X18185900Y-4998000I-50000J0D01*
G01*
X18185900Y-4998000D02*
G75*
G02*
X18285900Y-4998000I50000J0D01*
G01*
X18185900Y-5202000D02*
X18285900Y-5302000D01*
X18285900Y-5202000D02*
X18185900Y-5302000D01*
X18285900Y-5252000D02*
G75*
G02*
X18185900Y-5252000I-50000J0D01*
G01*
X18185900Y-5252000D02*
G75*
G02*
X18285900Y-5252000I50000J0D01*
G01*
X18185900Y-11552220D02*
X18285900Y-11652220D01*
X18285900Y-11552220D02*
X18185900Y-11652220D01*
X18285900Y-11602220D02*
G75*
G02*
X18185900Y-11602220I-50000J0D01*
G01*
X18185900Y-11602220D02*
G75*
G02*
X18285900Y-11602220I50000J0D01*
G01*
X18185900Y-11806220D02*
X18285900Y-11906220D01*
X18285900Y-11806220D02*
X18185900Y-11906220D01*
X18285900Y-11856220D02*
G75*
G02*
X18185900Y-11856220I-50000J0D01*
G01*
X18185900Y-11856220D02*
G75*
G02*
X18285900Y-11856220I50000J0D01*
G01*
X18439900Y-4948000D02*
X18539900Y-5048000D01*
X18539900Y-4948000D02*
X18439900Y-5048000D01*
X18539900Y-4998000D02*
G75*
G02*
X18439900Y-4998000I-50000J0D01*
G01*
X18439900Y-4998000D02*
G75*
G02*
X18539900Y-4998000I50000J0D01*
G01*
X18439900Y-5202000D02*
X18539900Y-5302000D01*
X18539900Y-5202000D02*
X18439900Y-5302000D01*
X18539900Y-5252000D02*
G75*
G02*
X18439900Y-5252000I-50000J0D01*
G01*
X18439900Y-5252000D02*
G75*
G02*
X18539900Y-5252000I50000J0D01*
G01*
X18439900Y-11552220D02*
X18539900Y-11652220D01*
X18539900Y-11552220D02*
X18439900Y-11652220D01*
X18539900Y-11602220D02*
G75*
G02*
X18439900Y-11602220I-50000J0D01*
G01*
X18439900Y-11602220D02*
G75*
G02*
X18539900Y-11602220I50000J0D01*
G01*
X18439900Y-11806220D02*
X18539900Y-11906220D01*
X18539900Y-11806220D02*
X18439900Y-11906220D01*
X18539900Y-11856220D02*
G75*
G02*
X18439900Y-11856220I-50000J0D01*
G01*
X18439900Y-11856220D02*
G75*
G02*
X18539900Y-11856220I50000J0D01*
G01*
X18693900Y-4948000D02*
X18793900Y-5048000D01*
X18793900Y-4948000D02*
X18693900Y-5048000D01*
X18793900Y-4998000D02*
G75*
G02*
X18693900Y-4998000I-50000J0D01*
G01*
X18693900Y-4998000D02*
G75*
G02*
X18793900Y-4998000I50000J0D01*
G01*
X18693900Y-5202000D02*
X18793900Y-5302000D01*
X18793900Y-5202000D02*
X18693900Y-5302000D01*
X18793900Y-5252000D02*
G75*
G02*
X18693900Y-5252000I-50000J0D01*
G01*
X18693900Y-5252000D02*
G75*
G02*
X18793900Y-5252000I50000J0D01*
G01*
X18693900Y-11552220D02*
X18793900Y-11652220D01*
X18793900Y-11552220D02*
X18693900Y-11652220D01*
X18793900Y-11602220D02*
G75*
G02*
X18693900Y-11602220I-50000J0D01*
G01*
X18693900Y-11602220D02*
G75*
G02*
X18793900Y-11602220I50000J0D01*
G01*
X18693900Y-11806220D02*
X18793900Y-11906220D01*
X18793900Y-11806220D02*
X18693900Y-11906220D01*
X18793900Y-11856220D02*
G75*
G02*
X18693900Y-11856220I-50000J0D01*
G01*
X18693900Y-11856220D02*
G75*
G02*
X18793900Y-11856220I50000J0D01*
G01*
X18947900Y-4948000D02*
X19047900Y-5048000D01*
X19047900Y-4948000D02*
X18947900Y-5048000D01*
X19047900Y-4998000D02*
G75*
G02*
X18947900Y-4998000I-50000J0D01*
G01*
X18947900Y-4998000D02*
G75*
G02*
X19047900Y-4998000I50000J0D01*
G01*
X18947900Y-5202000D02*
X19047900Y-5302000D01*
X19047900Y-5202000D02*
X18947900Y-5302000D01*
X19047900Y-5252000D02*
G75*
G02*
X18947900Y-5252000I-50000J0D01*
G01*
X18947900Y-5252000D02*
G75*
G02*
X19047900Y-5252000I50000J0D01*
G01*
X18947900Y-11552220D02*
X19047900Y-11652220D01*
X19047900Y-11552220D02*
X18947900Y-11652220D01*
X19047900Y-11602220D02*
G75*
G02*
X18947900Y-11602220I-50000J0D01*
G01*
X18947900Y-11602220D02*
G75*
G02*
X19047900Y-11602220I50000J0D01*
G01*
X18947900Y-11806220D02*
X19047900Y-11906220D01*
X19047900Y-11806220D02*
X18947900Y-11906220D01*
X19047900Y-11856220D02*
G75*
G02*
X18947900Y-11856220I-50000J0D01*
G01*
X18947900Y-11856220D02*
G75*
G02*
X19047900Y-11856220I50000J0D01*
G01*
X19201900Y-4948000D02*
X19301900Y-5048000D01*
X19301900Y-4948000D02*
X19201900Y-5048000D01*
X19301900Y-4998000D02*
G75*
G02*
X19201900Y-4998000I-50000J0D01*
G01*
X19201900Y-4998000D02*
G75*
G02*
X19301900Y-4998000I50000J0D01*
G01*
X19201900Y-5202000D02*
X19301900Y-5302000D01*
X19301900Y-5202000D02*
X19201900Y-5302000D01*
X19301900Y-5252000D02*
G75*
G02*
X19201900Y-5252000I-50000J0D01*
G01*
X19201900Y-5252000D02*
G75*
G02*
X19301900Y-5252000I50000J0D01*
G01*
X19201900Y-11552220D02*
X19301900Y-11652220D01*
X19301900Y-11552220D02*
X19201900Y-11652220D01*
X19301900Y-11602220D02*
G75*
G02*
X19201900Y-11602220I-50000J0D01*
G01*
X19201900Y-11602220D02*
G75*
G02*
X19301900Y-11602220I50000J0D01*
G01*
X19201900Y-11806220D02*
X19301900Y-11906220D01*
X19301900Y-11806220D02*
X19201900Y-11906220D01*
X19301900Y-11856220D02*
G75*
G02*
X19201900Y-11856220I-50000J0D01*
G01*
X19201900Y-11856220D02*
G75*
G02*
X19301900Y-11856220I50000J0D01*
G01*
X19278650Y-7234000D02*
X19378650Y-7334000D01*
X19378650Y-7234000D02*
X19278650Y-7334000D01*
X19378650Y-7284000D02*
G75*
G02*
X19278650Y-7284000I-50000J0D01*
G01*
X19278650Y-7284000D02*
G75*
G02*
X19378650Y-7284000I50000J0D01*
G01*
X19278650Y-7488000D02*
X19378650Y-7588000D01*
X19378650Y-7488000D02*
X19278650Y-7588000D01*
X19378650Y-7538000D02*
G75*
G02*
X19278650Y-7538000I-50000J0D01*
G01*
X19278650Y-7538000D02*
G75*
G02*
X19378650Y-7538000I50000J0D01*
G01*
X19278650Y-7742000D02*
X19378650Y-7842000D01*
X19378650Y-7742000D02*
X19278650Y-7842000D01*
X19378650Y-7792000D02*
G75*
G02*
X19278650Y-7792000I-50000J0D01*
G01*
X19278650Y-7792000D02*
G75*
G02*
X19378650Y-7792000I50000J0D01*
G01*
X19278650Y-7996000D02*
X19378650Y-8096000D01*
X19378650Y-7996000D02*
X19278650Y-8096000D01*
X19378650Y-8046000D02*
G75*
G02*
X19278650Y-8046000I-50000J0D01*
G01*
X19278650Y-8046000D02*
G75*
G02*
X19378650Y-8046000I50000J0D01*
G01*
X19455900Y-4948000D02*
X19555900Y-5048000D01*
X19555900Y-4948000D02*
X19455900Y-5048000D01*
X19555900Y-4998000D02*
G75*
G02*
X19455900Y-4998000I-50000J0D01*
G01*
X19455900Y-4998000D02*
G75*
G02*
X19555900Y-4998000I50000J0D01*
G01*
X19455900Y-5202000D02*
X19555900Y-5302000D01*
X19555900Y-5202000D02*
X19455900Y-5302000D01*
X19555900Y-5252000D02*
G75*
G02*
X19455900Y-5252000I-50000J0D01*
G01*
X19455900Y-5252000D02*
G75*
G02*
X19555900Y-5252000I50000J0D01*
G01*
X19455900Y-11552220D02*
X19555900Y-11652220D01*
X19555900Y-11552220D02*
X19455900Y-11652220D01*
X19555900Y-11602220D02*
G75*
G02*
X19455900Y-11602220I-50000J0D01*
G01*
X19455900Y-11602220D02*
G75*
G02*
X19555900Y-11602220I50000J0D01*
G01*
X19455900Y-11806220D02*
X19555900Y-11906220D01*
X19555900Y-11806220D02*
X19455900Y-11906220D01*
X19555900Y-11856220D02*
G75*
G02*
X19455900Y-11856220I-50000J0D01*
G01*
X19455900Y-11856220D02*
G75*
G02*
X19555900Y-11856220I50000J0D01*
G01*
D13*
X6924600Y-10567100D02*
X7034600Y-10677100D01*
X7034600Y-10567100D02*
X6924600Y-10677100D01*
X6979600Y-10567100D02*
X6979600Y-10677100D01*
X6924600Y-10622100D02*
X7034600Y-10622100D01*
X6924600Y-10821100D02*
X7034600Y-10931100D01*
X7034600Y-10821100D02*
X6924600Y-10931100D01*
X6979600Y-10821100D02*
X6979600Y-10931100D01*
X6924600Y-10876100D02*
X7034600Y-10876100D01*
X6924600Y-11075100D02*
X7034600Y-11185100D01*
X7034600Y-11075100D02*
X6924600Y-11185100D01*
X6979600Y-11075100D02*
X6979600Y-11185100D01*
X6924600Y-11130100D02*
X7034600Y-11130100D01*
X6924600Y-11329100D02*
X7034600Y-11439100D01*
X7034600Y-11329100D02*
X6924600Y-11439100D01*
X6979600Y-11329100D02*
X6979600Y-11439100D01*
X6924600Y-11384100D02*
X7034600Y-11384100D01*
X8042100Y-7921500D02*
X8152100Y-8031500D01*
X8152100Y-7921500D02*
X8042100Y-8031500D01*
X8097100Y-7921500D02*
X8097100Y-8031500D01*
X8042100Y-7976500D02*
X8152100Y-7976500D01*
X8042100Y-8175500D02*
X8152100Y-8285500D01*
X8152100Y-8175500D02*
X8042100Y-8285500D01*
X8097100Y-8175500D02*
X8097100Y-8285500D01*
X8042100Y-8230500D02*
X8152100Y-8230500D01*
X8042100Y-9015500D02*
X8152100Y-9125500D01*
X8152100Y-9015500D02*
X8042100Y-9125500D01*
X8097100Y-9015500D02*
X8097100Y-9125500D01*
X8042100Y-9070500D02*
X8152100Y-9070500D01*
X8042100Y-9269500D02*
X8152100Y-9379500D01*
X8152100Y-9269500D02*
X8042100Y-9379500D01*
X8097100Y-9269500D02*
X8097100Y-9379500D01*
X8042100Y-9324500D02*
X8152100Y-9324500D01*
X9888100Y-7921500D02*
X9998100Y-8031500D01*
X9998100Y-7921500D02*
X9888100Y-8031500D01*
X9943100Y-7921500D02*
X9943100Y-8031500D01*
X9888100Y-7976500D02*
X9998100Y-7976500D01*
X9888100Y-8175500D02*
X9998100Y-8285500D01*
X9998100Y-8175500D02*
X9888100Y-8285500D01*
X9943100Y-8175500D02*
X9943100Y-8285500D01*
X9888100Y-8230500D02*
X9998100Y-8230500D01*
X9888100Y-9015500D02*
X9998100Y-9125500D01*
X9998100Y-9015500D02*
X9888100Y-9125500D01*
X9943100Y-9015500D02*
X9943100Y-9125500D01*
X9888100Y-9070500D02*
X9998100Y-9070500D01*
X9888100Y-9269500D02*
X9998100Y-9379500D01*
X9998100Y-9269500D02*
X9888100Y-9379500D01*
X9943100Y-9269500D02*
X9943100Y-9379500D01*
X9888100Y-9324500D02*
X9998100Y-9324500D01*
D14*
X5084300Y-9767200D02*
X5204300Y-9887200D01*
X5204300Y-9767200D02*
X5084300Y-9887200D01*
X5186727Y-9869627D02*
X5186727Y-9784773D01*
X5101873Y-9784773D01*
X5101873Y-9869627D01*
X5186727Y-9869627D01*
X5084300Y-12267200D02*
X5204300Y-12387200D01*
X5204300Y-12267200D02*
X5084300Y-12387200D01*
X5186727Y-12369627D02*
X5186727Y-12284773D01*
X5101873Y-12284773D01*
X5101873Y-12369627D01*
X5186727Y-12369627D01*
X5338300Y-9767200D02*
X5458300Y-9887200D01*
X5458300Y-9767200D02*
X5338300Y-9887200D01*
X5440727Y-9869627D02*
X5440727Y-9784773D01*
X5355873Y-9784773D01*
X5355873Y-9869627D01*
X5440727Y-9869627D01*
X5338300Y-12267200D02*
X5458300Y-12387200D01*
X5458300Y-12267200D02*
X5338300Y-12387200D01*
X5440727Y-12369627D02*
X5440727Y-12284773D01*
X5355873Y-12284773D01*
X5355873Y-12369627D01*
X5440727Y-12369627D01*
X5592300Y-9767200D02*
X5712300Y-9887200D01*
X5712300Y-9767200D02*
X5592300Y-9887200D01*
X5694727Y-9869627D02*
X5694727Y-9784773D01*
X5609873Y-9784773D01*
X5609873Y-9869627D01*
X5694727Y-9869627D01*
X5592300Y-12267200D02*
X5712300Y-12387200D01*
X5712300Y-12267200D02*
X5592300Y-12387200D01*
X5694727Y-12369627D02*
X5694727Y-12284773D01*
X5609873Y-12284773D01*
X5609873Y-12369627D01*
X5694727Y-12369627D01*
X5846300Y-9767200D02*
X5966300Y-9887200D01*
X5966300Y-9767200D02*
X5846300Y-9887200D01*
X5948727Y-9869627D02*
X5948727Y-9784773D01*
X5863873Y-9784773D01*
X5863873Y-9869627D01*
X5948727Y-9869627D01*
X5846300Y-12267200D02*
X5966300Y-12387200D01*
X5966300Y-12267200D02*
X5846300Y-12387200D01*
X5948727Y-12369627D02*
X5948727Y-12284773D01*
X5863873Y-12284773D01*
X5863873Y-12369627D01*
X5948727Y-12369627D01*
X6100300Y-9767200D02*
X6220300Y-9887200D01*
X6220300Y-9767200D02*
X6100300Y-9887200D01*
X6202727Y-9869627D02*
X6202727Y-9784773D01*
X6117873Y-9784773D01*
X6117873Y-9869627D01*
X6202727Y-9869627D01*
X6100300Y-12267200D02*
X6220300Y-12387200D01*
X6220300Y-12267200D02*
X6100300Y-12387200D01*
X6202727Y-12369627D02*
X6202727Y-12284773D01*
X6117873Y-12284773D01*
X6117873Y-12369627D01*
X6202727Y-12369627D01*
D15*
X11634790Y-4713050D02*
X11759250Y-4837510D01*
X11759250Y-4713050D02*
X11634790Y-4837510D01*
X11697020Y-4837510D02*
X11759250Y-4775280D01*
X11697020Y-4713050D01*
X11634790Y-4775280D01*
X11697020Y-4837510D01*
X11634790Y-4963050D02*
X11759250Y-5087510D01*
X11759250Y-4963050D02*
X11634790Y-5087510D01*
X11697020Y-5087510D02*
X11759250Y-5025280D01*
X11697020Y-4963050D01*
X11634790Y-5025280D01*
X11697020Y-5087510D01*
X11634790Y-5213050D02*
X11759250Y-5337510D01*
X11759250Y-5213050D02*
X11634790Y-5337510D01*
X11697020Y-5337510D02*
X11759250Y-5275280D01*
X11697020Y-5213050D01*
X11634790Y-5275280D01*
X11697020Y-5337510D01*
X11634790Y-5463050D02*
X11759250Y-5587510D01*
X11759250Y-5463050D02*
X11634790Y-5587510D01*
X11697020Y-5587510D02*
X11759250Y-5525280D01*
X11697020Y-5463050D01*
X11634790Y-5525280D01*
X11697020Y-5587510D01*
D16*
X8595000Y-5910000D02*
X8595000Y-6090000D01*
X8505000Y-6000000D02*
X8685000Y-6000000D01*
X8685000Y-6000000D02*
G75*
G02*
X8505000Y-6000000I-90000J0D01*
G01*
X8505000Y-6000000D02*
G75*
G02*
X8685000Y-6000000I90000J0D01*
G01*
X8595000Y-6460000D02*
X8595000Y-6640000D01*
X8505000Y-6550000D02*
X8685000Y-6550000D01*
X8685000Y-6550000D02*
G75*
G02*
X8505000Y-6550000I-90000J0D01*
G01*
X8505000Y-6550000D02*
G75*
G02*
X8685000Y-6550000I90000J0D01*
G01*
X9015000Y-5910000D02*
X9015000Y-6090000D01*
X8925000Y-6000000D02*
X9105000Y-6000000D01*
X9105000Y-6000000D02*
G75*
G02*
X8925000Y-6000000I-90000J0D01*
G01*
X8925000Y-6000000D02*
G75*
G02*
X9105000Y-6000000I90000J0D01*
G01*
X9015000Y-6460000D02*
X9015000Y-6640000D01*
X8925000Y-6550000D02*
X9105000Y-6550000D01*
X9105000Y-6550000D02*
G75*
G02*
X8925000Y-6550000I-90000J0D01*
G01*
X8925000Y-6550000D02*
G75*
G02*
X9105000Y-6550000I90000J0D01*
G01*
X9435000Y-5910000D02*
X9435000Y-6090000D01*
X9345000Y-6000000D02*
X9525000Y-6000000D01*
X9525000Y-6000000D02*
G75*
G02*
X9345000Y-6000000I-90000J0D01*
G01*
X9345000Y-6000000D02*
G75*
G02*
X9525000Y-6000000I90000J0D01*
G01*
X9435000Y-6460000D02*
X9435000Y-6640000D01*
X9345000Y-6550000D02*
X9525000Y-6550000D01*
X9525000Y-6550000D02*
G75*
G02*
X9345000Y-6550000I-90000J0D01*
G01*
X9345000Y-6550000D02*
G75*
G02*
X9525000Y-6550000I90000J0D01*
G01*
X9855000Y-5910000D02*
X9855000Y-6090000D01*
X9765000Y-6000000D02*
X9945000Y-6000000D01*
X9945000Y-6000000D02*
G75*
G02*
X9765000Y-6000000I-90000J0D01*
G01*
X9765000Y-6000000D02*
G75*
G02*
X9945000Y-6000000I90000J0D01*
G01*
X9855000Y-6460000D02*
X9855000Y-6640000D01*
X9765000Y-6550000D02*
X9945000Y-6550000D01*
X9945000Y-6550000D02*
G75*
G02*
X9765000Y-6550000I-90000J0D01*
G01*
X9765000Y-6550000D02*
G75*
G02*
X9945000Y-6550000I90000J0D01*
G01*
X10275000Y-5910000D02*
X10275000Y-6090000D01*
X10185000Y-6000000D02*
X10365000Y-6000000D01*
X10365000Y-6000000D02*
G75*
G02*
X10185000Y-6000000I-90000J0D01*
G01*
X10185000Y-6000000D02*
G75*
G02*
X10365000Y-6000000I90000J0D01*
G01*
X10275000Y-6460000D02*
X10275000Y-6640000D01*
X10185000Y-6550000D02*
X10365000Y-6550000D01*
X10365000Y-6550000D02*
G75*
G02*
X10185000Y-6550000I-90000J0D01*
G01*
X10185000Y-6550000D02*
G75*
G02*
X10365000Y-6550000I90000J0D01*
G01*
X10695000Y-5910000D02*
X10695000Y-6090000D01*
X10605000Y-6000000D02*
X10785000Y-6000000D01*
X10785000Y-6000000D02*
G75*
G02*
X10605000Y-6000000I-90000J0D01*
G01*
X10605000Y-6000000D02*
G75*
G02*
X10785000Y-6000000I90000J0D01*
G01*
X10695000Y-6460000D02*
X10695000Y-6640000D01*
X10605000Y-6550000D02*
X10785000Y-6550000D01*
X10785000Y-6550000D02*
G75*
G02*
X10605000Y-6550000I-90000J0D01*
G01*
X10605000Y-6550000D02*
G75*
G02*
X10785000Y-6550000I90000J0D01*
G01*
D11*
X4710777Y-12881764D02*
X4710777Y-12681764D01*
X4710777Y-12681764D02*
X4758396Y-12681764D01*
X4758396Y-12681764D02*
X4786967Y-12691288D01*
X4786967Y-12691288D02*
X4806015Y-12710335D01*
X4806015Y-12710335D02*
X4815539Y-12729383D01*
X4815539Y-12729383D02*
X4825063Y-12767478D01*
X4825063Y-12767478D02*
X4825063Y-12796049D01*
X4825063Y-12796049D02*
X4815539Y-12834145D01*
X4815539Y-12834145D02*
X4806015Y-12853192D01*
X4806015Y-12853192D02*
X4786967Y-12872240D01*
X4786967Y-12872240D02*
X4758396Y-12881764D01*
X4758396Y-12881764D02*
X4710777Y-12881764D01*
X4910777Y-12881764D02*
X4910777Y-12748430D01*
X4910777Y-12786526D02*
X4920301Y-12767478D01*
X4920301Y-12767478D02*
X4929824Y-12757954D01*
X4929824Y-12757954D02*
X4948872Y-12748430D01*
X4948872Y-12748430D02*
X4967920Y-12748430D01*
X5034586Y-12881764D02*
X5034586Y-12748430D01*
X5034586Y-12681764D02*
X5025063Y-12691288D01*
X5025063Y-12691288D02*
X5034586Y-12700811D01*
X5034586Y-12700811D02*
X5044110Y-12691288D01*
X5044110Y-12691288D02*
X5034586Y-12681764D01*
X5034586Y-12681764D02*
X5034586Y-12700811D01*
X5158396Y-12881764D02*
X5139348Y-12872240D01*
X5139348Y-12872240D02*
X5129824Y-12853192D01*
X5129824Y-12853192D02*
X5129824Y-12681764D01*
X5263158Y-12881764D02*
X5244110Y-12872240D01*
X5244110Y-12872240D02*
X5234586Y-12853192D01*
X5234586Y-12853192D02*
X5234586Y-12681764D01*
X5491729Y-12881764D02*
X5491729Y-12681764D01*
X5491729Y-12681764D02*
X5558396Y-12824621D01*
X5558396Y-12824621D02*
X5625062Y-12681764D01*
X5625062Y-12681764D02*
X5625062Y-12881764D01*
X5806015Y-12881764D02*
X5806015Y-12777002D01*
X5806015Y-12777002D02*
X5796491Y-12757954D01*
X5796491Y-12757954D02*
X5777443Y-12748430D01*
X5777443Y-12748430D02*
X5739348Y-12748430D01*
X5739348Y-12748430D02*
X5720301Y-12757954D01*
X5806015Y-12872240D02*
X5786967Y-12881764D01*
X5786967Y-12881764D02*
X5739348Y-12881764D01*
X5739348Y-12881764D02*
X5720301Y-12872240D01*
X5720301Y-12872240D02*
X5710777Y-12853192D01*
X5710777Y-12853192D02*
X5710777Y-12834145D01*
X5710777Y-12834145D02*
X5720301Y-12815097D01*
X5720301Y-12815097D02*
X5739348Y-12805573D01*
X5739348Y-12805573D02*
X5786967Y-12805573D01*
X5786967Y-12805573D02*
X5806015Y-12796049D01*
X5901253Y-12748430D02*
X5901253Y-12948430D01*
X5901253Y-12757954D02*
X5920301Y-12748430D01*
X5920301Y-12748430D02*
X5958396Y-12748430D01*
X5958396Y-12748430D02*
X5977443Y-12757954D01*
X5977443Y-12757954D02*
X5986967Y-12767478D01*
X5986967Y-12767478D02*
X5996491Y-12786526D01*
X5996491Y-12786526D02*
X5996491Y-12843668D01*
X5996491Y-12843668D02*
X5986967Y-12862716D01*
X5986967Y-12862716D02*
X5977443Y-12872240D01*
X5977443Y-12872240D02*
X5958396Y-12881764D01*
X5958396Y-12881764D02*
X5920301Y-12881764D01*
X5920301Y-12881764D02*
X5901253Y-12872240D01*
X6082205Y-12862716D02*
X6091729Y-12872240D01*
X6091729Y-12872240D02*
X6082205Y-12881764D01*
X6082205Y-12881764D02*
X6072682Y-12872240D01*
X6072682Y-12872240D02*
X6082205Y-12862716D01*
X6082205Y-12862716D02*
X6082205Y-12881764D01*
X6082205Y-12757954D02*
X6091729Y-12767478D01*
X6091729Y-12767478D02*
X6082205Y-12777002D01*
X6082205Y-12777002D02*
X6072682Y-12767478D01*
X6072682Y-12767478D02*
X6082205Y-12757954D01*
X6082205Y-12757954D02*
X6082205Y-12777002D01*
D12*
X4440000Y-13205280D02*
X4450000Y-13215280D01*
X4450000Y-13205280D02*
X4440000Y-13215280D01*
D11*
X4748872Y-13101764D02*
X4767920Y-13101764D01*
X4767920Y-13101764D02*
X4786967Y-13111288D01*
X4786967Y-13111288D02*
X4796491Y-13120811D01*
X4796491Y-13120811D02*
X4806015Y-13139859D01*
X4806015Y-13139859D02*
X4815539Y-13177954D01*
X4815539Y-13177954D02*
X4815539Y-13225573D01*
X4815539Y-13225573D02*
X4806015Y-13263668D01*
X4806015Y-13263668D02*
X4796491Y-13282716D01*
X4796491Y-13282716D02*
X4786967Y-13292240D01*
X4786967Y-13292240D02*
X4767920Y-13301764D01*
X4767920Y-13301764D02*
X4748872Y-13301764D01*
X4748872Y-13301764D02*
X4729824Y-13292240D01*
X4729824Y-13292240D02*
X4720301Y-13282716D01*
X4720301Y-13282716D02*
X4710777Y-13263668D01*
X4710777Y-13263668D02*
X4701253Y-13225573D01*
X4701253Y-13225573D02*
X4701253Y-13177954D01*
X4701253Y-13177954D02*
X4710777Y-13139859D01*
X4710777Y-13139859D02*
X4720301Y-13120811D01*
X4720301Y-13120811D02*
X4729824Y-13111288D01*
X4729824Y-13111288D02*
X4748872Y-13101764D01*
X4901253Y-13282716D02*
X4910777Y-13292240D01*
X4910777Y-13292240D02*
X4901253Y-13301764D01*
X4901253Y-13301764D02*
X4891729Y-13292240D01*
X4891729Y-13292240D02*
X4901253Y-13282716D01*
X4901253Y-13282716D02*
X4901253Y-13301764D01*
X5101253Y-13301764D02*
X4986967Y-13301764D01*
X5044110Y-13301764D02*
X5044110Y-13101764D01*
X5044110Y-13101764D02*
X5025063Y-13130335D01*
X5025063Y-13130335D02*
X5006015Y-13149383D01*
X5006015Y-13149383D02*
X4986967Y-13158907D01*
X5225063Y-13101764D02*
X5244110Y-13101764D01*
X5244110Y-13101764D02*
X5263158Y-13111288D01*
X5263158Y-13111288D02*
X5272682Y-13120811D01*
X5272682Y-13120811D02*
X5282205Y-13139859D01*
X5282205Y-13139859D02*
X5291729Y-13177954D01*
X5291729Y-13177954D02*
X5291729Y-13225573D01*
X5291729Y-13225573D02*
X5282205Y-13263668D01*
X5282205Y-13263668D02*
X5272682Y-13282716D01*
X5272682Y-13282716D02*
X5263158Y-13292240D01*
X5263158Y-13292240D02*
X5244110Y-13301764D01*
X5244110Y-13301764D02*
X5225063Y-13301764D01*
X5225063Y-13301764D02*
X5206015Y-13292240D01*
X5206015Y-13292240D02*
X5196491Y-13282716D01*
X5196491Y-13282716D02*
X5186967Y-13263668D01*
X5186967Y-13263668D02*
X5177444Y-13225573D01*
X5177444Y-13225573D02*
X5177444Y-13177954D01*
X5177444Y-13177954D02*
X5186967Y-13139859D01*
X5186967Y-13139859D02*
X5196491Y-13120811D01*
X5196491Y-13120811D02*
X5206015Y-13111288D01*
X5206015Y-13111288D02*
X5225063Y-13101764D01*
X5415539Y-13101764D02*
X5434586Y-13101764D01*
X5434586Y-13101764D02*
X5453634Y-13111288D01*
X5453634Y-13111288D02*
X5463158Y-13120811D01*
X5463158Y-13120811D02*
X5472682Y-13139859D01*
X5472682Y-13139859D02*
X5482205Y-13177954D01*
X5482205Y-13177954D02*
X5482205Y-13225573D01*
X5482205Y-13225573D02*
X5472682Y-13263668D01*
X5472682Y-13263668D02*
X5463158Y-13282716D01*
X5463158Y-13282716D02*
X5453634Y-13292240D01*
X5453634Y-13292240D02*
X5434586Y-13301764D01*
X5434586Y-13301764D02*
X5415539Y-13301764D01*
X5415539Y-13301764D02*
X5396491Y-13292240D01*
X5396491Y-13292240D02*
X5386967Y-13282716D01*
X5386967Y-13282716D02*
X5377444Y-13263668D01*
X5377444Y-13263668D02*
X5367920Y-13225573D01*
X5367920Y-13225573D02*
X5367920Y-13177954D01*
X5367920Y-13177954D02*
X5377444Y-13139859D01*
X5377444Y-13139859D02*
X5386967Y-13120811D01*
X5386967Y-13120811D02*
X5396491Y-13111288D01*
X5396491Y-13111288D02*
X5415539Y-13101764D01*
X5567920Y-13301764D02*
X5567920Y-13168430D01*
X5567920Y-13187478D02*
X5577444Y-13177954D01*
X5577444Y-13177954D02*
X5596491Y-13168430D01*
X5596491Y-13168430D02*
X5625063Y-13168430D01*
X5625063Y-13168430D02*
X5644110Y-13177954D01*
X5644110Y-13177954D02*
X5653634Y-13197002D01*
X5653634Y-13197002D02*
X5653634Y-13301764D01*
X5653634Y-13197002D02*
X5663158Y-13177954D01*
X5663158Y-13177954D02*
X5682205Y-13168430D01*
X5682205Y-13168430D02*
X5710777Y-13168430D01*
X5710777Y-13168430D02*
X5729824Y-13177954D01*
X5729824Y-13177954D02*
X5739348Y-13197002D01*
X5739348Y-13197002D02*
X5739348Y-13301764D01*
X5834586Y-13301764D02*
X5834586Y-13168430D01*
X5834586Y-13187478D02*
X5844110Y-13177954D01*
X5844110Y-13177954D02*
X5863158Y-13168430D01*
X5863158Y-13168430D02*
X5891729Y-13168430D01*
X5891729Y-13168430D02*
X5910777Y-13177954D01*
X5910777Y-13177954D02*
X5920301Y-13197002D01*
X5920301Y-13197002D02*
X5920301Y-13301764D01*
X5920301Y-13197002D02*
X5929824Y-13177954D01*
X5929824Y-13177954D02*
X5948872Y-13168430D01*
X5948872Y-13168430D02*
X5977443Y-13168430D01*
X5977443Y-13168430D02*
X5996491Y-13177954D01*
X5996491Y-13177954D02*
X6006015Y-13197002D01*
X6006015Y-13197002D02*
X6006015Y-13301764D01*
X6396491Y-13092240D02*
X6225063Y-13349383D01*
X6653634Y-13101764D02*
X6672682Y-13101764D01*
X6672682Y-13101764D02*
X6691729Y-13111288D01*
X6691729Y-13111288D02*
X6701253Y-13120811D01*
X6701253Y-13120811D02*
X6710777Y-13139859D01*
X6710777Y-13139859D02*
X6720301Y-13177954D01*
X6720301Y-13177954D02*
X6720301Y-13225573D01*
X6720301Y-13225573D02*
X6710777Y-13263668D01*
X6710777Y-13263668D02*
X6701253Y-13282716D01*
X6701253Y-13282716D02*
X6691729Y-13292240D01*
X6691729Y-13292240D02*
X6672682Y-13301764D01*
X6672682Y-13301764D02*
X6653634Y-13301764D01*
X6653634Y-13301764D02*
X6634586Y-13292240D01*
X6634586Y-13292240D02*
X6625063Y-13282716D01*
X6625063Y-13282716D02*
X6615539Y-13263668D01*
X6615539Y-13263668D02*
X6606015Y-13225573D01*
X6606015Y-13225573D02*
X6606015Y-13177954D01*
X6606015Y-13177954D02*
X6615539Y-13139859D01*
X6615539Y-13139859D02*
X6625063Y-13120811D01*
X6625063Y-13120811D02*
X6634586Y-13111288D01*
X6634586Y-13111288D02*
X6653634Y-13101764D01*
X6806015Y-13282716D02*
X6815539Y-13292240D01*
X6815539Y-13292240D02*
X6806015Y-13301764D01*
X6806015Y-13301764D02*
X6796491Y-13292240D01*
X6796491Y-13292240D02*
X6806015Y-13282716D01*
X6806015Y-13282716D02*
X6806015Y-13301764D01*
X6939348Y-13101764D02*
X6958396Y-13101764D01*
X6958396Y-13101764D02*
X6977444Y-13111288D01*
X6977444Y-13111288D02*
X6986967Y-13120811D01*
X6986967Y-13120811D02*
X6996491Y-13139859D01*
X6996491Y-13139859D02*
X7006015Y-13177954D01*
X7006015Y-13177954D02*
X7006015Y-13225573D01*
X7006015Y-13225573D02*
X6996491Y-13263668D01*
X6996491Y-13263668D02*
X6986967Y-13282716D01*
X6986967Y-13282716D02*
X6977444Y-13292240D01*
X6977444Y-13292240D02*
X6958396Y-13301764D01*
X6958396Y-13301764D02*
X6939348Y-13301764D01*
X6939348Y-13301764D02*
X6920301Y-13292240D01*
X6920301Y-13292240D02*
X6910777Y-13282716D01*
X6910777Y-13282716D02*
X6901253Y-13263668D01*
X6901253Y-13263668D02*
X6891729Y-13225573D01*
X6891729Y-13225573D02*
X6891729Y-13177954D01*
X6891729Y-13177954D02*
X6901253Y-13139859D01*
X6901253Y-13139859D02*
X6910777Y-13120811D01*
X6910777Y-13120811D02*
X6920301Y-13111288D01*
X6920301Y-13111288D02*
X6939348Y-13101764D01*
X7129825Y-13101764D02*
X7148872Y-13101764D01*
X7148872Y-13101764D02*
X7167920Y-13111288D01*
X7167920Y-13111288D02*
X7177444Y-13120811D01*
X7177444Y-13120811D02*
X7186967Y-13139859D01*
X7186967Y-13139859D02*
X7196491Y-13177954D01*
X7196491Y-13177954D02*
X7196491Y-13225573D01*
X7196491Y-13225573D02*
X7186967Y-13263668D01*
X7186967Y-13263668D02*
X7177444Y-13282716D01*
X7177444Y-13282716D02*
X7167920Y-13292240D01*
X7167920Y-13292240D02*
X7148872Y-13301764D01*
X7148872Y-13301764D02*
X7129825Y-13301764D01*
X7129825Y-13301764D02*
X7110777Y-13292240D01*
X7110777Y-13292240D02*
X7101253Y-13282716D01*
X7101253Y-13282716D02*
X7091729Y-13263668D01*
X7091729Y-13263668D02*
X7082206Y-13225573D01*
X7082206Y-13225573D02*
X7082206Y-13177954D01*
X7082206Y-13177954D02*
X7091729Y-13139859D01*
X7091729Y-13139859D02*
X7101253Y-13120811D01*
X7101253Y-13120811D02*
X7110777Y-13111288D01*
X7110777Y-13111288D02*
X7129825Y-13101764D01*
X7263158Y-13101764D02*
X7386967Y-13101764D01*
X7386967Y-13101764D02*
X7320301Y-13177954D01*
X7320301Y-13177954D02*
X7348872Y-13177954D01*
X7348872Y-13177954D02*
X7367920Y-13187478D01*
X7367920Y-13187478D02*
X7377444Y-13197002D01*
X7377444Y-13197002D02*
X7386967Y-13216049D01*
X7386967Y-13216049D02*
X7386967Y-13263668D01*
X7386967Y-13263668D02*
X7377444Y-13282716D01*
X7377444Y-13282716D02*
X7367920Y-13292240D01*
X7367920Y-13292240D02*
X7348872Y-13301764D01*
X7348872Y-13301764D02*
X7291729Y-13301764D01*
X7291729Y-13301764D02*
X7272682Y-13292240D01*
X7272682Y-13292240D02*
X7263158Y-13282716D01*
X7482206Y-13301764D02*
X7520301Y-13301764D01*
X7520301Y-13301764D02*
X7539348Y-13292240D01*
X7539348Y-13292240D02*
X7548872Y-13282716D01*
X7548872Y-13282716D02*
X7567920Y-13254145D01*
X7567920Y-13254145D02*
X7577444Y-13216049D01*
X7577444Y-13216049D02*
X7577444Y-13139859D01*
X7577444Y-13139859D02*
X7567920Y-13120811D01*
X7567920Y-13120811D02*
X7558396Y-13111288D01*
X7558396Y-13111288D02*
X7539348Y-13101764D01*
X7539348Y-13101764D02*
X7501253Y-13101764D01*
X7501253Y-13101764D02*
X7482206Y-13111288D01*
X7482206Y-13111288D02*
X7472682Y-13120811D01*
X7472682Y-13120811D02*
X7463158Y-13139859D01*
X7463158Y-13139859D02*
X7463158Y-13187478D01*
X7463158Y-13187478D02*
X7472682Y-13206526D01*
X7472682Y-13206526D02*
X7482206Y-13216049D01*
X7482206Y-13216049D02*
X7501253Y-13225573D01*
X7501253Y-13225573D02*
X7539348Y-13225573D01*
X7539348Y-13225573D02*
X7558396Y-13216049D01*
X7558396Y-13216049D02*
X7567920Y-13206526D01*
X7567920Y-13206526D02*
X7577444Y-13187478D01*
X7653634Y-13101764D02*
X7653634Y-13139859D01*
X7729825Y-13101764D02*
X7729825Y-13139859D01*
X8025063Y-13377954D02*
X8015539Y-13368430D01*
X8015539Y-13368430D02*
X7996491Y-13339859D01*
X7996491Y-13339859D02*
X7986968Y-13320811D01*
X7986968Y-13320811D02*
X7977444Y-13292240D01*
X7977444Y-13292240D02*
X7967920Y-13244621D01*
X7967920Y-13244621D02*
X7967920Y-13206526D01*
X7967920Y-13206526D02*
X7977444Y-13158907D01*
X7977444Y-13158907D02*
X7986968Y-13130335D01*
X7986968Y-13130335D02*
X7996491Y-13111288D01*
X7996491Y-13111288D02*
X8015539Y-13082716D01*
X8015539Y-13082716D02*
X8025063Y-13073192D01*
X8206015Y-13301764D02*
X8091729Y-13301764D01*
X8148872Y-13301764D02*
X8148872Y-13101764D01*
X8148872Y-13101764D02*
X8129825Y-13130335D01*
X8129825Y-13130335D02*
X8110777Y-13149383D01*
X8110777Y-13149383D02*
X8091729Y-13158907D01*
X8444111Y-13301764D02*
X8444111Y-13101764D01*
X8529825Y-13301764D02*
X8529825Y-13197002D01*
X8529825Y-13197002D02*
X8520301Y-13177954D01*
X8520301Y-13177954D02*
X8501253Y-13168430D01*
X8501253Y-13168430D02*
X8472682Y-13168430D01*
X8472682Y-13168430D02*
X8453634Y-13177954D01*
X8453634Y-13177954D02*
X8444111Y-13187478D01*
X8653634Y-13301764D02*
X8634587Y-13292240D01*
X8634587Y-13292240D02*
X8625063Y-13282716D01*
X8625063Y-13282716D02*
X8615539Y-13263668D01*
X8615539Y-13263668D02*
X8615539Y-13206526D01*
X8615539Y-13206526D02*
X8625063Y-13187478D01*
X8625063Y-13187478D02*
X8634587Y-13177954D01*
X8634587Y-13177954D02*
X8653634Y-13168430D01*
X8653634Y-13168430D02*
X8682206Y-13168430D01*
X8682206Y-13168430D02*
X8701253Y-13177954D01*
X8701253Y-13177954D02*
X8710777Y-13187478D01*
X8710777Y-13187478D02*
X8720301Y-13206526D01*
X8720301Y-13206526D02*
X8720301Y-13263668D01*
X8720301Y-13263668D02*
X8710777Y-13282716D01*
X8710777Y-13282716D02*
X8701253Y-13292240D01*
X8701253Y-13292240D02*
X8682206Y-13301764D01*
X8682206Y-13301764D02*
X8653634Y-13301764D01*
X8834587Y-13301764D02*
X8815539Y-13292240D01*
X8815539Y-13292240D02*
X8806015Y-13273192D01*
X8806015Y-13273192D02*
X8806015Y-13101764D01*
X8986968Y-13292240D02*
X8967920Y-13301764D01*
X8967920Y-13301764D02*
X8929825Y-13301764D01*
X8929825Y-13301764D02*
X8910777Y-13292240D01*
X8910777Y-13292240D02*
X8901253Y-13273192D01*
X8901253Y-13273192D02*
X8901253Y-13197002D01*
X8901253Y-13197002D02*
X8910777Y-13177954D01*
X8910777Y-13177954D02*
X8929825Y-13168430D01*
X8929825Y-13168430D02*
X8967920Y-13168430D01*
X8967920Y-13168430D02*
X8986968Y-13177954D01*
X8986968Y-13177954D02*
X8996492Y-13197002D01*
X8996492Y-13197002D02*
X8996492Y-13216049D01*
X8996492Y-13216049D02*
X8901253Y-13235097D01*
X9063158Y-13377954D02*
X9072682Y-13368430D01*
X9072682Y-13368430D02*
X9091730Y-13339859D01*
X9091730Y-13339859D02*
X9101253Y-13320811D01*
X9101253Y-13320811D02*
X9110777Y-13292240D01*
X9110777Y-13292240D02*
X9120301Y-13244621D01*
X9120301Y-13244621D02*
X9120301Y-13206526D01*
X9120301Y-13206526D02*
X9110777Y-13158907D01*
X9110777Y-13158907D02*
X9101253Y-13130335D01*
X9101253Y-13130335D02*
X9091730Y-13111288D01*
X9091730Y-13111288D02*
X9072682Y-13082716D01*
X9072682Y-13082716D02*
X9063158Y-13073192D01*
D12*
X4450000Y-13474280D02*
G75*
G02*
X4410000Y-13474280I-20000J0D01*
G01*
X4410000Y-13474280D02*
G75*
G02*
X4450000Y-13474280I20000J0D01*
G01*
D11*
X4748872Y-13365764D02*
X4767920Y-13365764D01*
X4767920Y-13365764D02*
X4786967Y-13375288D01*
X4786967Y-13375288D02*
X4796491Y-13384811D01*
X4796491Y-13384811D02*
X4806015Y-13403859D01*
X4806015Y-13403859D02*
X4815539Y-13441954D01*
X4815539Y-13441954D02*
X4815539Y-13489573D01*
X4815539Y-13489573D02*
X4806015Y-13527668D01*
X4806015Y-13527668D02*
X4796491Y-13546716D01*
X4796491Y-13546716D02*
X4786967Y-13556240D01*
X4786967Y-13556240D02*
X4767920Y-13565764D01*
X4767920Y-13565764D02*
X4748872Y-13565764D01*
X4748872Y-13565764D02*
X4729824Y-13556240D01*
X4729824Y-13556240D02*
X4720301Y-13546716D01*
X4720301Y-13546716D02*
X4710777Y-13527668D01*
X4710777Y-13527668D02*
X4701253Y-13489573D01*
X4701253Y-13489573D02*
X4701253Y-13441954D01*
X4701253Y-13441954D02*
X4710777Y-13403859D01*
X4710777Y-13403859D02*
X4720301Y-13384811D01*
X4720301Y-13384811D02*
X4729824Y-13375288D01*
X4729824Y-13375288D02*
X4748872Y-13365764D01*
X4901253Y-13546716D02*
X4910777Y-13556240D01*
X4910777Y-13556240D02*
X4901253Y-13565764D01*
X4901253Y-13565764D02*
X4891729Y-13556240D01*
X4891729Y-13556240D02*
X4901253Y-13546716D01*
X4901253Y-13546716D02*
X4901253Y-13565764D01*
X5082205Y-13432430D02*
X5082205Y-13565764D01*
X5034586Y-13356240D02*
X4986967Y-13499097D01*
X4986967Y-13499097D02*
X5110777Y-13499097D01*
X5225063Y-13365764D02*
X5244110Y-13365764D01*
X5244110Y-13365764D02*
X5263158Y-13375288D01*
X5263158Y-13375288D02*
X5272682Y-13384811D01*
X5272682Y-13384811D02*
X5282205Y-13403859D01*
X5282205Y-13403859D02*
X5291729Y-13441954D01*
X5291729Y-13441954D02*
X5291729Y-13489573D01*
X5291729Y-13489573D02*
X5282205Y-13527668D01*
X5282205Y-13527668D02*
X5272682Y-13546716D01*
X5272682Y-13546716D02*
X5263158Y-13556240D01*
X5263158Y-13556240D02*
X5244110Y-13565764D01*
X5244110Y-13565764D02*
X5225063Y-13565764D01*
X5225063Y-13565764D02*
X5206015Y-13556240D01*
X5206015Y-13556240D02*
X5196491Y-13546716D01*
X5196491Y-13546716D02*
X5186967Y-13527668D01*
X5186967Y-13527668D02*
X5177444Y-13489573D01*
X5177444Y-13489573D02*
X5177444Y-13441954D01*
X5177444Y-13441954D02*
X5186967Y-13403859D01*
X5186967Y-13403859D02*
X5196491Y-13384811D01*
X5196491Y-13384811D02*
X5206015Y-13375288D01*
X5206015Y-13375288D02*
X5225063Y-13365764D01*
X5415539Y-13365764D02*
X5434586Y-13365764D01*
X5434586Y-13365764D02*
X5453634Y-13375288D01*
X5453634Y-13375288D02*
X5463158Y-13384811D01*
X5463158Y-13384811D02*
X5472682Y-13403859D01*
X5472682Y-13403859D02*
X5482205Y-13441954D01*
X5482205Y-13441954D02*
X5482205Y-13489573D01*
X5482205Y-13489573D02*
X5472682Y-13527668D01*
X5472682Y-13527668D02*
X5463158Y-13546716D01*
X5463158Y-13546716D02*
X5453634Y-13556240D01*
X5453634Y-13556240D02*
X5434586Y-13565764D01*
X5434586Y-13565764D02*
X5415539Y-13565764D01*
X5415539Y-13565764D02*
X5396491Y-13556240D01*
X5396491Y-13556240D02*
X5386967Y-13546716D01*
X5386967Y-13546716D02*
X5377444Y-13527668D01*
X5377444Y-13527668D02*
X5367920Y-13489573D01*
X5367920Y-13489573D02*
X5367920Y-13441954D01*
X5367920Y-13441954D02*
X5377444Y-13403859D01*
X5377444Y-13403859D02*
X5386967Y-13384811D01*
X5386967Y-13384811D02*
X5396491Y-13375288D01*
X5396491Y-13375288D02*
X5415539Y-13365764D01*
X5567920Y-13565764D02*
X5567920Y-13432430D01*
X5567920Y-13451478D02*
X5577444Y-13441954D01*
X5577444Y-13441954D02*
X5596491Y-13432430D01*
X5596491Y-13432430D02*
X5625063Y-13432430D01*
X5625063Y-13432430D02*
X5644110Y-13441954D01*
X5644110Y-13441954D02*
X5653634Y-13461002D01*
X5653634Y-13461002D02*
X5653634Y-13565764D01*
X5653634Y-13461002D02*
X5663158Y-13441954D01*
X5663158Y-13441954D02*
X5682205Y-13432430D01*
X5682205Y-13432430D02*
X5710777Y-13432430D01*
X5710777Y-13432430D02*
X5729824Y-13441954D01*
X5729824Y-13441954D02*
X5739348Y-13461002D01*
X5739348Y-13461002D02*
X5739348Y-13565764D01*
X5834586Y-13565764D02*
X5834586Y-13432430D01*
X5834586Y-13451478D02*
X5844110Y-13441954D01*
X5844110Y-13441954D02*
X5863158Y-13432430D01*
X5863158Y-13432430D02*
X5891729Y-13432430D01*
X5891729Y-13432430D02*
X5910777Y-13441954D01*
X5910777Y-13441954D02*
X5920301Y-13461002D01*
X5920301Y-13461002D02*
X5920301Y-13565764D01*
X5920301Y-13461002D02*
X5929824Y-13441954D01*
X5929824Y-13441954D02*
X5948872Y-13432430D01*
X5948872Y-13432430D02*
X5977443Y-13432430D01*
X5977443Y-13432430D02*
X5996491Y-13441954D01*
X5996491Y-13441954D02*
X6006015Y-13461002D01*
X6006015Y-13461002D02*
X6006015Y-13565764D01*
X6396491Y-13356240D02*
X6225063Y-13613383D01*
X6653634Y-13365764D02*
X6672682Y-13365764D01*
X6672682Y-13365764D02*
X6691729Y-13375288D01*
X6691729Y-13375288D02*
X6701253Y-13384811D01*
X6701253Y-13384811D02*
X6710777Y-13403859D01*
X6710777Y-13403859D02*
X6720301Y-13441954D01*
X6720301Y-13441954D02*
X6720301Y-13489573D01*
X6720301Y-13489573D02*
X6710777Y-13527668D01*
X6710777Y-13527668D02*
X6701253Y-13546716D01*
X6701253Y-13546716D02*
X6691729Y-13556240D01*
X6691729Y-13556240D02*
X6672682Y-13565764D01*
X6672682Y-13565764D02*
X6653634Y-13565764D01*
X6653634Y-13565764D02*
X6634586Y-13556240D01*
X6634586Y-13556240D02*
X6625063Y-13546716D01*
X6625063Y-13546716D02*
X6615539Y-13527668D01*
X6615539Y-13527668D02*
X6606015Y-13489573D01*
X6606015Y-13489573D02*
X6606015Y-13441954D01*
X6606015Y-13441954D02*
X6615539Y-13403859D01*
X6615539Y-13403859D02*
X6625063Y-13384811D01*
X6625063Y-13384811D02*
X6634586Y-13375288D01*
X6634586Y-13375288D02*
X6653634Y-13365764D01*
X6806015Y-13546716D02*
X6815539Y-13556240D01*
X6815539Y-13556240D02*
X6806015Y-13565764D01*
X6806015Y-13565764D02*
X6796491Y-13556240D01*
X6796491Y-13556240D02*
X6806015Y-13546716D01*
X6806015Y-13546716D02*
X6806015Y-13565764D01*
X6939348Y-13365764D02*
X6958396Y-13365764D01*
X6958396Y-13365764D02*
X6977444Y-13375288D01*
X6977444Y-13375288D02*
X6986967Y-13384811D01*
X6986967Y-13384811D02*
X6996491Y-13403859D01*
X6996491Y-13403859D02*
X7006015Y-13441954D01*
X7006015Y-13441954D02*
X7006015Y-13489573D01*
X7006015Y-13489573D02*
X6996491Y-13527668D01*
X6996491Y-13527668D02*
X6986967Y-13546716D01*
X6986967Y-13546716D02*
X6977444Y-13556240D01*
X6977444Y-13556240D02*
X6958396Y-13565764D01*
X6958396Y-13565764D02*
X6939348Y-13565764D01*
X6939348Y-13565764D02*
X6920301Y-13556240D01*
X6920301Y-13556240D02*
X6910777Y-13546716D01*
X6910777Y-13546716D02*
X6901253Y-13527668D01*
X6901253Y-13527668D02*
X6891729Y-13489573D01*
X6891729Y-13489573D02*
X6891729Y-13441954D01*
X6891729Y-13441954D02*
X6901253Y-13403859D01*
X6901253Y-13403859D02*
X6910777Y-13384811D01*
X6910777Y-13384811D02*
X6920301Y-13375288D01*
X6920301Y-13375288D02*
X6939348Y-13365764D01*
X7196491Y-13565764D02*
X7082206Y-13565764D01*
X7139348Y-13565764D02*
X7139348Y-13365764D01*
X7139348Y-13365764D02*
X7120301Y-13394335D01*
X7120301Y-13394335D02*
X7101253Y-13413383D01*
X7101253Y-13413383D02*
X7082206Y-13422907D01*
X7377444Y-13365764D02*
X7282206Y-13365764D01*
X7282206Y-13365764D02*
X7272682Y-13461002D01*
X7272682Y-13461002D02*
X7282206Y-13451478D01*
X7282206Y-13451478D02*
X7301253Y-13441954D01*
X7301253Y-13441954D02*
X7348872Y-13441954D01*
X7348872Y-13441954D02*
X7367920Y-13451478D01*
X7367920Y-13451478D02*
X7377444Y-13461002D01*
X7377444Y-13461002D02*
X7386967Y-13480049D01*
X7386967Y-13480049D02*
X7386967Y-13527668D01*
X7386967Y-13527668D02*
X7377444Y-13546716D01*
X7377444Y-13546716D02*
X7367920Y-13556240D01*
X7367920Y-13556240D02*
X7348872Y-13565764D01*
X7348872Y-13565764D02*
X7301253Y-13565764D01*
X7301253Y-13565764D02*
X7282206Y-13556240D01*
X7282206Y-13556240D02*
X7272682Y-13546716D01*
X7453634Y-13365764D02*
X7586967Y-13365764D01*
X7586967Y-13365764D02*
X7501253Y-13565764D01*
X7653634Y-13365764D02*
X7653634Y-13403859D01*
X7729825Y-13365764D02*
X7729825Y-13403859D01*
X8025063Y-13641954D02*
X8015539Y-13632430D01*
X8015539Y-13632430D02*
X7996491Y-13603859D01*
X7996491Y-13603859D02*
X7986968Y-13584811D01*
X7986968Y-13584811D02*
X7977444Y-13556240D01*
X7977444Y-13556240D02*
X7967920Y-13508621D01*
X7967920Y-13508621D02*
X7967920Y-13470526D01*
X7967920Y-13470526D02*
X7977444Y-13422907D01*
X7977444Y-13422907D02*
X7986968Y-13394335D01*
X7986968Y-13394335D02*
X7996491Y-13375288D01*
X7996491Y-13375288D02*
X8015539Y-13346716D01*
X8015539Y-13346716D02*
X8025063Y-13337192D01*
X8186968Y-13432430D02*
X8186968Y-13565764D01*
X8139348Y-13356240D02*
X8091729Y-13499097D01*
X8091729Y-13499097D02*
X8215539Y-13499097D01*
X8396491Y-13565764D02*
X8282206Y-13565764D01*
X8339348Y-13565764D02*
X8339348Y-13365764D01*
X8339348Y-13365764D02*
X8320301Y-13394335D01*
X8320301Y-13394335D02*
X8301253Y-13413383D01*
X8301253Y-13413383D02*
X8282206Y-13422907D01*
X8634587Y-13565764D02*
X8634587Y-13365764D01*
X8720301Y-13565764D02*
X8720301Y-13461002D01*
X8720301Y-13461002D02*
X8710777Y-13441954D01*
X8710777Y-13441954D02*
X8691730Y-13432430D01*
X8691730Y-13432430D02*
X8663158Y-13432430D01*
X8663158Y-13432430D02*
X8644111Y-13441954D01*
X8644111Y-13441954D02*
X8634587Y-13451478D01*
X8844111Y-13565764D02*
X8825063Y-13556240D01*
X8825063Y-13556240D02*
X8815539Y-13546716D01*
X8815539Y-13546716D02*
X8806015Y-13527668D01*
X8806015Y-13527668D02*
X8806015Y-13470526D01*
X8806015Y-13470526D02*
X8815539Y-13451478D01*
X8815539Y-13451478D02*
X8825063Y-13441954D01*
X8825063Y-13441954D02*
X8844111Y-13432430D01*
X8844111Y-13432430D02*
X8872682Y-13432430D01*
X8872682Y-13432430D02*
X8891730Y-13441954D01*
X8891730Y-13441954D02*
X8901253Y-13451478D01*
X8901253Y-13451478D02*
X8910777Y-13470526D01*
X8910777Y-13470526D02*
X8910777Y-13527668D01*
X8910777Y-13527668D02*
X8901253Y-13546716D01*
X8901253Y-13546716D02*
X8891730Y-13556240D01*
X8891730Y-13556240D02*
X8872682Y-13565764D01*
X8872682Y-13565764D02*
X8844111Y-13565764D01*
X9025063Y-13565764D02*
X9006015Y-13556240D01*
X9006015Y-13556240D02*
X8996492Y-13537192D01*
X8996492Y-13537192D02*
X8996492Y-13365764D01*
X9177444Y-13556240D02*
X9158396Y-13565764D01*
X9158396Y-13565764D02*
X9120301Y-13565764D01*
X9120301Y-13565764D02*
X9101253Y-13556240D01*
X9101253Y-13556240D02*
X9091730Y-13537192D01*
X9091730Y-13537192D02*
X9091730Y-13461002D01*
X9091730Y-13461002D02*
X9101253Y-13441954D01*
X9101253Y-13441954D02*
X9120301Y-13432430D01*
X9120301Y-13432430D02*
X9158396Y-13432430D01*
X9158396Y-13432430D02*
X9177444Y-13441954D01*
X9177444Y-13441954D02*
X9186968Y-13461002D01*
X9186968Y-13461002D02*
X9186968Y-13480049D01*
X9186968Y-13480049D02*
X9091730Y-13499097D01*
X9263158Y-13556240D02*
X9282206Y-13565764D01*
X9282206Y-13565764D02*
X9320301Y-13565764D01*
X9320301Y-13565764D02*
X9339349Y-13556240D01*
X9339349Y-13556240D02*
X9348873Y-13537192D01*
X9348873Y-13537192D02*
X9348873Y-13527668D01*
X9348873Y-13527668D02*
X9339349Y-13508621D01*
X9339349Y-13508621D02*
X9320301Y-13499097D01*
X9320301Y-13499097D02*
X9291730Y-13499097D01*
X9291730Y-13499097D02*
X9272682Y-13489573D01*
X9272682Y-13489573D02*
X9263158Y-13470526D01*
X9263158Y-13470526D02*
X9263158Y-13461002D01*
X9263158Y-13461002D02*
X9272682Y-13441954D01*
X9272682Y-13441954D02*
X9291730Y-13432430D01*
X9291730Y-13432430D02*
X9320301Y-13432430D01*
X9320301Y-13432430D02*
X9339349Y-13441954D01*
X9415539Y-13641954D02*
X9425063Y-13632430D01*
X9425063Y-13632430D02*
X9444111Y-13603859D01*
X9444111Y-13603859D02*
X9453634Y-13584811D01*
X9453634Y-13584811D02*
X9463158Y-13556240D01*
X9463158Y-13556240D02*
X9472682Y-13508621D01*
X9472682Y-13508621D02*
X9472682Y-13470526D01*
X9472682Y-13470526D02*
X9463158Y-13422907D01*
X9463158Y-13422907D02*
X9453634Y-13394335D01*
X9453634Y-13394335D02*
X9444111Y-13375288D01*
X9444111Y-13375288D02*
X9425063Y-13346716D01*
X9425063Y-13346716D02*
X9415539Y-13337192D01*
D12*
X4412500Y-13700780D02*
X4412500Y-13775780D01*
X4375000Y-13738280D02*
X4450000Y-13738280D01*
D11*
X4748872Y-13629764D02*
X4767920Y-13629764D01*
X4767920Y-13629764D02*
X4786967Y-13639288D01*
X4786967Y-13639288D02*
X4796491Y-13648811D01*
X4796491Y-13648811D02*
X4806015Y-13667859D01*
X4806015Y-13667859D02*
X4815539Y-13705954D01*
X4815539Y-13705954D02*
X4815539Y-13753573D01*
X4815539Y-13753573D02*
X4806015Y-13791668D01*
X4806015Y-13791668D02*
X4796491Y-13810716D01*
X4796491Y-13810716D02*
X4786967Y-13820240D01*
X4786967Y-13820240D02*
X4767920Y-13829764D01*
X4767920Y-13829764D02*
X4748872Y-13829764D01*
X4748872Y-13829764D02*
X4729824Y-13820240D01*
X4729824Y-13820240D02*
X4720301Y-13810716D01*
X4720301Y-13810716D02*
X4710777Y-13791668D01*
X4710777Y-13791668D02*
X4701253Y-13753573D01*
X4701253Y-13753573D02*
X4701253Y-13705954D01*
X4701253Y-13705954D02*
X4710777Y-13667859D01*
X4710777Y-13667859D02*
X4720301Y-13648811D01*
X4720301Y-13648811D02*
X4729824Y-13639288D01*
X4729824Y-13639288D02*
X4748872Y-13629764D01*
X4901253Y-13810716D02*
X4910777Y-13820240D01*
X4910777Y-13820240D02*
X4901253Y-13829764D01*
X4901253Y-13829764D02*
X4891729Y-13820240D01*
X4891729Y-13820240D02*
X4901253Y-13810716D01*
X4901253Y-13810716D02*
X4901253Y-13829764D01*
X4977444Y-13629764D02*
X5110777Y-13629764D01*
X5110777Y-13629764D02*
X5025063Y-13829764D01*
X5282205Y-13629764D02*
X5186967Y-13629764D01*
X5186967Y-13629764D02*
X5177444Y-13725002D01*
X5177444Y-13725002D02*
X5186967Y-13715478D01*
X5186967Y-13715478D02*
X5206015Y-13705954D01*
X5206015Y-13705954D02*
X5253634Y-13705954D01*
X5253634Y-13705954D02*
X5272682Y-13715478D01*
X5272682Y-13715478D02*
X5282205Y-13725002D01*
X5282205Y-13725002D02*
X5291729Y-13744049D01*
X5291729Y-13744049D02*
X5291729Y-13791668D01*
X5291729Y-13791668D02*
X5282205Y-13810716D01*
X5282205Y-13810716D02*
X5272682Y-13820240D01*
X5272682Y-13820240D02*
X5253634Y-13829764D01*
X5253634Y-13829764D02*
X5206015Y-13829764D01*
X5206015Y-13829764D02*
X5186967Y-13820240D01*
X5186967Y-13820240D02*
X5177444Y-13810716D01*
X5415539Y-13629764D02*
X5434586Y-13629764D01*
X5434586Y-13629764D02*
X5453634Y-13639288D01*
X5453634Y-13639288D02*
X5463158Y-13648811D01*
X5463158Y-13648811D02*
X5472682Y-13667859D01*
X5472682Y-13667859D02*
X5482205Y-13705954D01*
X5482205Y-13705954D02*
X5482205Y-13753573D01*
X5482205Y-13753573D02*
X5472682Y-13791668D01*
X5472682Y-13791668D02*
X5463158Y-13810716D01*
X5463158Y-13810716D02*
X5453634Y-13820240D01*
X5453634Y-13820240D02*
X5434586Y-13829764D01*
X5434586Y-13829764D02*
X5415539Y-13829764D01*
X5415539Y-13829764D02*
X5396491Y-13820240D01*
X5396491Y-13820240D02*
X5386967Y-13810716D01*
X5386967Y-13810716D02*
X5377444Y-13791668D01*
X5377444Y-13791668D02*
X5367920Y-13753573D01*
X5367920Y-13753573D02*
X5367920Y-13705954D01*
X5367920Y-13705954D02*
X5377444Y-13667859D01*
X5377444Y-13667859D02*
X5386967Y-13648811D01*
X5386967Y-13648811D02*
X5396491Y-13639288D01*
X5396491Y-13639288D02*
X5415539Y-13629764D01*
X5567920Y-13829764D02*
X5567920Y-13696430D01*
X5567920Y-13715478D02*
X5577444Y-13705954D01*
X5577444Y-13705954D02*
X5596491Y-13696430D01*
X5596491Y-13696430D02*
X5625063Y-13696430D01*
X5625063Y-13696430D02*
X5644110Y-13705954D01*
X5644110Y-13705954D02*
X5653634Y-13725002D01*
X5653634Y-13725002D02*
X5653634Y-13829764D01*
X5653634Y-13725002D02*
X5663158Y-13705954D01*
X5663158Y-13705954D02*
X5682205Y-13696430D01*
X5682205Y-13696430D02*
X5710777Y-13696430D01*
X5710777Y-13696430D02*
X5729824Y-13705954D01*
X5729824Y-13705954D02*
X5739348Y-13725002D01*
X5739348Y-13725002D02*
X5739348Y-13829764D01*
X5834586Y-13829764D02*
X5834586Y-13696430D01*
X5834586Y-13715478D02*
X5844110Y-13705954D01*
X5844110Y-13705954D02*
X5863158Y-13696430D01*
X5863158Y-13696430D02*
X5891729Y-13696430D01*
X5891729Y-13696430D02*
X5910777Y-13705954D01*
X5910777Y-13705954D02*
X5920301Y-13725002D01*
X5920301Y-13725002D02*
X5920301Y-13829764D01*
X5920301Y-13725002D02*
X5929824Y-13705954D01*
X5929824Y-13705954D02*
X5948872Y-13696430D01*
X5948872Y-13696430D02*
X5977443Y-13696430D01*
X5977443Y-13696430D02*
X5996491Y-13705954D01*
X5996491Y-13705954D02*
X6006015Y-13725002D01*
X6006015Y-13725002D02*
X6006015Y-13829764D01*
X6396491Y-13620240D02*
X6225063Y-13877383D01*
X6653634Y-13629764D02*
X6672682Y-13629764D01*
X6672682Y-13629764D02*
X6691729Y-13639288D01*
X6691729Y-13639288D02*
X6701253Y-13648811D01*
X6701253Y-13648811D02*
X6710777Y-13667859D01*
X6710777Y-13667859D02*
X6720301Y-13705954D01*
X6720301Y-13705954D02*
X6720301Y-13753573D01*
X6720301Y-13753573D02*
X6710777Y-13791668D01*
X6710777Y-13791668D02*
X6701253Y-13810716D01*
X6701253Y-13810716D02*
X6691729Y-13820240D01*
X6691729Y-13820240D02*
X6672682Y-13829764D01*
X6672682Y-13829764D02*
X6653634Y-13829764D01*
X6653634Y-13829764D02*
X6634586Y-13820240D01*
X6634586Y-13820240D02*
X6625063Y-13810716D01*
X6625063Y-13810716D02*
X6615539Y-13791668D01*
X6615539Y-13791668D02*
X6606015Y-13753573D01*
X6606015Y-13753573D02*
X6606015Y-13705954D01*
X6606015Y-13705954D02*
X6615539Y-13667859D01*
X6615539Y-13667859D02*
X6625063Y-13648811D01*
X6625063Y-13648811D02*
X6634586Y-13639288D01*
X6634586Y-13639288D02*
X6653634Y-13629764D01*
X6806015Y-13810716D02*
X6815539Y-13820240D01*
X6815539Y-13820240D02*
X6806015Y-13829764D01*
X6806015Y-13829764D02*
X6796491Y-13820240D01*
X6796491Y-13820240D02*
X6806015Y-13810716D01*
X6806015Y-13810716D02*
X6806015Y-13829764D01*
X6939348Y-13629764D02*
X6958396Y-13629764D01*
X6958396Y-13629764D02*
X6977444Y-13639288D01*
X6977444Y-13639288D02*
X6986967Y-13648811D01*
X6986967Y-13648811D02*
X6996491Y-13667859D01*
X6996491Y-13667859D02*
X7006015Y-13705954D01*
X7006015Y-13705954D02*
X7006015Y-13753573D01*
X7006015Y-13753573D02*
X6996491Y-13791668D01*
X6996491Y-13791668D02*
X6986967Y-13810716D01*
X6986967Y-13810716D02*
X6977444Y-13820240D01*
X6977444Y-13820240D02*
X6958396Y-13829764D01*
X6958396Y-13829764D02*
X6939348Y-13829764D01*
X6939348Y-13829764D02*
X6920301Y-13820240D01*
X6920301Y-13820240D02*
X6910777Y-13810716D01*
X6910777Y-13810716D02*
X6901253Y-13791668D01*
X6901253Y-13791668D02*
X6891729Y-13753573D01*
X6891729Y-13753573D02*
X6891729Y-13705954D01*
X6891729Y-13705954D02*
X6901253Y-13667859D01*
X6901253Y-13667859D02*
X6910777Y-13648811D01*
X6910777Y-13648811D02*
X6920301Y-13639288D01*
X6920301Y-13639288D02*
X6939348Y-13629764D01*
X7082206Y-13648811D02*
X7091729Y-13639288D01*
X7091729Y-13639288D02*
X7110777Y-13629764D01*
X7110777Y-13629764D02*
X7158396Y-13629764D01*
X7158396Y-13629764D02*
X7177444Y-13639288D01*
X7177444Y-13639288D02*
X7186967Y-13648811D01*
X7186967Y-13648811D02*
X7196491Y-13667859D01*
X7196491Y-13667859D02*
X7196491Y-13686907D01*
X7196491Y-13686907D02*
X7186967Y-13715478D01*
X7186967Y-13715478D02*
X7072682Y-13829764D01*
X7072682Y-13829764D02*
X7196491Y-13829764D01*
X7291729Y-13829764D02*
X7329825Y-13829764D01*
X7329825Y-13829764D02*
X7348872Y-13820240D01*
X7348872Y-13820240D02*
X7358396Y-13810716D01*
X7358396Y-13810716D02*
X7377444Y-13782145D01*
X7377444Y-13782145D02*
X7386967Y-13744049D01*
X7386967Y-13744049D02*
X7386967Y-13667859D01*
X7386967Y-13667859D02*
X7377444Y-13648811D01*
X7377444Y-13648811D02*
X7367920Y-13639288D01*
X7367920Y-13639288D02*
X7348872Y-13629764D01*
X7348872Y-13629764D02*
X7310777Y-13629764D01*
X7310777Y-13629764D02*
X7291729Y-13639288D01*
X7291729Y-13639288D02*
X7282206Y-13648811D01*
X7282206Y-13648811D02*
X7272682Y-13667859D01*
X7272682Y-13667859D02*
X7272682Y-13715478D01*
X7272682Y-13715478D02*
X7282206Y-13734526D01*
X7282206Y-13734526D02*
X7291729Y-13744049D01*
X7291729Y-13744049D02*
X7310777Y-13753573D01*
X7310777Y-13753573D02*
X7348872Y-13753573D01*
X7348872Y-13753573D02*
X7367920Y-13744049D01*
X7367920Y-13744049D02*
X7377444Y-13734526D01*
X7377444Y-13734526D02*
X7386967Y-13715478D01*
X7567920Y-13629764D02*
X7472682Y-13629764D01*
X7472682Y-13629764D02*
X7463158Y-13725002D01*
X7463158Y-13725002D02*
X7472682Y-13715478D01*
X7472682Y-13715478D02*
X7491729Y-13705954D01*
X7491729Y-13705954D02*
X7539348Y-13705954D01*
X7539348Y-13705954D02*
X7558396Y-13715478D01*
X7558396Y-13715478D02*
X7567920Y-13725002D01*
X7567920Y-13725002D02*
X7577444Y-13744049D01*
X7577444Y-13744049D02*
X7577444Y-13791668D01*
X7577444Y-13791668D02*
X7567920Y-13810716D01*
X7567920Y-13810716D02*
X7558396Y-13820240D01*
X7558396Y-13820240D02*
X7539348Y-13829764D01*
X7539348Y-13829764D02*
X7491729Y-13829764D01*
X7491729Y-13829764D02*
X7472682Y-13820240D01*
X7472682Y-13820240D02*
X7463158Y-13810716D01*
X7653634Y-13629764D02*
X7653634Y-13667859D01*
X7729825Y-13629764D02*
X7729825Y-13667859D01*
X8025063Y-13905954D02*
X8015539Y-13896430D01*
X8015539Y-13896430D02*
X7996491Y-13867859D01*
X7996491Y-13867859D02*
X7986968Y-13848811D01*
X7986968Y-13848811D02*
X7977444Y-13820240D01*
X7977444Y-13820240D02*
X7967920Y-13772621D01*
X7967920Y-13772621D02*
X7967920Y-13734526D01*
X7967920Y-13734526D02*
X7977444Y-13686907D01*
X7977444Y-13686907D02*
X7986968Y-13658335D01*
X7986968Y-13658335D02*
X7996491Y-13639288D01*
X7996491Y-13639288D02*
X8015539Y-13610716D01*
X8015539Y-13610716D02*
X8025063Y-13601192D01*
X8186968Y-13629764D02*
X8148872Y-13629764D01*
X8148872Y-13629764D02*
X8129825Y-13639288D01*
X8129825Y-13639288D02*
X8120301Y-13648811D01*
X8120301Y-13648811D02*
X8101253Y-13677383D01*
X8101253Y-13677383D02*
X8091729Y-13715478D01*
X8091729Y-13715478D02*
X8091729Y-13791668D01*
X8091729Y-13791668D02*
X8101253Y-13810716D01*
X8101253Y-13810716D02*
X8110777Y-13820240D01*
X8110777Y-13820240D02*
X8129825Y-13829764D01*
X8129825Y-13829764D02*
X8167920Y-13829764D01*
X8167920Y-13829764D02*
X8186968Y-13820240D01*
X8186968Y-13820240D02*
X8196491Y-13810716D01*
X8196491Y-13810716D02*
X8206015Y-13791668D01*
X8206015Y-13791668D02*
X8206015Y-13744049D01*
X8206015Y-13744049D02*
X8196491Y-13725002D01*
X8196491Y-13725002D02*
X8186968Y-13715478D01*
X8186968Y-13715478D02*
X8167920Y-13705954D01*
X8167920Y-13705954D02*
X8129825Y-13705954D01*
X8129825Y-13705954D02*
X8110777Y-13715478D01*
X8110777Y-13715478D02*
X8101253Y-13725002D01*
X8101253Y-13725002D02*
X8091729Y-13744049D01*
X8444111Y-13829764D02*
X8444111Y-13629764D01*
X8529825Y-13829764D02*
X8529825Y-13725002D01*
X8529825Y-13725002D02*
X8520301Y-13705954D01*
X8520301Y-13705954D02*
X8501253Y-13696430D01*
X8501253Y-13696430D02*
X8472682Y-13696430D01*
X8472682Y-13696430D02*
X8453634Y-13705954D01*
X8453634Y-13705954D02*
X8444111Y-13715478D01*
X8653634Y-13829764D02*
X8634587Y-13820240D01*
X8634587Y-13820240D02*
X8625063Y-13810716D01*
X8625063Y-13810716D02*
X8615539Y-13791668D01*
X8615539Y-13791668D02*
X8615539Y-13734526D01*
X8615539Y-13734526D02*
X8625063Y-13715478D01*
X8625063Y-13715478D02*
X8634587Y-13705954D01*
X8634587Y-13705954D02*
X8653634Y-13696430D01*
X8653634Y-13696430D02*
X8682206Y-13696430D01*
X8682206Y-13696430D02*
X8701253Y-13705954D01*
X8701253Y-13705954D02*
X8710777Y-13715478D01*
X8710777Y-13715478D02*
X8720301Y-13734526D01*
X8720301Y-13734526D02*
X8720301Y-13791668D01*
X8720301Y-13791668D02*
X8710777Y-13810716D01*
X8710777Y-13810716D02*
X8701253Y-13820240D01*
X8701253Y-13820240D02*
X8682206Y-13829764D01*
X8682206Y-13829764D02*
X8653634Y-13829764D01*
X8834587Y-13829764D02*
X8815539Y-13820240D01*
X8815539Y-13820240D02*
X8806015Y-13801192D01*
X8806015Y-13801192D02*
X8806015Y-13629764D01*
X8986968Y-13820240D02*
X8967920Y-13829764D01*
X8967920Y-13829764D02*
X8929825Y-13829764D01*
X8929825Y-13829764D02*
X8910777Y-13820240D01*
X8910777Y-13820240D02*
X8901253Y-13801192D01*
X8901253Y-13801192D02*
X8901253Y-13725002D01*
X8901253Y-13725002D02*
X8910777Y-13705954D01*
X8910777Y-13705954D02*
X8929825Y-13696430D01*
X8929825Y-13696430D02*
X8967920Y-13696430D01*
X8967920Y-13696430D02*
X8986968Y-13705954D01*
X8986968Y-13705954D02*
X8996492Y-13725002D01*
X8996492Y-13725002D02*
X8996492Y-13744049D01*
X8996492Y-13744049D02*
X8901253Y-13763097D01*
X9072682Y-13820240D02*
X9091730Y-13829764D01*
X9091730Y-13829764D02*
X9129825Y-13829764D01*
X9129825Y-13829764D02*
X9148873Y-13820240D01*
X9148873Y-13820240D02*
X9158396Y-13801192D01*
X9158396Y-13801192D02*
X9158396Y-13791668D01*
X9158396Y-13791668D02*
X9148873Y-13772621D01*
X9148873Y-13772621D02*
X9129825Y-13763097D01*
X9129825Y-13763097D02*
X9101253Y-13763097D01*
X9101253Y-13763097D02*
X9082206Y-13753573D01*
X9082206Y-13753573D02*
X9072682Y-13734526D01*
X9072682Y-13734526D02*
X9072682Y-13725002D01*
X9072682Y-13725002D02*
X9082206Y-13705954D01*
X9082206Y-13705954D02*
X9101253Y-13696430D01*
X9101253Y-13696430D02*
X9129825Y-13696430D01*
X9129825Y-13696430D02*
X9148873Y-13705954D01*
X9225063Y-13905954D02*
X9234587Y-13896430D01*
X9234587Y-13896430D02*
X9253634Y-13867859D01*
X9253634Y-13867859D02*
X9263158Y-13848811D01*
X9263158Y-13848811D02*
X9272682Y-13820240D01*
X9272682Y-13820240D02*
X9282206Y-13772621D01*
X9282206Y-13772621D02*
X9282206Y-13734526D01*
X9282206Y-13734526D02*
X9272682Y-13686907D01*
X9272682Y-13686907D02*
X9263158Y-13658335D01*
X9263158Y-13658335D02*
X9253634Y-13639288D01*
X9253634Y-13639288D02*
X9234587Y-13610716D01*
X9234587Y-13610716D02*
X9225063Y-13601192D01*
D12*
X4438285Y-14030564D02*
X4438285Y-13973995D01*
X4381716Y-13973995D01*
X4381716Y-14030564D01*
X4438285Y-14030564D01*
D11*
X4748872Y-13893764D02*
X4767920Y-13893764D01*
X4767920Y-13893764D02*
X4786967Y-13903288D01*
X4786967Y-13903288D02*
X4796491Y-13912811D01*
X4796491Y-13912811D02*
X4806015Y-13931859D01*
X4806015Y-13931859D02*
X4815539Y-13969954D01*
X4815539Y-13969954D02*
X4815539Y-14017573D01*
X4815539Y-14017573D02*
X4806015Y-14055668D01*
X4806015Y-14055668D02*
X4796491Y-14074716D01*
X4796491Y-14074716D02*
X4786967Y-14084240D01*
X4786967Y-14084240D02*
X4767920Y-14093764D01*
X4767920Y-14093764D02*
X4748872Y-14093764D01*
X4748872Y-14093764D02*
X4729824Y-14084240D01*
X4729824Y-14084240D02*
X4720301Y-14074716D01*
X4720301Y-14074716D02*
X4710777Y-14055668D01*
X4710777Y-14055668D02*
X4701253Y-14017573D01*
X4701253Y-14017573D02*
X4701253Y-13969954D01*
X4701253Y-13969954D02*
X4710777Y-13931859D01*
X4710777Y-13931859D02*
X4720301Y-13912811D01*
X4720301Y-13912811D02*
X4729824Y-13903288D01*
X4729824Y-13903288D02*
X4748872Y-13893764D01*
X4901253Y-14074716D02*
X4910777Y-14084240D01*
X4910777Y-14084240D02*
X4901253Y-14093764D01*
X4901253Y-14093764D02*
X4891729Y-14084240D01*
X4891729Y-14084240D02*
X4901253Y-14074716D01*
X4901253Y-14074716D02*
X4901253Y-14093764D01*
X5025063Y-13979478D02*
X5006015Y-13969954D01*
X5006015Y-13969954D02*
X4996491Y-13960430D01*
X4996491Y-13960430D02*
X4986967Y-13941383D01*
X4986967Y-13941383D02*
X4986967Y-13931859D01*
X4986967Y-13931859D02*
X4996491Y-13912811D01*
X4996491Y-13912811D02*
X5006015Y-13903288D01*
X5006015Y-13903288D02*
X5025063Y-13893764D01*
X5025063Y-13893764D02*
X5063158Y-13893764D01*
X5063158Y-13893764D02*
X5082205Y-13903288D01*
X5082205Y-13903288D02*
X5091729Y-13912811D01*
X5091729Y-13912811D02*
X5101253Y-13931859D01*
X5101253Y-13931859D02*
X5101253Y-13941383D01*
X5101253Y-13941383D02*
X5091729Y-13960430D01*
X5091729Y-13960430D02*
X5082205Y-13969954D01*
X5082205Y-13969954D02*
X5063158Y-13979478D01*
X5063158Y-13979478D02*
X5025063Y-13979478D01*
X5025063Y-13979478D02*
X5006015Y-13989002D01*
X5006015Y-13989002D02*
X4996491Y-13998526D01*
X4996491Y-13998526D02*
X4986967Y-14017573D01*
X4986967Y-14017573D02*
X4986967Y-14055668D01*
X4986967Y-14055668D02*
X4996491Y-14074716D01*
X4996491Y-14074716D02*
X5006015Y-14084240D01*
X5006015Y-14084240D02*
X5025063Y-14093764D01*
X5025063Y-14093764D02*
X5063158Y-14093764D01*
X5063158Y-14093764D02*
X5082205Y-14084240D01*
X5082205Y-14084240D02*
X5091729Y-14074716D01*
X5091729Y-14074716D02*
X5101253Y-14055668D01*
X5101253Y-14055668D02*
X5101253Y-14017573D01*
X5101253Y-14017573D02*
X5091729Y-13998526D01*
X5091729Y-13998526D02*
X5082205Y-13989002D01*
X5082205Y-13989002D02*
X5063158Y-13979478D01*
X5225063Y-13893764D02*
X5244110Y-13893764D01*
X5244110Y-13893764D02*
X5263158Y-13903288D01*
X5263158Y-13903288D02*
X5272682Y-13912811D01*
X5272682Y-13912811D02*
X5282205Y-13931859D01*
X5282205Y-13931859D02*
X5291729Y-13969954D01*
X5291729Y-13969954D02*
X5291729Y-14017573D01*
X5291729Y-14017573D02*
X5282205Y-14055668D01*
X5282205Y-14055668D02*
X5272682Y-14074716D01*
X5272682Y-14074716D02*
X5263158Y-14084240D01*
X5263158Y-14084240D02*
X5244110Y-14093764D01*
X5244110Y-14093764D02*
X5225063Y-14093764D01*
X5225063Y-14093764D02*
X5206015Y-14084240D01*
X5206015Y-14084240D02*
X5196491Y-14074716D01*
X5196491Y-14074716D02*
X5186967Y-14055668D01*
X5186967Y-14055668D02*
X5177444Y-14017573D01*
X5177444Y-14017573D02*
X5177444Y-13969954D01*
X5177444Y-13969954D02*
X5186967Y-13931859D01*
X5186967Y-13931859D02*
X5196491Y-13912811D01*
X5196491Y-13912811D02*
X5206015Y-13903288D01*
X5206015Y-13903288D02*
X5225063Y-13893764D01*
X5415539Y-13893764D02*
X5434586Y-13893764D01*
X5434586Y-13893764D02*
X5453634Y-13903288D01*
X5453634Y-13903288D02*
X5463158Y-13912811D01*
X5463158Y-13912811D02*
X5472682Y-13931859D01*
X5472682Y-13931859D02*
X5482205Y-13969954D01*
X5482205Y-13969954D02*
X5482205Y-14017573D01*
X5482205Y-14017573D02*
X5472682Y-14055668D01*
X5472682Y-14055668D02*
X5463158Y-14074716D01*
X5463158Y-14074716D02*
X5453634Y-14084240D01*
X5453634Y-14084240D02*
X5434586Y-14093764D01*
X5434586Y-14093764D02*
X5415539Y-14093764D01*
X5415539Y-14093764D02*
X5396491Y-14084240D01*
X5396491Y-14084240D02*
X5386967Y-14074716D01*
X5386967Y-14074716D02*
X5377444Y-14055668D01*
X5377444Y-14055668D02*
X5367920Y-14017573D01*
X5367920Y-14017573D02*
X5367920Y-13969954D01*
X5367920Y-13969954D02*
X5377444Y-13931859D01*
X5377444Y-13931859D02*
X5386967Y-13912811D01*
X5386967Y-13912811D02*
X5396491Y-13903288D01*
X5396491Y-13903288D02*
X5415539Y-13893764D01*
X5567920Y-14093764D02*
X5567920Y-13960430D01*
X5567920Y-13979478D02*
X5577444Y-13969954D01*
X5577444Y-13969954D02*
X5596491Y-13960430D01*
X5596491Y-13960430D02*
X5625063Y-13960430D01*
X5625063Y-13960430D02*
X5644110Y-13969954D01*
X5644110Y-13969954D02*
X5653634Y-13989002D01*
X5653634Y-13989002D02*
X5653634Y-14093764D01*
X5653634Y-13989002D02*
X5663158Y-13969954D01*
X5663158Y-13969954D02*
X5682205Y-13960430D01*
X5682205Y-13960430D02*
X5710777Y-13960430D01*
X5710777Y-13960430D02*
X5729824Y-13969954D01*
X5729824Y-13969954D02*
X5739348Y-13989002D01*
X5739348Y-13989002D02*
X5739348Y-14093764D01*
X5834586Y-14093764D02*
X5834586Y-13960430D01*
X5834586Y-13979478D02*
X5844110Y-13969954D01*
X5844110Y-13969954D02*
X5863158Y-13960430D01*
X5863158Y-13960430D02*
X5891729Y-13960430D01*
X5891729Y-13960430D02*
X5910777Y-13969954D01*
X5910777Y-13969954D02*
X5920301Y-13989002D01*
X5920301Y-13989002D02*
X5920301Y-14093764D01*
X5920301Y-13989002D02*
X5929824Y-13969954D01*
X5929824Y-13969954D02*
X5948872Y-13960430D01*
X5948872Y-13960430D02*
X5977443Y-13960430D01*
X5977443Y-13960430D02*
X5996491Y-13969954D01*
X5996491Y-13969954D02*
X6006015Y-13989002D01*
X6006015Y-13989002D02*
X6006015Y-14093764D01*
X6396491Y-13884240D02*
X6225063Y-14141383D01*
X6653634Y-13893764D02*
X6672682Y-13893764D01*
X6672682Y-13893764D02*
X6691729Y-13903288D01*
X6691729Y-13903288D02*
X6701253Y-13912811D01*
X6701253Y-13912811D02*
X6710777Y-13931859D01*
X6710777Y-13931859D02*
X6720301Y-13969954D01*
X6720301Y-13969954D02*
X6720301Y-14017573D01*
X6720301Y-14017573D02*
X6710777Y-14055668D01*
X6710777Y-14055668D02*
X6701253Y-14074716D01*
X6701253Y-14074716D02*
X6691729Y-14084240D01*
X6691729Y-14084240D02*
X6672682Y-14093764D01*
X6672682Y-14093764D02*
X6653634Y-14093764D01*
X6653634Y-14093764D02*
X6634586Y-14084240D01*
X6634586Y-14084240D02*
X6625063Y-14074716D01*
X6625063Y-14074716D02*
X6615539Y-14055668D01*
X6615539Y-14055668D02*
X6606015Y-14017573D01*
X6606015Y-14017573D02*
X6606015Y-13969954D01*
X6606015Y-13969954D02*
X6615539Y-13931859D01*
X6615539Y-13931859D02*
X6625063Y-13912811D01*
X6625063Y-13912811D02*
X6634586Y-13903288D01*
X6634586Y-13903288D02*
X6653634Y-13893764D01*
X6806015Y-14074716D02*
X6815539Y-14084240D01*
X6815539Y-14084240D02*
X6806015Y-14093764D01*
X6806015Y-14093764D02*
X6796491Y-14084240D01*
X6796491Y-14084240D02*
X6806015Y-14074716D01*
X6806015Y-14074716D02*
X6806015Y-14093764D01*
X6939348Y-13893764D02*
X6958396Y-13893764D01*
X6958396Y-13893764D02*
X6977444Y-13903288D01*
X6977444Y-13903288D02*
X6986967Y-13912811D01*
X6986967Y-13912811D02*
X6996491Y-13931859D01*
X6996491Y-13931859D02*
X7006015Y-13969954D01*
X7006015Y-13969954D02*
X7006015Y-14017573D01*
X7006015Y-14017573D02*
X6996491Y-14055668D01*
X6996491Y-14055668D02*
X6986967Y-14074716D01*
X6986967Y-14074716D02*
X6977444Y-14084240D01*
X6977444Y-14084240D02*
X6958396Y-14093764D01*
X6958396Y-14093764D02*
X6939348Y-14093764D01*
X6939348Y-14093764D02*
X6920301Y-14084240D01*
X6920301Y-14084240D02*
X6910777Y-14074716D01*
X6910777Y-14074716D02*
X6901253Y-14055668D01*
X6901253Y-14055668D02*
X6891729Y-14017573D01*
X6891729Y-14017573D02*
X6891729Y-13969954D01*
X6891729Y-13969954D02*
X6901253Y-13931859D01*
X6901253Y-13931859D02*
X6910777Y-13912811D01*
X6910777Y-13912811D02*
X6920301Y-13903288D01*
X6920301Y-13903288D02*
X6939348Y-13893764D01*
X7072682Y-13893764D02*
X7196491Y-13893764D01*
X7196491Y-13893764D02*
X7129825Y-13969954D01*
X7129825Y-13969954D02*
X7158396Y-13969954D01*
X7158396Y-13969954D02*
X7177444Y-13979478D01*
X7177444Y-13979478D02*
X7186967Y-13989002D01*
X7186967Y-13989002D02*
X7196491Y-14008049D01*
X7196491Y-14008049D02*
X7196491Y-14055668D01*
X7196491Y-14055668D02*
X7186967Y-14074716D01*
X7186967Y-14074716D02*
X7177444Y-14084240D01*
X7177444Y-14084240D02*
X7158396Y-14093764D01*
X7158396Y-14093764D02*
X7101253Y-14093764D01*
X7101253Y-14093764D02*
X7082206Y-14084240D01*
X7082206Y-14084240D02*
X7072682Y-14074716D01*
X7386967Y-14093764D02*
X7272682Y-14093764D01*
X7329825Y-14093764D02*
X7329825Y-13893764D01*
X7329825Y-13893764D02*
X7310777Y-13922335D01*
X7310777Y-13922335D02*
X7291729Y-13941383D01*
X7291729Y-13941383D02*
X7272682Y-13950907D01*
X7567920Y-13893764D02*
X7472682Y-13893764D01*
X7472682Y-13893764D02*
X7463158Y-13989002D01*
X7463158Y-13989002D02*
X7472682Y-13979478D01*
X7472682Y-13979478D02*
X7491729Y-13969954D01*
X7491729Y-13969954D02*
X7539348Y-13969954D01*
X7539348Y-13969954D02*
X7558396Y-13979478D01*
X7558396Y-13979478D02*
X7567920Y-13989002D01*
X7567920Y-13989002D02*
X7577444Y-14008049D01*
X7577444Y-14008049D02*
X7577444Y-14055668D01*
X7577444Y-14055668D02*
X7567920Y-14074716D01*
X7567920Y-14074716D02*
X7558396Y-14084240D01*
X7558396Y-14084240D02*
X7539348Y-14093764D01*
X7539348Y-14093764D02*
X7491729Y-14093764D01*
X7491729Y-14093764D02*
X7472682Y-14084240D01*
X7472682Y-14084240D02*
X7463158Y-14074716D01*
X7653634Y-13893764D02*
X7653634Y-13931859D01*
X7729825Y-13893764D02*
X7729825Y-13931859D01*
X8025063Y-14169954D02*
X8015539Y-14160430D01*
X8015539Y-14160430D02*
X7996491Y-14131859D01*
X7996491Y-14131859D02*
X7986968Y-14112811D01*
X7986968Y-14112811D02*
X7977444Y-14084240D01*
X7977444Y-14084240D02*
X7967920Y-14036621D01*
X7967920Y-14036621D02*
X7967920Y-13998526D01*
X7967920Y-13998526D02*
X7977444Y-13950907D01*
X7977444Y-13950907D02*
X7986968Y-13922335D01*
X7986968Y-13922335D02*
X7996491Y-13903288D01*
X7996491Y-13903288D02*
X8015539Y-13874716D01*
X8015539Y-13874716D02*
X8025063Y-13865192D01*
X8196491Y-13893764D02*
X8101253Y-13893764D01*
X8101253Y-13893764D02*
X8091729Y-13989002D01*
X8091729Y-13989002D02*
X8101253Y-13979478D01*
X8101253Y-13979478D02*
X8120301Y-13969954D01*
X8120301Y-13969954D02*
X8167920Y-13969954D01*
X8167920Y-13969954D02*
X8186968Y-13979478D01*
X8186968Y-13979478D02*
X8196491Y-13989002D01*
X8196491Y-13989002D02*
X8206015Y-14008049D01*
X8206015Y-14008049D02*
X8206015Y-14055668D01*
X8206015Y-14055668D02*
X8196491Y-14074716D01*
X8196491Y-14074716D02*
X8186968Y-14084240D01*
X8186968Y-14084240D02*
X8167920Y-14093764D01*
X8167920Y-14093764D02*
X8120301Y-14093764D01*
X8120301Y-14093764D02*
X8101253Y-14084240D01*
X8101253Y-14084240D02*
X8091729Y-14074716D01*
X8444111Y-14093764D02*
X8444111Y-13893764D01*
X8529825Y-14093764D02*
X8529825Y-13989002D01*
X8529825Y-13989002D02*
X8520301Y-13969954D01*
X8520301Y-13969954D02*
X8501253Y-13960430D01*
X8501253Y-13960430D02*
X8472682Y-13960430D01*
X8472682Y-13960430D02*
X8453634Y-13969954D01*
X8453634Y-13969954D02*
X8444111Y-13979478D01*
X8653634Y-14093764D02*
X8634587Y-14084240D01*
X8634587Y-14084240D02*
X8625063Y-14074716D01*
X8625063Y-14074716D02*
X8615539Y-14055668D01*
X8615539Y-14055668D02*
X8615539Y-13998526D01*
X8615539Y-13998526D02*
X8625063Y-13979478D01*
X8625063Y-13979478D02*
X8634587Y-13969954D01*
X8634587Y-13969954D02*
X8653634Y-13960430D01*
X8653634Y-13960430D02*
X8682206Y-13960430D01*
X8682206Y-13960430D02*
X8701253Y-13969954D01*
X8701253Y-13969954D02*
X8710777Y-13979478D01*
X8710777Y-13979478D02*
X8720301Y-13998526D01*
X8720301Y-13998526D02*
X8720301Y-14055668D01*
X8720301Y-14055668D02*
X8710777Y-14074716D01*
X8710777Y-14074716D02*
X8701253Y-14084240D01*
X8701253Y-14084240D02*
X8682206Y-14093764D01*
X8682206Y-14093764D02*
X8653634Y-14093764D01*
X8834587Y-14093764D02*
X8815539Y-14084240D01*
X8815539Y-14084240D02*
X8806015Y-14065192D01*
X8806015Y-14065192D02*
X8806015Y-13893764D01*
X8986968Y-14084240D02*
X8967920Y-14093764D01*
X8967920Y-14093764D02*
X8929825Y-14093764D01*
X8929825Y-14093764D02*
X8910777Y-14084240D01*
X8910777Y-14084240D02*
X8901253Y-14065192D01*
X8901253Y-14065192D02*
X8901253Y-13989002D01*
X8901253Y-13989002D02*
X8910777Y-13969954D01*
X8910777Y-13969954D02*
X8929825Y-13960430D01*
X8929825Y-13960430D02*
X8967920Y-13960430D01*
X8967920Y-13960430D02*
X8986968Y-13969954D01*
X8986968Y-13969954D02*
X8996492Y-13989002D01*
X8996492Y-13989002D02*
X8996492Y-14008049D01*
X8996492Y-14008049D02*
X8901253Y-14027097D01*
X9072682Y-14084240D02*
X9091730Y-14093764D01*
X9091730Y-14093764D02*
X9129825Y-14093764D01*
X9129825Y-14093764D02*
X9148873Y-14084240D01*
X9148873Y-14084240D02*
X9158396Y-14065192D01*
X9158396Y-14065192D02*
X9158396Y-14055668D01*
X9158396Y-14055668D02*
X9148873Y-14036621D01*
X9148873Y-14036621D02*
X9129825Y-14027097D01*
X9129825Y-14027097D02*
X9101253Y-14027097D01*
X9101253Y-14027097D02*
X9082206Y-14017573D01*
X9082206Y-14017573D02*
X9072682Y-13998526D01*
X9072682Y-13998526D02*
X9072682Y-13989002D01*
X9072682Y-13989002D02*
X9082206Y-13969954D01*
X9082206Y-13969954D02*
X9101253Y-13960430D01*
X9101253Y-13960430D02*
X9129825Y-13960430D01*
X9129825Y-13960430D02*
X9148873Y-13969954D01*
X9225063Y-14169954D02*
X9234587Y-14160430D01*
X9234587Y-14160430D02*
X9253634Y-14131859D01*
X9253634Y-14131859D02*
X9263158Y-14112811D01*
X9263158Y-14112811D02*
X9272682Y-14084240D01*
X9272682Y-14084240D02*
X9282206Y-14036621D01*
X9282206Y-14036621D02*
X9282206Y-13998526D01*
X9282206Y-13998526D02*
X9272682Y-13950907D01*
X9272682Y-13950907D02*
X9263158Y-13922335D01*
X9263158Y-13922335D02*
X9253634Y-13903288D01*
X9253634Y-13903288D02*
X9234587Y-13874716D01*
X9234587Y-13874716D02*
X9225063Y-13865192D01*
D12*
X4405000Y-14311280D02*
X4450000Y-14266280D01*
X4405000Y-14221280D01*
X4360000Y-14266280D01*
X4405000Y-14311280D01*
D11*
X4748872Y-14157764D02*
X4767920Y-14157764D01*
X4767920Y-14157764D02*
X4786967Y-14167288D01*
X4786967Y-14167288D02*
X4796491Y-14176811D01*
X4796491Y-14176811D02*
X4806015Y-14195859D01*
X4806015Y-14195859D02*
X4815539Y-14233954D01*
X4815539Y-14233954D02*
X4815539Y-14281573D01*
X4815539Y-14281573D02*
X4806015Y-14319668D01*
X4806015Y-14319668D02*
X4796491Y-14338716D01*
X4796491Y-14338716D02*
X4786967Y-14348240D01*
X4786967Y-14348240D02*
X4767920Y-14357764D01*
X4767920Y-14357764D02*
X4748872Y-14357764D01*
X4748872Y-14357764D02*
X4729824Y-14348240D01*
X4729824Y-14348240D02*
X4720301Y-14338716D01*
X4720301Y-14338716D02*
X4710777Y-14319668D01*
X4710777Y-14319668D02*
X4701253Y-14281573D01*
X4701253Y-14281573D02*
X4701253Y-14233954D01*
X4701253Y-14233954D02*
X4710777Y-14195859D01*
X4710777Y-14195859D02*
X4720301Y-14176811D01*
X4720301Y-14176811D02*
X4729824Y-14167288D01*
X4729824Y-14167288D02*
X4748872Y-14157764D01*
X4901253Y-14338716D02*
X4910777Y-14348240D01*
X4910777Y-14348240D02*
X4901253Y-14357764D01*
X4901253Y-14357764D02*
X4891729Y-14348240D01*
X4891729Y-14348240D02*
X4901253Y-14338716D01*
X4901253Y-14338716D02*
X4901253Y-14357764D01*
X5006015Y-14357764D02*
X5044110Y-14357764D01*
X5044110Y-14357764D02*
X5063158Y-14348240D01*
X5063158Y-14348240D02*
X5072682Y-14338716D01*
X5072682Y-14338716D02*
X5091729Y-14310145D01*
X5091729Y-14310145D02*
X5101253Y-14272049D01*
X5101253Y-14272049D02*
X5101253Y-14195859D01*
X5101253Y-14195859D02*
X5091729Y-14176811D01*
X5091729Y-14176811D02*
X5082205Y-14167288D01*
X5082205Y-14167288D02*
X5063158Y-14157764D01*
X5063158Y-14157764D02*
X5025063Y-14157764D01*
X5025063Y-14157764D02*
X5006015Y-14167288D01*
X5006015Y-14167288D02*
X4996491Y-14176811D01*
X4996491Y-14176811D02*
X4986967Y-14195859D01*
X4986967Y-14195859D02*
X4986967Y-14243478D01*
X4986967Y-14243478D02*
X4996491Y-14262526D01*
X4996491Y-14262526D02*
X5006015Y-14272049D01*
X5006015Y-14272049D02*
X5025063Y-14281573D01*
X5025063Y-14281573D02*
X5063158Y-14281573D01*
X5063158Y-14281573D02*
X5082205Y-14272049D01*
X5082205Y-14272049D02*
X5091729Y-14262526D01*
X5091729Y-14262526D02*
X5101253Y-14243478D01*
X5225063Y-14157764D02*
X5244110Y-14157764D01*
X5244110Y-14157764D02*
X5263158Y-14167288D01*
X5263158Y-14167288D02*
X5272682Y-14176811D01*
X5272682Y-14176811D02*
X5282205Y-14195859D01*
X5282205Y-14195859D02*
X5291729Y-14233954D01*
X5291729Y-14233954D02*
X5291729Y-14281573D01*
X5291729Y-14281573D02*
X5282205Y-14319668D01*
X5282205Y-14319668D02*
X5272682Y-14338716D01*
X5272682Y-14338716D02*
X5263158Y-14348240D01*
X5263158Y-14348240D02*
X5244110Y-14357764D01*
X5244110Y-14357764D02*
X5225063Y-14357764D01*
X5225063Y-14357764D02*
X5206015Y-14348240D01*
X5206015Y-14348240D02*
X5196491Y-14338716D01*
X5196491Y-14338716D02*
X5186967Y-14319668D01*
X5186967Y-14319668D02*
X5177444Y-14281573D01*
X5177444Y-14281573D02*
X5177444Y-14233954D01*
X5177444Y-14233954D02*
X5186967Y-14195859D01*
X5186967Y-14195859D02*
X5196491Y-14176811D01*
X5196491Y-14176811D02*
X5206015Y-14167288D01*
X5206015Y-14167288D02*
X5225063Y-14157764D01*
X5415539Y-14157764D02*
X5434586Y-14157764D01*
X5434586Y-14157764D02*
X5453634Y-14167288D01*
X5453634Y-14167288D02*
X5463158Y-14176811D01*
X5463158Y-14176811D02*
X5472682Y-14195859D01*
X5472682Y-14195859D02*
X5482205Y-14233954D01*
X5482205Y-14233954D02*
X5482205Y-14281573D01*
X5482205Y-14281573D02*
X5472682Y-14319668D01*
X5472682Y-14319668D02*
X5463158Y-14338716D01*
X5463158Y-14338716D02*
X5453634Y-14348240D01*
X5453634Y-14348240D02*
X5434586Y-14357764D01*
X5434586Y-14357764D02*
X5415539Y-14357764D01*
X5415539Y-14357764D02*
X5396491Y-14348240D01*
X5396491Y-14348240D02*
X5386967Y-14338716D01*
X5386967Y-14338716D02*
X5377444Y-14319668D01*
X5377444Y-14319668D02*
X5367920Y-14281573D01*
X5367920Y-14281573D02*
X5367920Y-14233954D01*
X5367920Y-14233954D02*
X5377444Y-14195859D01*
X5377444Y-14195859D02*
X5386967Y-14176811D01*
X5386967Y-14176811D02*
X5396491Y-14167288D01*
X5396491Y-14167288D02*
X5415539Y-14157764D01*
X5567920Y-14357764D02*
X5567920Y-14224430D01*
X5567920Y-14243478D02*
X5577444Y-14233954D01*
X5577444Y-14233954D02*
X5596491Y-14224430D01*
X5596491Y-14224430D02*
X5625063Y-14224430D01*
X5625063Y-14224430D02*
X5644110Y-14233954D01*
X5644110Y-14233954D02*
X5653634Y-14253002D01*
X5653634Y-14253002D02*
X5653634Y-14357764D01*
X5653634Y-14253002D02*
X5663158Y-14233954D01*
X5663158Y-14233954D02*
X5682205Y-14224430D01*
X5682205Y-14224430D02*
X5710777Y-14224430D01*
X5710777Y-14224430D02*
X5729824Y-14233954D01*
X5729824Y-14233954D02*
X5739348Y-14253002D01*
X5739348Y-14253002D02*
X5739348Y-14357764D01*
X5834586Y-14357764D02*
X5834586Y-14224430D01*
X5834586Y-14243478D02*
X5844110Y-14233954D01*
X5844110Y-14233954D02*
X5863158Y-14224430D01*
X5863158Y-14224430D02*
X5891729Y-14224430D01*
X5891729Y-14224430D02*
X5910777Y-14233954D01*
X5910777Y-14233954D02*
X5920301Y-14253002D01*
X5920301Y-14253002D02*
X5920301Y-14357764D01*
X5920301Y-14253002D02*
X5929824Y-14233954D01*
X5929824Y-14233954D02*
X5948872Y-14224430D01*
X5948872Y-14224430D02*
X5977443Y-14224430D01*
X5977443Y-14224430D02*
X5996491Y-14233954D01*
X5996491Y-14233954D02*
X6006015Y-14253002D01*
X6006015Y-14253002D02*
X6006015Y-14357764D01*
X6396491Y-14148240D02*
X6225063Y-14405383D01*
X6653634Y-14157764D02*
X6672682Y-14157764D01*
X6672682Y-14157764D02*
X6691729Y-14167288D01*
X6691729Y-14167288D02*
X6701253Y-14176811D01*
X6701253Y-14176811D02*
X6710777Y-14195859D01*
X6710777Y-14195859D02*
X6720301Y-14233954D01*
X6720301Y-14233954D02*
X6720301Y-14281573D01*
X6720301Y-14281573D02*
X6710777Y-14319668D01*
X6710777Y-14319668D02*
X6701253Y-14338716D01*
X6701253Y-14338716D02*
X6691729Y-14348240D01*
X6691729Y-14348240D02*
X6672682Y-14357764D01*
X6672682Y-14357764D02*
X6653634Y-14357764D01*
X6653634Y-14357764D02*
X6634586Y-14348240D01*
X6634586Y-14348240D02*
X6625063Y-14338716D01*
X6625063Y-14338716D02*
X6615539Y-14319668D01*
X6615539Y-14319668D02*
X6606015Y-14281573D01*
X6606015Y-14281573D02*
X6606015Y-14233954D01*
X6606015Y-14233954D02*
X6615539Y-14195859D01*
X6615539Y-14195859D02*
X6625063Y-14176811D01*
X6625063Y-14176811D02*
X6634586Y-14167288D01*
X6634586Y-14167288D02*
X6653634Y-14157764D01*
X6806015Y-14338716D02*
X6815539Y-14348240D01*
X6815539Y-14348240D02*
X6806015Y-14357764D01*
X6806015Y-14357764D02*
X6796491Y-14348240D01*
X6796491Y-14348240D02*
X6806015Y-14338716D01*
X6806015Y-14338716D02*
X6806015Y-14357764D01*
X6939348Y-14157764D02*
X6958396Y-14157764D01*
X6958396Y-14157764D02*
X6977444Y-14167288D01*
X6977444Y-14167288D02*
X6986967Y-14176811D01*
X6986967Y-14176811D02*
X6996491Y-14195859D01*
X6996491Y-14195859D02*
X7006015Y-14233954D01*
X7006015Y-14233954D02*
X7006015Y-14281573D01*
X7006015Y-14281573D02*
X6996491Y-14319668D01*
X6996491Y-14319668D02*
X6986967Y-14338716D01*
X6986967Y-14338716D02*
X6977444Y-14348240D01*
X6977444Y-14348240D02*
X6958396Y-14357764D01*
X6958396Y-14357764D02*
X6939348Y-14357764D01*
X6939348Y-14357764D02*
X6920301Y-14348240D01*
X6920301Y-14348240D02*
X6910777Y-14338716D01*
X6910777Y-14338716D02*
X6901253Y-14319668D01*
X6901253Y-14319668D02*
X6891729Y-14281573D01*
X6891729Y-14281573D02*
X6891729Y-14233954D01*
X6891729Y-14233954D02*
X6901253Y-14195859D01*
X6901253Y-14195859D02*
X6910777Y-14176811D01*
X6910777Y-14176811D02*
X6920301Y-14167288D01*
X6920301Y-14167288D02*
X6939348Y-14157764D01*
X7072682Y-14157764D02*
X7196491Y-14157764D01*
X7196491Y-14157764D02*
X7129825Y-14233954D01*
X7129825Y-14233954D02*
X7158396Y-14233954D01*
X7158396Y-14233954D02*
X7177444Y-14243478D01*
X7177444Y-14243478D02*
X7186967Y-14253002D01*
X7186967Y-14253002D02*
X7196491Y-14272049D01*
X7196491Y-14272049D02*
X7196491Y-14319668D01*
X7196491Y-14319668D02*
X7186967Y-14338716D01*
X7186967Y-14338716D02*
X7177444Y-14348240D01*
X7177444Y-14348240D02*
X7158396Y-14357764D01*
X7158396Y-14357764D02*
X7101253Y-14357764D01*
X7101253Y-14357764D02*
X7082206Y-14348240D01*
X7082206Y-14348240D02*
X7072682Y-14338716D01*
X7377444Y-14157764D02*
X7282206Y-14157764D01*
X7282206Y-14157764D02*
X7272682Y-14253002D01*
X7272682Y-14253002D02*
X7282206Y-14243478D01*
X7282206Y-14243478D02*
X7301253Y-14233954D01*
X7301253Y-14233954D02*
X7348872Y-14233954D01*
X7348872Y-14233954D02*
X7367920Y-14243478D01*
X7367920Y-14243478D02*
X7377444Y-14253002D01*
X7377444Y-14253002D02*
X7386967Y-14272049D01*
X7386967Y-14272049D02*
X7386967Y-14319668D01*
X7386967Y-14319668D02*
X7377444Y-14338716D01*
X7377444Y-14338716D02*
X7367920Y-14348240D01*
X7367920Y-14348240D02*
X7348872Y-14357764D01*
X7348872Y-14357764D02*
X7301253Y-14357764D01*
X7301253Y-14357764D02*
X7282206Y-14348240D01*
X7282206Y-14348240D02*
X7272682Y-14338716D01*
X7558396Y-14224430D02*
X7558396Y-14357764D01*
X7510777Y-14148240D02*
X7463158Y-14291097D01*
X7463158Y-14291097D02*
X7586967Y-14291097D01*
X7653634Y-14157764D02*
X7653634Y-14195859D01*
X7729825Y-14157764D02*
X7729825Y-14195859D01*
X8025063Y-14433954D02*
X8015539Y-14424430D01*
X8015539Y-14424430D02*
X7996491Y-14395859D01*
X7996491Y-14395859D02*
X7986968Y-14376811D01*
X7986968Y-14376811D02*
X7977444Y-14348240D01*
X7977444Y-14348240D02*
X7967920Y-14300621D01*
X7967920Y-14300621D02*
X7967920Y-14262526D01*
X7967920Y-14262526D02*
X7977444Y-14214907D01*
X7977444Y-14214907D02*
X7986968Y-14186335D01*
X7986968Y-14186335D02*
X7996491Y-14167288D01*
X7996491Y-14167288D02*
X8015539Y-14138716D01*
X8015539Y-14138716D02*
X8025063Y-14129192D01*
X8196491Y-14157764D02*
X8101253Y-14157764D01*
X8101253Y-14157764D02*
X8091729Y-14253002D01*
X8091729Y-14253002D02*
X8101253Y-14243478D01*
X8101253Y-14243478D02*
X8120301Y-14233954D01*
X8120301Y-14233954D02*
X8167920Y-14233954D01*
X8167920Y-14233954D02*
X8186968Y-14243478D01*
X8186968Y-14243478D02*
X8196491Y-14253002D01*
X8196491Y-14253002D02*
X8206015Y-14272049D01*
X8206015Y-14272049D02*
X8206015Y-14319668D01*
X8206015Y-14319668D02*
X8196491Y-14338716D01*
X8196491Y-14338716D02*
X8186968Y-14348240D01*
X8186968Y-14348240D02*
X8167920Y-14357764D01*
X8167920Y-14357764D02*
X8120301Y-14357764D01*
X8120301Y-14357764D02*
X8101253Y-14348240D01*
X8101253Y-14348240D02*
X8091729Y-14338716D01*
X8329825Y-14157764D02*
X8348872Y-14157764D01*
X8348872Y-14157764D02*
X8367920Y-14167288D01*
X8367920Y-14167288D02*
X8377444Y-14176811D01*
X8377444Y-14176811D02*
X8386968Y-14195859D01*
X8386968Y-14195859D02*
X8396491Y-14233954D01*
X8396491Y-14233954D02*
X8396491Y-14281573D01*
X8396491Y-14281573D02*
X8386968Y-14319668D01*
X8386968Y-14319668D02*
X8377444Y-14338716D01*
X8377444Y-14338716D02*
X8367920Y-14348240D01*
X8367920Y-14348240D02*
X8348872Y-14357764D01*
X8348872Y-14357764D02*
X8329825Y-14357764D01*
X8329825Y-14357764D02*
X8310777Y-14348240D01*
X8310777Y-14348240D02*
X8301253Y-14338716D01*
X8301253Y-14338716D02*
X8291729Y-14319668D01*
X8291729Y-14319668D02*
X8282206Y-14281573D01*
X8282206Y-14281573D02*
X8282206Y-14233954D01*
X8282206Y-14233954D02*
X8291729Y-14195859D01*
X8291729Y-14195859D02*
X8301253Y-14176811D01*
X8301253Y-14176811D02*
X8310777Y-14167288D01*
X8310777Y-14167288D02*
X8329825Y-14157764D01*
X8634587Y-14357764D02*
X8634587Y-14157764D01*
X8720301Y-14357764D02*
X8720301Y-14253002D01*
X8720301Y-14253002D02*
X8710777Y-14233954D01*
X8710777Y-14233954D02*
X8691730Y-14224430D01*
X8691730Y-14224430D02*
X8663158Y-14224430D01*
X8663158Y-14224430D02*
X8644111Y-14233954D01*
X8644111Y-14233954D02*
X8634587Y-14243478D01*
X8844111Y-14357764D02*
X8825063Y-14348240D01*
X8825063Y-14348240D02*
X8815539Y-14338716D01*
X8815539Y-14338716D02*
X8806015Y-14319668D01*
X8806015Y-14319668D02*
X8806015Y-14262526D01*
X8806015Y-14262526D02*
X8815539Y-14243478D01*
X8815539Y-14243478D02*
X8825063Y-14233954D01*
X8825063Y-14233954D02*
X8844111Y-14224430D01*
X8844111Y-14224430D02*
X8872682Y-14224430D01*
X8872682Y-14224430D02*
X8891730Y-14233954D01*
X8891730Y-14233954D02*
X8901253Y-14243478D01*
X8901253Y-14243478D02*
X8910777Y-14262526D01*
X8910777Y-14262526D02*
X8910777Y-14319668D01*
X8910777Y-14319668D02*
X8901253Y-14338716D01*
X8901253Y-14338716D02*
X8891730Y-14348240D01*
X8891730Y-14348240D02*
X8872682Y-14357764D01*
X8872682Y-14357764D02*
X8844111Y-14357764D01*
X9025063Y-14357764D02*
X9006015Y-14348240D01*
X9006015Y-14348240D02*
X8996492Y-14329192D01*
X8996492Y-14329192D02*
X8996492Y-14157764D01*
X9177444Y-14348240D02*
X9158396Y-14357764D01*
X9158396Y-14357764D02*
X9120301Y-14357764D01*
X9120301Y-14357764D02*
X9101253Y-14348240D01*
X9101253Y-14348240D02*
X9091730Y-14329192D01*
X9091730Y-14329192D02*
X9091730Y-14253002D01*
X9091730Y-14253002D02*
X9101253Y-14233954D01*
X9101253Y-14233954D02*
X9120301Y-14224430D01*
X9120301Y-14224430D02*
X9158396Y-14224430D01*
X9158396Y-14224430D02*
X9177444Y-14233954D01*
X9177444Y-14233954D02*
X9186968Y-14253002D01*
X9186968Y-14253002D02*
X9186968Y-14272049D01*
X9186968Y-14272049D02*
X9091730Y-14291097D01*
X9263158Y-14348240D02*
X9282206Y-14357764D01*
X9282206Y-14357764D02*
X9320301Y-14357764D01*
X9320301Y-14357764D02*
X9339349Y-14348240D01*
X9339349Y-14348240D02*
X9348873Y-14329192D01*
X9348873Y-14329192D02*
X9348873Y-14319668D01*
X9348873Y-14319668D02*
X9339349Y-14300621D01*
X9339349Y-14300621D02*
X9320301Y-14291097D01*
X9320301Y-14291097D02*
X9291730Y-14291097D01*
X9291730Y-14291097D02*
X9272682Y-14281573D01*
X9272682Y-14281573D02*
X9263158Y-14262526D01*
X9263158Y-14262526D02*
X9263158Y-14253002D01*
X9263158Y-14253002D02*
X9272682Y-14233954D01*
X9272682Y-14233954D02*
X9291730Y-14224430D01*
X9291730Y-14224430D02*
X9320301Y-14224430D01*
X9320301Y-14224430D02*
X9339349Y-14233954D01*
X9415539Y-14433954D02*
X9425063Y-14424430D01*
X9425063Y-14424430D02*
X9444111Y-14395859D01*
X9444111Y-14395859D02*
X9453634Y-14376811D01*
X9453634Y-14376811D02*
X9463158Y-14348240D01*
X9463158Y-14348240D02*
X9472682Y-14300621D01*
X9472682Y-14300621D02*
X9472682Y-14262526D01*
X9472682Y-14262526D02*
X9463158Y-14214907D01*
X9463158Y-14214907D02*
X9453634Y-14186335D01*
X9453634Y-14186335D02*
X9444111Y-14167288D01*
X9444111Y-14167288D02*
X9425063Y-14138716D01*
X9425063Y-14138716D02*
X9415539Y-14129192D01*
D12*
X4350000Y-14480280D02*
X4450000Y-14580280D01*
X4450000Y-14480280D02*
X4350000Y-14580280D01*
X4450000Y-14530280D02*
G75*
G02*
X4350000Y-14530280I-50000J0D01*
G01*
X4350000Y-14530280D02*
G75*
G02*
X4450000Y-14530280I50000J0D01*
G01*
D11*
X4815539Y-14621764D02*
X4701253Y-14621764D01*
X4758396Y-14621764D02*
X4758396Y-14421764D01*
X4758396Y-14421764D02*
X4739348Y-14450335D01*
X4739348Y-14450335D02*
X4720301Y-14469383D01*
X4720301Y-14469383D02*
X4701253Y-14478907D01*
X4901253Y-14602716D02*
X4910777Y-14612240D01*
X4910777Y-14612240D02*
X4901253Y-14621764D01*
X4901253Y-14621764D02*
X4891729Y-14612240D01*
X4891729Y-14612240D02*
X4901253Y-14602716D01*
X4901253Y-14602716D02*
X4901253Y-14621764D01*
X5034586Y-14421764D02*
X5053634Y-14421764D01*
X5053634Y-14421764D02*
X5072682Y-14431288D01*
X5072682Y-14431288D02*
X5082205Y-14440811D01*
X5082205Y-14440811D02*
X5091729Y-14459859D01*
X5091729Y-14459859D02*
X5101253Y-14497954D01*
X5101253Y-14497954D02*
X5101253Y-14545573D01*
X5101253Y-14545573D02*
X5091729Y-14583668D01*
X5091729Y-14583668D02*
X5082205Y-14602716D01*
X5082205Y-14602716D02*
X5072682Y-14612240D01*
X5072682Y-14612240D02*
X5053634Y-14621764D01*
X5053634Y-14621764D02*
X5034586Y-14621764D01*
X5034586Y-14621764D02*
X5015539Y-14612240D01*
X5015539Y-14612240D02*
X5006015Y-14602716D01*
X5006015Y-14602716D02*
X4996491Y-14583668D01*
X4996491Y-14583668D02*
X4986967Y-14545573D01*
X4986967Y-14545573D02*
X4986967Y-14497954D01*
X4986967Y-14497954D02*
X4996491Y-14459859D01*
X4996491Y-14459859D02*
X5006015Y-14440811D01*
X5006015Y-14440811D02*
X5015539Y-14431288D01*
X5015539Y-14431288D02*
X5034586Y-14421764D01*
X5225063Y-14421764D02*
X5244110Y-14421764D01*
X5244110Y-14421764D02*
X5263158Y-14431288D01*
X5263158Y-14431288D02*
X5272682Y-14440811D01*
X5272682Y-14440811D02*
X5282205Y-14459859D01*
X5282205Y-14459859D02*
X5291729Y-14497954D01*
X5291729Y-14497954D02*
X5291729Y-14545573D01*
X5291729Y-14545573D02*
X5282205Y-14583668D01*
X5282205Y-14583668D02*
X5272682Y-14602716D01*
X5272682Y-14602716D02*
X5263158Y-14612240D01*
X5263158Y-14612240D02*
X5244110Y-14621764D01*
X5244110Y-14621764D02*
X5225063Y-14621764D01*
X5225063Y-14621764D02*
X5206015Y-14612240D01*
X5206015Y-14612240D02*
X5196491Y-14602716D01*
X5196491Y-14602716D02*
X5186967Y-14583668D01*
X5186967Y-14583668D02*
X5177444Y-14545573D01*
X5177444Y-14545573D02*
X5177444Y-14497954D01*
X5177444Y-14497954D02*
X5186967Y-14459859D01*
X5186967Y-14459859D02*
X5196491Y-14440811D01*
X5196491Y-14440811D02*
X5206015Y-14431288D01*
X5206015Y-14431288D02*
X5225063Y-14421764D01*
X5415539Y-14421764D02*
X5434586Y-14421764D01*
X5434586Y-14421764D02*
X5453634Y-14431288D01*
X5453634Y-14431288D02*
X5463158Y-14440811D01*
X5463158Y-14440811D02*
X5472682Y-14459859D01*
X5472682Y-14459859D02*
X5482205Y-14497954D01*
X5482205Y-14497954D02*
X5482205Y-14545573D01*
X5482205Y-14545573D02*
X5472682Y-14583668D01*
X5472682Y-14583668D02*
X5463158Y-14602716D01*
X5463158Y-14602716D02*
X5453634Y-14612240D01*
X5453634Y-14612240D02*
X5434586Y-14621764D01*
X5434586Y-14621764D02*
X5415539Y-14621764D01*
X5415539Y-14621764D02*
X5396491Y-14612240D01*
X5396491Y-14612240D02*
X5386967Y-14602716D01*
X5386967Y-14602716D02*
X5377444Y-14583668D01*
X5377444Y-14583668D02*
X5367920Y-14545573D01*
X5367920Y-14545573D02*
X5367920Y-14497954D01*
X5367920Y-14497954D02*
X5377444Y-14459859D01*
X5377444Y-14459859D02*
X5386967Y-14440811D01*
X5386967Y-14440811D02*
X5396491Y-14431288D01*
X5396491Y-14431288D02*
X5415539Y-14421764D01*
X5567920Y-14621764D02*
X5567920Y-14488430D01*
X5567920Y-14507478D02*
X5577444Y-14497954D01*
X5577444Y-14497954D02*
X5596491Y-14488430D01*
X5596491Y-14488430D02*
X5625063Y-14488430D01*
X5625063Y-14488430D02*
X5644110Y-14497954D01*
X5644110Y-14497954D02*
X5653634Y-14517002D01*
X5653634Y-14517002D02*
X5653634Y-14621764D01*
X5653634Y-14517002D02*
X5663158Y-14497954D01*
X5663158Y-14497954D02*
X5682205Y-14488430D01*
X5682205Y-14488430D02*
X5710777Y-14488430D01*
X5710777Y-14488430D02*
X5729824Y-14497954D01*
X5729824Y-14497954D02*
X5739348Y-14517002D01*
X5739348Y-14517002D02*
X5739348Y-14621764D01*
X5834586Y-14621764D02*
X5834586Y-14488430D01*
X5834586Y-14507478D02*
X5844110Y-14497954D01*
X5844110Y-14497954D02*
X5863158Y-14488430D01*
X5863158Y-14488430D02*
X5891729Y-14488430D01*
X5891729Y-14488430D02*
X5910777Y-14497954D01*
X5910777Y-14497954D02*
X5920301Y-14517002D01*
X5920301Y-14517002D02*
X5920301Y-14621764D01*
X5920301Y-14517002D02*
X5929824Y-14497954D01*
X5929824Y-14497954D02*
X5948872Y-14488430D01*
X5948872Y-14488430D02*
X5977443Y-14488430D01*
X5977443Y-14488430D02*
X5996491Y-14497954D01*
X5996491Y-14497954D02*
X6006015Y-14517002D01*
X6006015Y-14517002D02*
X6006015Y-14621764D01*
X6396491Y-14412240D02*
X6225063Y-14669383D01*
X6653634Y-14421764D02*
X6672682Y-14421764D01*
X6672682Y-14421764D02*
X6691729Y-14431288D01*
X6691729Y-14431288D02*
X6701253Y-14440811D01*
X6701253Y-14440811D02*
X6710777Y-14459859D01*
X6710777Y-14459859D02*
X6720301Y-14497954D01*
X6720301Y-14497954D02*
X6720301Y-14545573D01*
X6720301Y-14545573D02*
X6710777Y-14583668D01*
X6710777Y-14583668D02*
X6701253Y-14602716D01*
X6701253Y-14602716D02*
X6691729Y-14612240D01*
X6691729Y-14612240D02*
X6672682Y-14621764D01*
X6672682Y-14621764D02*
X6653634Y-14621764D01*
X6653634Y-14621764D02*
X6634586Y-14612240D01*
X6634586Y-14612240D02*
X6625063Y-14602716D01*
X6625063Y-14602716D02*
X6615539Y-14583668D01*
X6615539Y-14583668D02*
X6606015Y-14545573D01*
X6606015Y-14545573D02*
X6606015Y-14497954D01*
X6606015Y-14497954D02*
X6615539Y-14459859D01*
X6615539Y-14459859D02*
X6625063Y-14440811D01*
X6625063Y-14440811D02*
X6634586Y-14431288D01*
X6634586Y-14431288D02*
X6653634Y-14421764D01*
X6806015Y-14602716D02*
X6815539Y-14612240D01*
X6815539Y-14612240D02*
X6806015Y-14621764D01*
X6806015Y-14621764D02*
X6796491Y-14612240D01*
X6796491Y-14612240D02*
X6806015Y-14602716D01*
X6806015Y-14602716D02*
X6806015Y-14621764D01*
X6939348Y-14421764D02*
X6958396Y-14421764D01*
X6958396Y-14421764D02*
X6977444Y-14431288D01*
X6977444Y-14431288D02*
X6986967Y-14440811D01*
X6986967Y-14440811D02*
X6996491Y-14459859D01*
X6996491Y-14459859D02*
X7006015Y-14497954D01*
X7006015Y-14497954D02*
X7006015Y-14545573D01*
X7006015Y-14545573D02*
X6996491Y-14583668D01*
X6996491Y-14583668D02*
X6986967Y-14602716D01*
X6986967Y-14602716D02*
X6977444Y-14612240D01*
X6977444Y-14612240D02*
X6958396Y-14621764D01*
X6958396Y-14621764D02*
X6939348Y-14621764D01*
X6939348Y-14621764D02*
X6920301Y-14612240D01*
X6920301Y-14612240D02*
X6910777Y-14602716D01*
X6910777Y-14602716D02*
X6901253Y-14583668D01*
X6901253Y-14583668D02*
X6891729Y-14545573D01*
X6891729Y-14545573D02*
X6891729Y-14497954D01*
X6891729Y-14497954D02*
X6901253Y-14459859D01*
X6901253Y-14459859D02*
X6910777Y-14440811D01*
X6910777Y-14440811D02*
X6920301Y-14431288D01*
X6920301Y-14431288D02*
X6939348Y-14421764D01*
X7072682Y-14421764D02*
X7196491Y-14421764D01*
X7196491Y-14421764D02*
X7129825Y-14497954D01*
X7129825Y-14497954D02*
X7158396Y-14497954D01*
X7158396Y-14497954D02*
X7177444Y-14507478D01*
X7177444Y-14507478D02*
X7186967Y-14517002D01*
X7186967Y-14517002D02*
X7196491Y-14536049D01*
X7196491Y-14536049D02*
X7196491Y-14583668D01*
X7196491Y-14583668D02*
X7186967Y-14602716D01*
X7186967Y-14602716D02*
X7177444Y-14612240D01*
X7177444Y-14612240D02*
X7158396Y-14621764D01*
X7158396Y-14621764D02*
X7101253Y-14621764D01*
X7101253Y-14621764D02*
X7082206Y-14612240D01*
X7082206Y-14612240D02*
X7072682Y-14602716D01*
X7291729Y-14621764D02*
X7329825Y-14621764D01*
X7329825Y-14621764D02*
X7348872Y-14612240D01*
X7348872Y-14612240D02*
X7358396Y-14602716D01*
X7358396Y-14602716D02*
X7377444Y-14574145D01*
X7377444Y-14574145D02*
X7386967Y-14536049D01*
X7386967Y-14536049D02*
X7386967Y-14459859D01*
X7386967Y-14459859D02*
X7377444Y-14440811D01*
X7377444Y-14440811D02*
X7367920Y-14431288D01*
X7367920Y-14431288D02*
X7348872Y-14421764D01*
X7348872Y-14421764D02*
X7310777Y-14421764D01*
X7310777Y-14421764D02*
X7291729Y-14431288D01*
X7291729Y-14431288D02*
X7282206Y-14440811D01*
X7282206Y-14440811D02*
X7272682Y-14459859D01*
X7272682Y-14459859D02*
X7272682Y-14507478D01*
X7272682Y-14507478D02*
X7282206Y-14526526D01*
X7282206Y-14526526D02*
X7291729Y-14536049D01*
X7291729Y-14536049D02*
X7310777Y-14545573D01*
X7310777Y-14545573D02*
X7348872Y-14545573D01*
X7348872Y-14545573D02*
X7367920Y-14536049D01*
X7367920Y-14536049D02*
X7377444Y-14526526D01*
X7377444Y-14526526D02*
X7386967Y-14507478D01*
X7558396Y-14488430D02*
X7558396Y-14621764D01*
X7510777Y-14412240D02*
X7463158Y-14555097D01*
X7463158Y-14555097D02*
X7586967Y-14555097D01*
X7653634Y-14421764D02*
X7653634Y-14459859D01*
X7729825Y-14421764D02*
X7729825Y-14459859D01*
X8025063Y-14697954D02*
X8015539Y-14688430D01*
X8015539Y-14688430D02*
X7996491Y-14659859D01*
X7996491Y-14659859D02*
X7986968Y-14640811D01*
X7986968Y-14640811D02*
X7977444Y-14612240D01*
X7977444Y-14612240D02*
X7967920Y-14564621D01*
X7967920Y-14564621D02*
X7967920Y-14526526D01*
X7967920Y-14526526D02*
X7977444Y-14478907D01*
X7977444Y-14478907D02*
X7986968Y-14450335D01*
X7986968Y-14450335D02*
X7996491Y-14431288D01*
X7996491Y-14431288D02*
X8015539Y-14402716D01*
X8015539Y-14402716D02*
X8025063Y-14393192D01*
X8206015Y-14621764D02*
X8091729Y-14621764D01*
X8148872Y-14621764D02*
X8148872Y-14421764D01*
X8148872Y-14421764D02*
X8129825Y-14450335D01*
X8129825Y-14450335D02*
X8110777Y-14469383D01*
X8110777Y-14469383D02*
X8091729Y-14478907D01*
X8329825Y-14421764D02*
X8348872Y-14421764D01*
X8348872Y-14421764D02*
X8367920Y-14431288D01*
X8367920Y-14431288D02*
X8377444Y-14440811D01*
X8377444Y-14440811D02*
X8386968Y-14459859D01*
X8386968Y-14459859D02*
X8396491Y-14497954D01*
X8396491Y-14497954D02*
X8396491Y-14545573D01*
X8396491Y-14545573D02*
X8386968Y-14583668D01*
X8386968Y-14583668D02*
X8377444Y-14602716D01*
X8377444Y-14602716D02*
X8367920Y-14612240D01*
X8367920Y-14612240D02*
X8348872Y-14621764D01*
X8348872Y-14621764D02*
X8329825Y-14621764D01*
X8329825Y-14621764D02*
X8310777Y-14612240D01*
X8310777Y-14612240D02*
X8301253Y-14602716D01*
X8301253Y-14602716D02*
X8291729Y-14583668D01*
X8291729Y-14583668D02*
X8282206Y-14545573D01*
X8282206Y-14545573D02*
X8282206Y-14497954D01*
X8282206Y-14497954D02*
X8291729Y-14459859D01*
X8291729Y-14459859D02*
X8301253Y-14440811D01*
X8301253Y-14440811D02*
X8310777Y-14431288D01*
X8310777Y-14431288D02*
X8329825Y-14421764D01*
X8520301Y-14421764D02*
X8539349Y-14421764D01*
X8539349Y-14421764D02*
X8558396Y-14431288D01*
X8558396Y-14431288D02*
X8567920Y-14440811D01*
X8567920Y-14440811D02*
X8577444Y-14459859D01*
X8577444Y-14459859D02*
X8586968Y-14497954D01*
X8586968Y-14497954D02*
X8586968Y-14545573D01*
X8586968Y-14545573D02*
X8577444Y-14583668D01*
X8577444Y-14583668D02*
X8567920Y-14602716D01*
X8567920Y-14602716D02*
X8558396Y-14612240D01*
X8558396Y-14612240D02*
X8539349Y-14621764D01*
X8539349Y-14621764D02*
X8520301Y-14621764D01*
X8520301Y-14621764D02*
X8501253Y-14612240D01*
X8501253Y-14612240D02*
X8491730Y-14602716D01*
X8491730Y-14602716D02*
X8482206Y-14583668D01*
X8482206Y-14583668D02*
X8472682Y-14545573D01*
X8472682Y-14545573D02*
X8472682Y-14497954D01*
X8472682Y-14497954D02*
X8482206Y-14459859D01*
X8482206Y-14459859D02*
X8491730Y-14440811D01*
X8491730Y-14440811D02*
X8501253Y-14431288D01*
X8501253Y-14431288D02*
X8520301Y-14421764D01*
X8825063Y-14621764D02*
X8825063Y-14421764D01*
X8910777Y-14621764D02*
X8910777Y-14517002D01*
X8910777Y-14517002D02*
X8901253Y-14497954D01*
X8901253Y-14497954D02*
X8882206Y-14488430D01*
X8882206Y-14488430D02*
X8853634Y-14488430D01*
X8853634Y-14488430D02*
X8834587Y-14497954D01*
X8834587Y-14497954D02*
X8825063Y-14507478D01*
X9034587Y-14621764D02*
X9015539Y-14612240D01*
X9015539Y-14612240D02*
X9006015Y-14602716D01*
X9006015Y-14602716D02*
X8996492Y-14583668D01*
X8996492Y-14583668D02*
X8996492Y-14526526D01*
X8996492Y-14526526D02*
X9006015Y-14507478D01*
X9006015Y-14507478D02*
X9015539Y-14497954D01*
X9015539Y-14497954D02*
X9034587Y-14488430D01*
X9034587Y-14488430D02*
X9063158Y-14488430D01*
X9063158Y-14488430D02*
X9082206Y-14497954D01*
X9082206Y-14497954D02*
X9091730Y-14507478D01*
X9091730Y-14507478D02*
X9101253Y-14526526D01*
X9101253Y-14526526D02*
X9101253Y-14583668D01*
X9101253Y-14583668D02*
X9091730Y-14602716D01*
X9091730Y-14602716D02*
X9082206Y-14612240D01*
X9082206Y-14612240D02*
X9063158Y-14621764D01*
X9063158Y-14621764D02*
X9034587Y-14621764D01*
X9215539Y-14621764D02*
X9196492Y-14612240D01*
X9196492Y-14612240D02*
X9186968Y-14593192D01*
X9186968Y-14593192D02*
X9186968Y-14421764D01*
X9367920Y-14612240D02*
X9348873Y-14621764D01*
X9348873Y-14621764D02*
X9310777Y-14621764D01*
X9310777Y-14621764D02*
X9291730Y-14612240D01*
X9291730Y-14612240D02*
X9282206Y-14593192D01*
X9282206Y-14593192D02*
X9282206Y-14517002D01*
X9282206Y-14517002D02*
X9291730Y-14497954D01*
X9291730Y-14497954D02*
X9310777Y-14488430D01*
X9310777Y-14488430D02*
X9348873Y-14488430D01*
X9348873Y-14488430D02*
X9367920Y-14497954D01*
X9367920Y-14497954D02*
X9377444Y-14517002D01*
X9377444Y-14517002D02*
X9377444Y-14536049D01*
X9377444Y-14536049D02*
X9282206Y-14555097D01*
X9453634Y-14612240D02*
X9472682Y-14621764D01*
X9472682Y-14621764D02*
X9510777Y-14621764D01*
X9510777Y-14621764D02*
X9529825Y-14612240D01*
X9529825Y-14612240D02*
X9539349Y-14593192D01*
X9539349Y-14593192D02*
X9539349Y-14583668D01*
X9539349Y-14583668D02*
X9529825Y-14564621D01*
X9529825Y-14564621D02*
X9510777Y-14555097D01*
X9510777Y-14555097D02*
X9482206Y-14555097D01*
X9482206Y-14555097D02*
X9463158Y-14545573D01*
X9463158Y-14545573D02*
X9453634Y-14526526D01*
X9453634Y-14526526D02*
X9453634Y-14517002D01*
X9453634Y-14517002D02*
X9463158Y-14497954D01*
X9463158Y-14497954D02*
X9482206Y-14488430D01*
X9482206Y-14488430D02*
X9510777Y-14488430D01*
X9510777Y-14488430D02*
X9529825Y-14497954D01*
X9606015Y-14697954D02*
X9615539Y-14688430D01*
X9615539Y-14688430D02*
X9634587Y-14659859D01*
X9634587Y-14659859D02*
X9644111Y-14640811D01*
X9644111Y-14640811D02*
X9653634Y-14612240D01*
X9653634Y-14612240D02*
X9663158Y-14564621D01*
X9663158Y-14564621D02*
X9663158Y-14526526D01*
X9663158Y-14526526D02*
X9653634Y-14478907D01*
X9653634Y-14478907D02*
X9644111Y-14450335D01*
X9644111Y-14450335D02*
X9634587Y-14431288D01*
X9634587Y-14431288D02*
X9615539Y-14402716D01*
X9615539Y-14402716D02*
X9606015Y-14393192D01*
D13*
X4340000Y-14739280D02*
X4450000Y-14849280D01*
X4450000Y-14739280D02*
X4340000Y-14849280D01*
X4395000Y-14739280D02*
X4395000Y-14849280D01*
X4340000Y-14794280D02*
X4450000Y-14794280D01*
D11*
X4815539Y-14885764D02*
X4701253Y-14885764D01*
X4758396Y-14885764D02*
X4758396Y-14685764D01*
X4758396Y-14685764D02*
X4739348Y-14714335D01*
X4739348Y-14714335D02*
X4720301Y-14733383D01*
X4720301Y-14733383D02*
X4701253Y-14742907D01*
X4901253Y-14866716D02*
X4910777Y-14876240D01*
X4910777Y-14876240D02*
X4901253Y-14885764D01*
X4901253Y-14885764D02*
X4891729Y-14876240D01*
X4891729Y-14876240D02*
X4901253Y-14866716D01*
X4901253Y-14866716D02*
X4901253Y-14885764D01*
X5101253Y-14885764D02*
X4986967Y-14885764D01*
X5044110Y-14885764D02*
X5044110Y-14685764D01*
X5044110Y-14685764D02*
X5025063Y-14714335D01*
X5025063Y-14714335D02*
X5006015Y-14733383D01*
X5006015Y-14733383D02*
X4986967Y-14742907D01*
X5225063Y-14685764D02*
X5244110Y-14685764D01*
X5244110Y-14685764D02*
X5263158Y-14695288D01*
X5263158Y-14695288D02*
X5272682Y-14704811D01*
X5272682Y-14704811D02*
X5282205Y-14723859D01*
X5282205Y-14723859D02*
X5291729Y-14761954D01*
X5291729Y-14761954D02*
X5291729Y-14809573D01*
X5291729Y-14809573D02*
X5282205Y-14847668D01*
X5282205Y-14847668D02*
X5272682Y-14866716D01*
X5272682Y-14866716D02*
X5263158Y-14876240D01*
X5263158Y-14876240D02*
X5244110Y-14885764D01*
X5244110Y-14885764D02*
X5225063Y-14885764D01*
X5225063Y-14885764D02*
X5206015Y-14876240D01*
X5206015Y-14876240D02*
X5196491Y-14866716D01*
X5196491Y-14866716D02*
X5186967Y-14847668D01*
X5186967Y-14847668D02*
X5177444Y-14809573D01*
X5177444Y-14809573D02*
X5177444Y-14761954D01*
X5177444Y-14761954D02*
X5186967Y-14723859D01*
X5186967Y-14723859D02*
X5196491Y-14704811D01*
X5196491Y-14704811D02*
X5206015Y-14695288D01*
X5206015Y-14695288D02*
X5225063Y-14685764D01*
X5415539Y-14685764D02*
X5434586Y-14685764D01*
X5434586Y-14685764D02*
X5453634Y-14695288D01*
X5453634Y-14695288D02*
X5463158Y-14704811D01*
X5463158Y-14704811D02*
X5472682Y-14723859D01*
X5472682Y-14723859D02*
X5482205Y-14761954D01*
X5482205Y-14761954D02*
X5482205Y-14809573D01*
X5482205Y-14809573D02*
X5472682Y-14847668D01*
X5472682Y-14847668D02*
X5463158Y-14866716D01*
X5463158Y-14866716D02*
X5453634Y-14876240D01*
X5453634Y-14876240D02*
X5434586Y-14885764D01*
X5434586Y-14885764D02*
X5415539Y-14885764D01*
X5415539Y-14885764D02*
X5396491Y-14876240D01*
X5396491Y-14876240D02*
X5386967Y-14866716D01*
X5386967Y-14866716D02*
X5377444Y-14847668D01*
X5377444Y-14847668D02*
X5367920Y-14809573D01*
X5367920Y-14809573D02*
X5367920Y-14761954D01*
X5367920Y-14761954D02*
X5377444Y-14723859D01*
X5377444Y-14723859D02*
X5386967Y-14704811D01*
X5386967Y-14704811D02*
X5396491Y-14695288D01*
X5396491Y-14695288D02*
X5415539Y-14685764D01*
X5567920Y-14885764D02*
X5567920Y-14752430D01*
X5567920Y-14771478D02*
X5577444Y-14761954D01*
X5577444Y-14761954D02*
X5596491Y-14752430D01*
X5596491Y-14752430D02*
X5625063Y-14752430D01*
X5625063Y-14752430D02*
X5644110Y-14761954D01*
X5644110Y-14761954D02*
X5653634Y-14781002D01*
X5653634Y-14781002D02*
X5653634Y-14885764D01*
X5653634Y-14781002D02*
X5663158Y-14761954D01*
X5663158Y-14761954D02*
X5682205Y-14752430D01*
X5682205Y-14752430D02*
X5710777Y-14752430D01*
X5710777Y-14752430D02*
X5729824Y-14761954D01*
X5729824Y-14761954D02*
X5739348Y-14781002D01*
X5739348Y-14781002D02*
X5739348Y-14885764D01*
X5834586Y-14885764D02*
X5834586Y-14752430D01*
X5834586Y-14771478D02*
X5844110Y-14761954D01*
X5844110Y-14761954D02*
X5863158Y-14752430D01*
X5863158Y-14752430D02*
X5891729Y-14752430D01*
X5891729Y-14752430D02*
X5910777Y-14761954D01*
X5910777Y-14761954D02*
X5920301Y-14781002D01*
X5920301Y-14781002D02*
X5920301Y-14885764D01*
X5920301Y-14781002D02*
X5929824Y-14761954D01*
X5929824Y-14761954D02*
X5948872Y-14752430D01*
X5948872Y-14752430D02*
X5977443Y-14752430D01*
X5977443Y-14752430D02*
X5996491Y-14761954D01*
X5996491Y-14761954D02*
X6006015Y-14781002D01*
X6006015Y-14781002D02*
X6006015Y-14885764D01*
X6396491Y-14676240D02*
X6225063Y-14933383D01*
X6653634Y-14685764D02*
X6672682Y-14685764D01*
X6672682Y-14685764D02*
X6691729Y-14695288D01*
X6691729Y-14695288D02*
X6701253Y-14704811D01*
X6701253Y-14704811D02*
X6710777Y-14723859D01*
X6710777Y-14723859D02*
X6720301Y-14761954D01*
X6720301Y-14761954D02*
X6720301Y-14809573D01*
X6720301Y-14809573D02*
X6710777Y-14847668D01*
X6710777Y-14847668D02*
X6701253Y-14866716D01*
X6701253Y-14866716D02*
X6691729Y-14876240D01*
X6691729Y-14876240D02*
X6672682Y-14885764D01*
X6672682Y-14885764D02*
X6653634Y-14885764D01*
X6653634Y-14885764D02*
X6634586Y-14876240D01*
X6634586Y-14876240D02*
X6625063Y-14866716D01*
X6625063Y-14866716D02*
X6615539Y-14847668D01*
X6615539Y-14847668D02*
X6606015Y-14809573D01*
X6606015Y-14809573D02*
X6606015Y-14761954D01*
X6606015Y-14761954D02*
X6615539Y-14723859D01*
X6615539Y-14723859D02*
X6625063Y-14704811D01*
X6625063Y-14704811D02*
X6634586Y-14695288D01*
X6634586Y-14695288D02*
X6653634Y-14685764D01*
X6806015Y-14866716D02*
X6815539Y-14876240D01*
X6815539Y-14876240D02*
X6806015Y-14885764D01*
X6806015Y-14885764D02*
X6796491Y-14876240D01*
X6796491Y-14876240D02*
X6806015Y-14866716D01*
X6806015Y-14866716D02*
X6806015Y-14885764D01*
X6939348Y-14685764D02*
X6958396Y-14685764D01*
X6958396Y-14685764D02*
X6977444Y-14695288D01*
X6977444Y-14695288D02*
X6986967Y-14704811D01*
X6986967Y-14704811D02*
X6996491Y-14723859D01*
X6996491Y-14723859D02*
X7006015Y-14761954D01*
X7006015Y-14761954D02*
X7006015Y-14809573D01*
X7006015Y-14809573D02*
X6996491Y-14847668D01*
X6996491Y-14847668D02*
X6986967Y-14866716D01*
X6986967Y-14866716D02*
X6977444Y-14876240D01*
X6977444Y-14876240D02*
X6958396Y-14885764D01*
X6958396Y-14885764D02*
X6939348Y-14885764D01*
X6939348Y-14885764D02*
X6920301Y-14876240D01*
X6920301Y-14876240D02*
X6910777Y-14866716D01*
X6910777Y-14866716D02*
X6901253Y-14847668D01*
X6901253Y-14847668D02*
X6891729Y-14809573D01*
X6891729Y-14809573D02*
X6891729Y-14761954D01*
X6891729Y-14761954D02*
X6901253Y-14723859D01*
X6901253Y-14723859D02*
X6910777Y-14704811D01*
X6910777Y-14704811D02*
X6920301Y-14695288D01*
X6920301Y-14695288D02*
X6939348Y-14685764D01*
X7177444Y-14752430D02*
X7177444Y-14885764D01*
X7129825Y-14676240D02*
X7082206Y-14819097D01*
X7082206Y-14819097D02*
X7206015Y-14819097D01*
X7263158Y-14685764D02*
X7386967Y-14685764D01*
X7386967Y-14685764D02*
X7320301Y-14761954D01*
X7320301Y-14761954D02*
X7348872Y-14761954D01*
X7348872Y-14761954D02*
X7367920Y-14771478D01*
X7367920Y-14771478D02*
X7377444Y-14781002D01*
X7377444Y-14781002D02*
X7386967Y-14800049D01*
X7386967Y-14800049D02*
X7386967Y-14847668D01*
X7386967Y-14847668D02*
X7377444Y-14866716D01*
X7377444Y-14866716D02*
X7367920Y-14876240D01*
X7367920Y-14876240D02*
X7348872Y-14885764D01*
X7348872Y-14885764D02*
X7291729Y-14885764D01*
X7291729Y-14885764D02*
X7272682Y-14876240D01*
X7272682Y-14876240D02*
X7263158Y-14866716D01*
X7453634Y-14685764D02*
X7577444Y-14685764D01*
X7577444Y-14685764D02*
X7510777Y-14761954D01*
X7510777Y-14761954D02*
X7539348Y-14761954D01*
X7539348Y-14761954D02*
X7558396Y-14771478D01*
X7558396Y-14771478D02*
X7567920Y-14781002D01*
X7567920Y-14781002D02*
X7577444Y-14800049D01*
X7577444Y-14800049D02*
X7577444Y-14847668D01*
X7577444Y-14847668D02*
X7567920Y-14866716D01*
X7567920Y-14866716D02*
X7558396Y-14876240D01*
X7558396Y-14876240D02*
X7539348Y-14885764D01*
X7539348Y-14885764D02*
X7482206Y-14885764D01*
X7482206Y-14885764D02*
X7463158Y-14876240D01*
X7463158Y-14876240D02*
X7453634Y-14866716D01*
X7653634Y-14685764D02*
X7653634Y-14723859D01*
X7729825Y-14685764D02*
X7729825Y-14723859D01*
X8025063Y-14961954D02*
X8015539Y-14952430D01*
X8015539Y-14952430D02*
X7996491Y-14923859D01*
X7996491Y-14923859D02*
X7986968Y-14904811D01*
X7986968Y-14904811D02*
X7977444Y-14876240D01*
X7977444Y-14876240D02*
X7967920Y-14828621D01*
X7967920Y-14828621D02*
X7967920Y-14790526D01*
X7967920Y-14790526D02*
X7977444Y-14742907D01*
X7977444Y-14742907D02*
X7986968Y-14714335D01*
X7986968Y-14714335D02*
X7996491Y-14695288D01*
X7996491Y-14695288D02*
X8015539Y-14666716D01*
X8015539Y-14666716D02*
X8025063Y-14657192D01*
X8206015Y-14885764D02*
X8091729Y-14885764D01*
X8148872Y-14885764D02*
X8148872Y-14685764D01*
X8148872Y-14685764D02*
X8129825Y-14714335D01*
X8129825Y-14714335D02*
X8110777Y-14733383D01*
X8110777Y-14733383D02*
X8091729Y-14742907D01*
X8282206Y-14704811D02*
X8291729Y-14695288D01*
X8291729Y-14695288D02*
X8310777Y-14685764D01*
X8310777Y-14685764D02*
X8358396Y-14685764D01*
X8358396Y-14685764D02*
X8377444Y-14695288D01*
X8377444Y-14695288D02*
X8386968Y-14704811D01*
X8386968Y-14704811D02*
X8396491Y-14723859D01*
X8396491Y-14723859D02*
X8396491Y-14742907D01*
X8396491Y-14742907D02*
X8386968Y-14771478D01*
X8386968Y-14771478D02*
X8272682Y-14885764D01*
X8272682Y-14885764D02*
X8396491Y-14885764D01*
X8634587Y-14885764D02*
X8634587Y-14685764D01*
X8720301Y-14885764D02*
X8720301Y-14781002D01*
X8720301Y-14781002D02*
X8710777Y-14761954D01*
X8710777Y-14761954D02*
X8691730Y-14752430D01*
X8691730Y-14752430D02*
X8663158Y-14752430D01*
X8663158Y-14752430D02*
X8644111Y-14761954D01*
X8644111Y-14761954D02*
X8634587Y-14771478D01*
X8844111Y-14885764D02*
X8825063Y-14876240D01*
X8825063Y-14876240D02*
X8815539Y-14866716D01*
X8815539Y-14866716D02*
X8806015Y-14847668D01*
X8806015Y-14847668D02*
X8806015Y-14790526D01*
X8806015Y-14790526D02*
X8815539Y-14771478D01*
X8815539Y-14771478D02*
X8825063Y-14761954D01*
X8825063Y-14761954D02*
X8844111Y-14752430D01*
X8844111Y-14752430D02*
X8872682Y-14752430D01*
X8872682Y-14752430D02*
X8891730Y-14761954D01*
X8891730Y-14761954D02*
X8901253Y-14771478D01*
X8901253Y-14771478D02*
X8910777Y-14790526D01*
X8910777Y-14790526D02*
X8910777Y-14847668D01*
X8910777Y-14847668D02*
X8901253Y-14866716D01*
X8901253Y-14866716D02*
X8891730Y-14876240D01*
X8891730Y-14876240D02*
X8872682Y-14885764D01*
X8872682Y-14885764D02*
X8844111Y-14885764D01*
X9025063Y-14885764D02*
X9006015Y-14876240D01*
X9006015Y-14876240D02*
X8996492Y-14857192D01*
X8996492Y-14857192D02*
X8996492Y-14685764D01*
X9177444Y-14876240D02*
X9158396Y-14885764D01*
X9158396Y-14885764D02*
X9120301Y-14885764D01*
X9120301Y-14885764D02*
X9101253Y-14876240D01*
X9101253Y-14876240D02*
X9091730Y-14857192D01*
X9091730Y-14857192D02*
X9091730Y-14781002D01*
X9091730Y-14781002D02*
X9101253Y-14761954D01*
X9101253Y-14761954D02*
X9120301Y-14752430D01*
X9120301Y-14752430D02*
X9158396Y-14752430D01*
X9158396Y-14752430D02*
X9177444Y-14761954D01*
X9177444Y-14761954D02*
X9186968Y-14781002D01*
X9186968Y-14781002D02*
X9186968Y-14800049D01*
X9186968Y-14800049D02*
X9091730Y-14819097D01*
X9263158Y-14876240D02*
X9282206Y-14885764D01*
X9282206Y-14885764D02*
X9320301Y-14885764D01*
X9320301Y-14885764D02*
X9339349Y-14876240D01*
X9339349Y-14876240D02*
X9348873Y-14857192D01*
X9348873Y-14857192D02*
X9348873Y-14847668D01*
X9348873Y-14847668D02*
X9339349Y-14828621D01*
X9339349Y-14828621D02*
X9320301Y-14819097D01*
X9320301Y-14819097D02*
X9291730Y-14819097D01*
X9291730Y-14819097D02*
X9272682Y-14809573D01*
X9272682Y-14809573D02*
X9263158Y-14790526D01*
X9263158Y-14790526D02*
X9263158Y-14781002D01*
X9263158Y-14781002D02*
X9272682Y-14761954D01*
X9272682Y-14761954D02*
X9291730Y-14752430D01*
X9291730Y-14752430D02*
X9320301Y-14752430D01*
X9320301Y-14752430D02*
X9339349Y-14761954D01*
X9415539Y-14961954D02*
X9425063Y-14952430D01*
X9425063Y-14952430D02*
X9444111Y-14923859D01*
X9444111Y-14923859D02*
X9453634Y-14904811D01*
X9453634Y-14904811D02*
X9463158Y-14876240D01*
X9463158Y-14876240D02*
X9472682Y-14828621D01*
X9472682Y-14828621D02*
X9472682Y-14790526D01*
X9472682Y-14790526D02*
X9463158Y-14742907D01*
X9463158Y-14742907D02*
X9453634Y-14714335D01*
X9453634Y-14714335D02*
X9444111Y-14695288D01*
X9444111Y-14695288D02*
X9425063Y-14666716D01*
X9425063Y-14666716D02*
X9415539Y-14657192D01*
D14*
X4330000Y-14998280D02*
X4450000Y-15118280D01*
X4450000Y-14998280D02*
X4330000Y-15118280D01*
X4432427Y-15100707D02*
X4432427Y-15015853D01*
X4347573Y-15015853D01*
X4347573Y-15100707D01*
X4432427Y-15100707D01*
D11*
X4815539Y-15149764D02*
X4701253Y-15149764D01*
X4758396Y-15149764D02*
X4758396Y-14949764D01*
X4758396Y-14949764D02*
X4739348Y-14978335D01*
X4739348Y-14978335D02*
X4720301Y-14997383D01*
X4720301Y-14997383D02*
X4701253Y-15006907D01*
X4901253Y-15130716D02*
X4910777Y-15140240D01*
X4910777Y-15140240D02*
X4901253Y-15149764D01*
X4901253Y-15149764D02*
X4891729Y-15140240D01*
X4891729Y-15140240D02*
X4901253Y-15130716D01*
X4901253Y-15130716D02*
X4901253Y-15149764D01*
X4986967Y-14968811D02*
X4996491Y-14959288D01*
X4996491Y-14959288D02*
X5015539Y-14949764D01*
X5015539Y-14949764D02*
X5063158Y-14949764D01*
X5063158Y-14949764D02*
X5082205Y-14959288D01*
X5082205Y-14959288D02*
X5091729Y-14968811D01*
X5091729Y-14968811D02*
X5101253Y-14987859D01*
X5101253Y-14987859D02*
X5101253Y-15006907D01*
X5101253Y-15006907D02*
X5091729Y-15035478D01*
X5091729Y-15035478D02*
X4977444Y-15149764D01*
X4977444Y-15149764D02*
X5101253Y-15149764D01*
X5225063Y-14949764D02*
X5244110Y-14949764D01*
X5244110Y-14949764D02*
X5263158Y-14959288D01*
X5263158Y-14959288D02*
X5272682Y-14968811D01*
X5272682Y-14968811D02*
X5282205Y-14987859D01*
X5282205Y-14987859D02*
X5291729Y-15025954D01*
X5291729Y-15025954D02*
X5291729Y-15073573D01*
X5291729Y-15073573D02*
X5282205Y-15111668D01*
X5282205Y-15111668D02*
X5272682Y-15130716D01*
X5272682Y-15130716D02*
X5263158Y-15140240D01*
X5263158Y-15140240D02*
X5244110Y-15149764D01*
X5244110Y-15149764D02*
X5225063Y-15149764D01*
X5225063Y-15149764D02*
X5206015Y-15140240D01*
X5206015Y-15140240D02*
X5196491Y-15130716D01*
X5196491Y-15130716D02*
X5186967Y-15111668D01*
X5186967Y-15111668D02*
X5177444Y-15073573D01*
X5177444Y-15073573D02*
X5177444Y-15025954D01*
X5177444Y-15025954D02*
X5186967Y-14987859D01*
X5186967Y-14987859D02*
X5196491Y-14968811D01*
X5196491Y-14968811D02*
X5206015Y-14959288D01*
X5206015Y-14959288D02*
X5225063Y-14949764D01*
X5415539Y-14949764D02*
X5434586Y-14949764D01*
X5434586Y-14949764D02*
X5453634Y-14959288D01*
X5453634Y-14959288D02*
X5463158Y-14968811D01*
X5463158Y-14968811D02*
X5472682Y-14987859D01*
X5472682Y-14987859D02*
X5482205Y-15025954D01*
X5482205Y-15025954D02*
X5482205Y-15073573D01*
X5482205Y-15073573D02*
X5472682Y-15111668D01*
X5472682Y-15111668D02*
X5463158Y-15130716D01*
X5463158Y-15130716D02*
X5453634Y-15140240D01*
X5453634Y-15140240D02*
X5434586Y-15149764D01*
X5434586Y-15149764D02*
X5415539Y-15149764D01*
X5415539Y-15149764D02*
X5396491Y-15140240D01*
X5396491Y-15140240D02*
X5386967Y-15130716D01*
X5386967Y-15130716D02*
X5377444Y-15111668D01*
X5377444Y-15111668D02*
X5367920Y-15073573D01*
X5367920Y-15073573D02*
X5367920Y-15025954D01*
X5367920Y-15025954D02*
X5377444Y-14987859D01*
X5377444Y-14987859D02*
X5386967Y-14968811D01*
X5386967Y-14968811D02*
X5396491Y-14959288D01*
X5396491Y-14959288D02*
X5415539Y-14949764D01*
X5567920Y-15149764D02*
X5567920Y-15016430D01*
X5567920Y-15035478D02*
X5577444Y-15025954D01*
X5577444Y-15025954D02*
X5596491Y-15016430D01*
X5596491Y-15016430D02*
X5625063Y-15016430D01*
X5625063Y-15016430D02*
X5644110Y-15025954D01*
X5644110Y-15025954D02*
X5653634Y-15045002D01*
X5653634Y-15045002D02*
X5653634Y-15149764D01*
X5653634Y-15045002D02*
X5663158Y-15025954D01*
X5663158Y-15025954D02*
X5682205Y-15016430D01*
X5682205Y-15016430D02*
X5710777Y-15016430D01*
X5710777Y-15016430D02*
X5729824Y-15025954D01*
X5729824Y-15025954D02*
X5739348Y-15045002D01*
X5739348Y-15045002D02*
X5739348Y-15149764D01*
X5834586Y-15149764D02*
X5834586Y-15016430D01*
X5834586Y-15035478D02*
X5844110Y-15025954D01*
X5844110Y-15025954D02*
X5863158Y-15016430D01*
X5863158Y-15016430D02*
X5891729Y-15016430D01*
X5891729Y-15016430D02*
X5910777Y-15025954D01*
X5910777Y-15025954D02*
X5920301Y-15045002D01*
X5920301Y-15045002D02*
X5920301Y-15149764D01*
X5920301Y-15045002D02*
X5929824Y-15025954D01*
X5929824Y-15025954D02*
X5948872Y-15016430D01*
X5948872Y-15016430D02*
X5977443Y-15016430D01*
X5977443Y-15016430D02*
X5996491Y-15025954D01*
X5996491Y-15025954D02*
X6006015Y-15045002D01*
X6006015Y-15045002D02*
X6006015Y-15149764D01*
X6396491Y-14940240D02*
X6225063Y-15197383D01*
X6653634Y-14949764D02*
X6672682Y-14949764D01*
X6672682Y-14949764D02*
X6691729Y-14959288D01*
X6691729Y-14959288D02*
X6701253Y-14968811D01*
X6701253Y-14968811D02*
X6710777Y-14987859D01*
X6710777Y-14987859D02*
X6720301Y-15025954D01*
X6720301Y-15025954D02*
X6720301Y-15073573D01*
X6720301Y-15073573D02*
X6710777Y-15111668D01*
X6710777Y-15111668D02*
X6701253Y-15130716D01*
X6701253Y-15130716D02*
X6691729Y-15140240D01*
X6691729Y-15140240D02*
X6672682Y-15149764D01*
X6672682Y-15149764D02*
X6653634Y-15149764D01*
X6653634Y-15149764D02*
X6634586Y-15140240D01*
X6634586Y-15140240D02*
X6625063Y-15130716D01*
X6625063Y-15130716D02*
X6615539Y-15111668D01*
X6615539Y-15111668D02*
X6606015Y-15073573D01*
X6606015Y-15073573D02*
X6606015Y-15025954D01*
X6606015Y-15025954D02*
X6615539Y-14987859D01*
X6615539Y-14987859D02*
X6625063Y-14968811D01*
X6625063Y-14968811D02*
X6634586Y-14959288D01*
X6634586Y-14959288D02*
X6653634Y-14949764D01*
X6806015Y-15130716D02*
X6815539Y-15140240D01*
X6815539Y-15140240D02*
X6806015Y-15149764D01*
X6806015Y-15149764D02*
X6796491Y-15140240D01*
X6796491Y-15140240D02*
X6806015Y-15130716D01*
X6806015Y-15130716D02*
X6806015Y-15149764D01*
X6939348Y-14949764D02*
X6958396Y-14949764D01*
X6958396Y-14949764D02*
X6977444Y-14959288D01*
X6977444Y-14959288D02*
X6986967Y-14968811D01*
X6986967Y-14968811D02*
X6996491Y-14987859D01*
X6996491Y-14987859D02*
X7006015Y-15025954D01*
X7006015Y-15025954D02*
X7006015Y-15073573D01*
X7006015Y-15073573D02*
X6996491Y-15111668D01*
X6996491Y-15111668D02*
X6986967Y-15130716D01*
X6986967Y-15130716D02*
X6977444Y-15140240D01*
X6977444Y-15140240D02*
X6958396Y-15149764D01*
X6958396Y-15149764D02*
X6939348Y-15149764D01*
X6939348Y-15149764D02*
X6920301Y-15140240D01*
X6920301Y-15140240D02*
X6910777Y-15130716D01*
X6910777Y-15130716D02*
X6901253Y-15111668D01*
X6901253Y-15111668D02*
X6891729Y-15073573D01*
X6891729Y-15073573D02*
X6891729Y-15025954D01*
X6891729Y-15025954D02*
X6901253Y-14987859D01*
X6901253Y-14987859D02*
X6910777Y-14968811D01*
X6910777Y-14968811D02*
X6920301Y-14959288D01*
X6920301Y-14959288D02*
X6939348Y-14949764D01*
X7177444Y-15016430D02*
X7177444Y-15149764D01*
X7129825Y-14940240D02*
X7082206Y-15083097D01*
X7082206Y-15083097D02*
X7206015Y-15083097D01*
X7263158Y-14949764D02*
X7396491Y-14949764D01*
X7396491Y-14949764D02*
X7310777Y-15149764D01*
X7463158Y-14968811D02*
X7472682Y-14959288D01*
X7472682Y-14959288D02*
X7491729Y-14949764D01*
X7491729Y-14949764D02*
X7539348Y-14949764D01*
X7539348Y-14949764D02*
X7558396Y-14959288D01*
X7558396Y-14959288D02*
X7567920Y-14968811D01*
X7567920Y-14968811D02*
X7577444Y-14987859D01*
X7577444Y-14987859D02*
X7577444Y-15006907D01*
X7577444Y-15006907D02*
X7567920Y-15035478D01*
X7567920Y-15035478D02*
X7453634Y-15149764D01*
X7453634Y-15149764D02*
X7577444Y-15149764D01*
X7653634Y-14949764D02*
X7653634Y-14987859D01*
X7729825Y-14949764D02*
X7729825Y-14987859D01*
X8025063Y-15225954D02*
X8015539Y-15216430D01*
X8015539Y-15216430D02*
X7996491Y-15187859D01*
X7996491Y-15187859D02*
X7986968Y-15168811D01*
X7986968Y-15168811D02*
X7977444Y-15140240D01*
X7977444Y-15140240D02*
X7967920Y-15092621D01*
X7967920Y-15092621D02*
X7967920Y-15054526D01*
X7967920Y-15054526D02*
X7977444Y-15006907D01*
X7977444Y-15006907D02*
X7986968Y-14978335D01*
X7986968Y-14978335D02*
X7996491Y-14959288D01*
X7996491Y-14959288D02*
X8015539Y-14930716D01*
X8015539Y-14930716D02*
X8025063Y-14921192D01*
X8206015Y-15149764D02*
X8091729Y-15149764D01*
X8148872Y-15149764D02*
X8148872Y-14949764D01*
X8148872Y-14949764D02*
X8129825Y-14978335D01*
X8129825Y-14978335D02*
X8110777Y-14997383D01*
X8110777Y-14997383D02*
X8091729Y-15006907D01*
X8329825Y-14949764D02*
X8348872Y-14949764D01*
X8348872Y-14949764D02*
X8367920Y-14959288D01*
X8367920Y-14959288D02*
X8377444Y-14968811D01*
X8377444Y-14968811D02*
X8386968Y-14987859D01*
X8386968Y-14987859D02*
X8396491Y-15025954D01*
X8396491Y-15025954D02*
X8396491Y-15073573D01*
X8396491Y-15073573D02*
X8386968Y-15111668D01*
X8386968Y-15111668D02*
X8377444Y-15130716D01*
X8377444Y-15130716D02*
X8367920Y-15140240D01*
X8367920Y-15140240D02*
X8348872Y-15149764D01*
X8348872Y-15149764D02*
X8329825Y-15149764D01*
X8329825Y-15149764D02*
X8310777Y-15140240D01*
X8310777Y-15140240D02*
X8301253Y-15130716D01*
X8301253Y-15130716D02*
X8291729Y-15111668D01*
X8291729Y-15111668D02*
X8282206Y-15073573D01*
X8282206Y-15073573D02*
X8282206Y-15025954D01*
X8282206Y-15025954D02*
X8291729Y-14987859D01*
X8291729Y-14987859D02*
X8301253Y-14968811D01*
X8301253Y-14968811D02*
X8310777Y-14959288D01*
X8310777Y-14959288D02*
X8329825Y-14949764D01*
X8634587Y-15149764D02*
X8634587Y-14949764D01*
X8720301Y-15149764D02*
X8720301Y-15045002D01*
X8720301Y-15045002D02*
X8710777Y-15025954D01*
X8710777Y-15025954D02*
X8691730Y-15016430D01*
X8691730Y-15016430D02*
X8663158Y-15016430D01*
X8663158Y-15016430D02*
X8644111Y-15025954D01*
X8644111Y-15025954D02*
X8634587Y-15035478D01*
X8844111Y-15149764D02*
X8825063Y-15140240D01*
X8825063Y-15140240D02*
X8815539Y-15130716D01*
X8815539Y-15130716D02*
X8806015Y-15111668D01*
X8806015Y-15111668D02*
X8806015Y-15054526D01*
X8806015Y-15054526D02*
X8815539Y-15035478D01*
X8815539Y-15035478D02*
X8825063Y-15025954D01*
X8825063Y-15025954D02*
X8844111Y-15016430D01*
X8844111Y-15016430D02*
X8872682Y-15016430D01*
X8872682Y-15016430D02*
X8891730Y-15025954D01*
X8891730Y-15025954D02*
X8901253Y-15035478D01*
X8901253Y-15035478D02*
X8910777Y-15054526D01*
X8910777Y-15054526D02*
X8910777Y-15111668D01*
X8910777Y-15111668D02*
X8901253Y-15130716D01*
X8901253Y-15130716D02*
X8891730Y-15140240D01*
X8891730Y-15140240D02*
X8872682Y-15149764D01*
X8872682Y-15149764D02*
X8844111Y-15149764D01*
X9025063Y-15149764D02*
X9006015Y-15140240D01*
X9006015Y-15140240D02*
X8996492Y-15121192D01*
X8996492Y-15121192D02*
X8996492Y-14949764D01*
X9177444Y-15140240D02*
X9158396Y-15149764D01*
X9158396Y-15149764D02*
X9120301Y-15149764D01*
X9120301Y-15149764D02*
X9101253Y-15140240D01*
X9101253Y-15140240D02*
X9091730Y-15121192D01*
X9091730Y-15121192D02*
X9091730Y-15045002D01*
X9091730Y-15045002D02*
X9101253Y-15025954D01*
X9101253Y-15025954D02*
X9120301Y-15016430D01*
X9120301Y-15016430D02*
X9158396Y-15016430D01*
X9158396Y-15016430D02*
X9177444Y-15025954D01*
X9177444Y-15025954D02*
X9186968Y-15045002D01*
X9186968Y-15045002D02*
X9186968Y-15064049D01*
X9186968Y-15064049D02*
X9091730Y-15083097D01*
X9263158Y-15140240D02*
X9282206Y-15149764D01*
X9282206Y-15149764D02*
X9320301Y-15149764D01*
X9320301Y-15149764D02*
X9339349Y-15140240D01*
X9339349Y-15140240D02*
X9348873Y-15121192D01*
X9348873Y-15121192D02*
X9348873Y-15111668D01*
X9348873Y-15111668D02*
X9339349Y-15092621D01*
X9339349Y-15092621D02*
X9320301Y-15083097D01*
X9320301Y-15083097D02*
X9291730Y-15083097D01*
X9291730Y-15083097D02*
X9272682Y-15073573D01*
X9272682Y-15073573D02*
X9263158Y-15054526D01*
X9263158Y-15054526D02*
X9263158Y-15045002D01*
X9263158Y-15045002D02*
X9272682Y-15025954D01*
X9272682Y-15025954D02*
X9291730Y-15016430D01*
X9291730Y-15016430D02*
X9320301Y-15016430D01*
X9320301Y-15016430D02*
X9339349Y-15025954D01*
X9415539Y-15225954D02*
X9425063Y-15216430D01*
X9425063Y-15216430D02*
X9444111Y-15187859D01*
X9444111Y-15187859D02*
X9453634Y-15168811D01*
X9453634Y-15168811D02*
X9463158Y-15140240D01*
X9463158Y-15140240D02*
X9472682Y-15092621D01*
X9472682Y-15092621D02*
X9472682Y-15054526D01*
X9472682Y-15054526D02*
X9463158Y-15006907D01*
X9463158Y-15006907D02*
X9453634Y-14978335D01*
X9453634Y-14978335D02*
X9444111Y-14959288D01*
X9444111Y-14959288D02*
X9425063Y-14930716D01*
X9425063Y-14930716D02*
X9415539Y-14921192D01*
D15*
X4325540Y-15260050D02*
X4450000Y-15384510D01*
X4450000Y-15260050D02*
X4325540Y-15384510D01*
X4387770Y-15384510D02*
X4450000Y-15322280D01*
X4387770Y-15260050D01*
X4325540Y-15322280D01*
X4387770Y-15384510D01*
D11*
X4815539Y-15413764D02*
X4701253Y-15413764D01*
X4758396Y-15413764D02*
X4758396Y-15213764D01*
X4758396Y-15213764D02*
X4739348Y-15242335D01*
X4739348Y-15242335D02*
X4720301Y-15261383D01*
X4720301Y-15261383D02*
X4701253Y-15270907D01*
X4901253Y-15394716D02*
X4910777Y-15404240D01*
X4910777Y-15404240D02*
X4901253Y-15413764D01*
X4901253Y-15413764D02*
X4891729Y-15404240D01*
X4891729Y-15404240D02*
X4901253Y-15394716D01*
X4901253Y-15394716D02*
X4901253Y-15413764D01*
X4986967Y-15232811D02*
X4996491Y-15223288D01*
X4996491Y-15223288D02*
X5015539Y-15213764D01*
X5015539Y-15213764D02*
X5063158Y-15213764D01*
X5063158Y-15213764D02*
X5082205Y-15223288D01*
X5082205Y-15223288D02*
X5091729Y-15232811D01*
X5091729Y-15232811D02*
X5101253Y-15251859D01*
X5101253Y-15251859D02*
X5101253Y-15270907D01*
X5101253Y-15270907D02*
X5091729Y-15299478D01*
X5091729Y-15299478D02*
X4977444Y-15413764D01*
X4977444Y-15413764D02*
X5101253Y-15413764D01*
X5272682Y-15280430D02*
X5272682Y-15413764D01*
X5225063Y-15204240D02*
X5177444Y-15347097D01*
X5177444Y-15347097D02*
X5301253Y-15347097D01*
X5472682Y-15213764D02*
X5377444Y-15213764D01*
X5377444Y-15213764D02*
X5367920Y-15309002D01*
X5367920Y-15309002D02*
X5377444Y-15299478D01*
X5377444Y-15299478D02*
X5396491Y-15289954D01*
X5396491Y-15289954D02*
X5444110Y-15289954D01*
X5444110Y-15289954D02*
X5463158Y-15299478D01*
X5463158Y-15299478D02*
X5472682Y-15309002D01*
X5472682Y-15309002D02*
X5482205Y-15328049D01*
X5482205Y-15328049D02*
X5482205Y-15375668D01*
X5482205Y-15375668D02*
X5472682Y-15394716D01*
X5472682Y-15394716D02*
X5463158Y-15404240D01*
X5463158Y-15404240D02*
X5444110Y-15413764D01*
X5444110Y-15413764D02*
X5396491Y-15413764D01*
X5396491Y-15413764D02*
X5377444Y-15404240D01*
X5377444Y-15404240D02*
X5367920Y-15394716D01*
X5567920Y-15413764D02*
X5567920Y-15280430D01*
X5567920Y-15299478D02*
X5577444Y-15289954D01*
X5577444Y-15289954D02*
X5596491Y-15280430D01*
X5596491Y-15280430D02*
X5625063Y-15280430D01*
X5625063Y-15280430D02*
X5644110Y-15289954D01*
X5644110Y-15289954D02*
X5653634Y-15309002D01*
X5653634Y-15309002D02*
X5653634Y-15413764D01*
X5653634Y-15309002D02*
X5663158Y-15289954D01*
X5663158Y-15289954D02*
X5682205Y-15280430D01*
X5682205Y-15280430D02*
X5710777Y-15280430D01*
X5710777Y-15280430D02*
X5729824Y-15289954D01*
X5729824Y-15289954D02*
X5739348Y-15309002D01*
X5739348Y-15309002D02*
X5739348Y-15413764D01*
X5834586Y-15413764D02*
X5834586Y-15280430D01*
X5834586Y-15299478D02*
X5844110Y-15289954D01*
X5844110Y-15289954D02*
X5863158Y-15280430D01*
X5863158Y-15280430D02*
X5891729Y-15280430D01*
X5891729Y-15280430D02*
X5910777Y-15289954D01*
X5910777Y-15289954D02*
X5920301Y-15309002D01*
X5920301Y-15309002D02*
X5920301Y-15413764D01*
X5920301Y-15309002D02*
X5929824Y-15289954D01*
X5929824Y-15289954D02*
X5948872Y-15280430D01*
X5948872Y-15280430D02*
X5977443Y-15280430D01*
X5977443Y-15280430D02*
X5996491Y-15289954D01*
X5996491Y-15289954D02*
X6006015Y-15309002D01*
X6006015Y-15309002D02*
X6006015Y-15413764D01*
X6396491Y-15204240D02*
X6225063Y-15461383D01*
X6653634Y-15213764D02*
X6672682Y-15213764D01*
X6672682Y-15213764D02*
X6691729Y-15223288D01*
X6691729Y-15223288D02*
X6701253Y-15232811D01*
X6701253Y-15232811D02*
X6710777Y-15251859D01*
X6710777Y-15251859D02*
X6720301Y-15289954D01*
X6720301Y-15289954D02*
X6720301Y-15337573D01*
X6720301Y-15337573D02*
X6710777Y-15375668D01*
X6710777Y-15375668D02*
X6701253Y-15394716D01*
X6701253Y-15394716D02*
X6691729Y-15404240D01*
X6691729Y-15404240D02*
X6672682Y-15413764D01*
X6672682Y-15413764D02*
X6653634Y-15413764D01*
X6653634Y-15413764D02*
X6634586Y-15404240D01*
X6634586Y-15404240D02*
X6625063Y-15394716D01*
X6625063Y-15394716D02*
X6615539Y-15375668D01*
X6615539Y-15375668D02*
X6606015Y-15337573D01*
X6606015Y-15337573D02*
X6606015Y-15289954D01*
X6606015Y-15289954D02*
X6615539Y-15251859D01*
X6615539Y-15251859D02*
X6625063Y-15232811D01*
X6625063Y-15232811D02*
X6634586Y-15223288D01*
X6634586Y-15223288D02*
X6653634Y-15213764D01*
X6806015Y-15394716D02*
X6815539Y-15404240D01*
X6815539Y-15404240D02*
X6806015Y-15413764D01*
X6806015Y-15413764D02*
X6796491Y-15404240D01*
X6796491Y-15404240D02*
X6806015Y-15394716D01*
X6806015Y-15394716D02*
X6806015Y-15413764D01*
X6939348Y-15213764D02*
X6958396Y-15213764D01*
X6958396Y-15213764D02*
X6977444Y-15223288D01*
X6977444Y-15223288D02*
X6986967Y-15232811D01*
X6986967Y-15232811D02*
X6996491Y-15251859D01*
X6996491Y-15251859D02*
X7006015Y-15289954D01*
X7006015Y-15289954D02*
X7006015Y-15337573D01*
X7006015Y-15337573D02*
X6996491Y-15375668D01*
X6996491Y-15375668D02*
X6986967Y-15394716D01*
X6986967Y-15394716D02*
X6977444Y-15404240D01*
X6977444Y-15404240D02*
X6958396Y-15413764D01*
X6958396Y-15413764D02*
X6939348Y-15413764D01*
X6939348Y-15413764D02*
X6920301Y-15404240D01*
X6920301Y-15404240D02*
X6910777Y-15394716D01*
X6910777Y-15394716D02*
X6901253Y-15375668D01*
X6901253Y-15375668D02*
X6891729Y-15337573D01*
X6891729Y-15337573D02*
X6891729Y-15289954D01*
X6891729Y-15289954D02*
X6901253Y-15251859D01*
X6901253Y-15251859D02*
X6910777Y-15232811D01*
X6910777Y-15232811D02*
X6920301Y-15223288D01*
X6920301Y-15223288D02*
X6939348Y-15213764D01*
X7177444Y-15280430D02*
X7177444Y-15413764D01*
X7129825Y-15204240D02*
X7082206Y-15347097D01*
X7082206Y-15347097D02*
X7206015Y-15347097D01*
X7291729Y-15413764D02*
X7329825Y-15413764D01*
X7329825Y-15413764D02*
X7348872Y-15404240D01*
X7348872Y-15404240D02*
X7358396Y-15394716D01*
X7358396Y-15394716D02*
X7377444Y-15366145D01*
X7377444Y-15366145D02*
X7386967Y-15328049D01*
X7386967Y-15328049D02*
X7386967Y-15251859D01*
X7386967Y-15251859D02*
X7377444Y-15232811D01*
X7377444Y-15232811D02*
X7367920Y-15223288D01*
X7367920Y-15223288D02*
X7348872Y-15213764D01*
X7348872Y-15213764D02*
X7310777Y-15213764D01*
X7310777Y-15213764D02*
X7291729Y-15223288D01*
X7291729Y-15223288D02*
X7282206Y-15232811D01*
X7282206Y-15232811D02*
X7272682Y-15251859D01*
X7272682Y-15251859D02*
X7272682Y-15299478D01*
X7272682Y-15299478D02*
X7282206Y-15318526D01*
X7282206Y-15318526D02*
X7291729Y-15328049D01*
X7291729Y-15328049D02*
X7310777Y-15337573D01*
X7310777Y-15337573D02*
X7348872Y-15337573D01*
X7348872Y-15337573D02*
X7367920Y-15328049D01*
X7367920Y-15328049D02*
X7377444Y-15318526D01*
X7377444Y-15318526D02*
X7386967Y-15299478D01*
X7510777Y-15213764D02*
X7529825Y-15213764D01*
X7529825Y-15213764D02*
X7548872Y-15223288D01*
X7548872Y-15223288D02*
X7558396Y-15232811D01*
X7558396Y-15232811D02*
X7567920Y-15251859D01*
X7567920Y-15251859D02*
X7577444Y-15289954D01*
X7577444Y-15289954D02*
X7577444Y-15337573D01*
X7577444Y-15337573D02*
X7567920Y-15375668D01*
X7567920Y-15375668D02*
X7558396Y-15394716D01*
X7558396Y-15394716D02*
X7548872Y-15404240D01*
X7548872Y-15404240D02*
X7529825Y-15413764D01*
X7529825Y-15413764D02*
X7510777Y-15413764D01*
X7510777Y-15413764D02*
X7491729Y-15404240D01*
X7491729Y-15404240D02*
X7482206Y-15394716D01*
X7482206Y-15394716D02*
X7472682Y-15375668D01*
X7472682Y-15375668D02*
X7463158Y-15337573D01*
X7463158Y-15337573D02*
X7463158Y-15289954D01*
X7463158Y-15289954D02*
X7472682Y-15251859D01*
X7472682Y-15251859D02*
X7482206Y-15232811D01*
X7482206Y-15232811D02*
X7491729Y-15223288D01*
X7491729Y-15223288D02*
X7510777Y-15213764D01*
X7653634Y-15213764D02*
X7653634Y-15251859D01*
X7729825Y-15213764D02*
X7729825Y-15251859D01*
X8025063Y-15489954D02*
X8015539Y-15480430D01*
X8015539Y-15480430D02*
X7996491Y-15451859D01*
X7996491Y-15451859D02*
X7986968Y-15432811D01*
X7986968Y-15432811D02*
X7977444Y-15404240D01*
X7977444Y-15404240D02*
X7967920Y-15356621D01*
X7967920Y-15356621D02*
X7967920Y-15318526D01*
X7967920Y-15318526D02*
X7977444Y-15270907D01*
X7977444Y-15270907D02*
X7986968Y-15242335D01*
X7986968Y-15242335D02*
X7996491Y-15223288D01*
X7996491Y-15223288D02*
X8015539Y-15194716D01*
X8015539Y-15194716D02*
X8025063Y-15185192D01*
X8186968Y-15280430D02*
X8186968Y-15413764D01*
X8139348Y-15204240D02*
X8091729Y-15347097D01*
X8091729Y-15347097D02*
X8215539Y-15347097D01*
X8444111Y-15413764D02*
X8444111Y-15213764D01*
X8529825Y-15413764D02*
X8529825Y-15309002D01*
X8529825Y-15309002D02*
X8520301Y-15289954D01*
X8520301Y-15289954D02*
X8501253Y-15280430D01*
X8501253Y-15280430D02*
X8472682Y-15280430D01*
X8472682Y-15280430D02*
X8453634Y-15289954D01*
X8453634Y-15289954D02*
X8444111Y-15299478D01*
X8653634Y-15413764D02*
X8634587Y-15404240D01*
X8634587Y-15404240D02*
X8625063Y-15394716D01*
X8625063Y-15394716D02*
X8615539Y-15375668D01*
X8615539Y-15375668D02*
X8615539Y-15318526D01*
X8615539Y-15318526D02*
X8625063Y-15299478D01*
X8625063Y-15299478D02*
X8634587Y-15289954D01*
X8634587Y-15289954D02*
X8653634Y-15280430D01*
X8653634Y-15280430D02*
X8682206Y-15280430D01*
X8682206Y-15280430D02*
X8701253Y-15289954D01*
X8701253Y-15289954D02*
X8710777Y-15299478D01*
X8710777Y-15299478D02*
X8720301Y-15318526D01*
X8720301Y-15318526D02*
X8720301Y-15375668D01*
X8720301Y-15375668D02*
X8710777Y-15394716D01*
X8710777Y-15394716D02*
X8701253Y-15404240D01*
X8701253Y-15404240D02*
X8682206Y-15413764D01*
X8682206Y-15413764D02*
X8653634Y-15413764D01*
X8834587Y-15413764D02*
X8815539Y-15404240D01*
X8815539Y-15404240D02*
X8806015Y-15385192D01*
X8806015Y-15385192D02*
X8806015Y-15213764D01*
X8986968Y-15404240D02*
X8967920Y-15413764D01*
X8967920Y-15413764D02*
X8929825Y-15413764D01*
X8929825Y-15413764D02*
X8910777Y-15404240D01*
X8910777Y-15404240D02*
X8901253Y-15385192D01*
X8901253Y-15385192D02*
X8901253Y-15309002D01*
X8901253Y-15309002D02*
X8910777Y-15289954D01*
X8910777Y-15289954D02*
X8929825Y-15280430D01*
X8929825Y-15280430D02*
X8967920Y-15280430D01*
X8967920Y-15280430D02*
X8986968Y-15289954D01*
X8986968Y-15289954D02*
X8996492Y-15309002D01*
X8996492Y-15309002D02*
X8996492Y-15328049D01*
X8996492Y-15328049D02*
X8901253Y-15347097D01*
X9072682Y-15404240D02*
X9091730Y-15413764D01*
X9091730Y-15413764D02*
X9129825Y-15413764D01*
X9129825Y-15413764D02*
X9148873Y-15404240D01*
X9148873Y-15404240D02*
X9158396Y-15385192D01*
X9158396Y-15385192D02*
X9158396Y-15375668D01*
X9158396Y-15375668D02*
X9148873Y-15356621D01*
X9148873Y-15356621D02*
X9129825Y-15347097D01*
X9129825Y-15347097D02*
X9101253Y-15347097D01*
X9101253Y-15347097D02*
X9082206Y-15337573D01*
X9082206Y-15337573D02*
X9072682Y-15318526D01*
X9072682Y-15318526D02*
X9072682Y-15309002D01*
X9072682Y-15309002D02*
X9082206Y-15289954D01*
X9082206Y-15289954D02*
X9101253Y-15280430D01*
X9101253Y-15280430D02*
X9129825Y-15280430D01*
X9129825Y-15280430D02*
X9148873Y-15289954D01*
X9225063Y-15489954D02*
X9234587Y-15480430D01*
X9234587Y-15480430D02*
X9253634Y-15451859D01*
X9253634Y-15451859D02*
X9263158Y-15432811D01*
X9263158Y-15432811D02*
X9272682Y-15404240D01*
X9272682Y-15404240D02*
X9282206Y-15356621D01*
X9282206Y-15356621D02*
X9282206Y-15318526D01*
X9282206Y-15318526D02*
X9272682Y-15270907D01*
X9272682Y-15270907D02*
X9263158Y-15242335D01*
X9263158Y-15242335D02*
X9253634Y-15223288D01*
X9253634Y-15223288D02*
X9234587Y-15194716D01*
X9234587Y-15194716D02*
X9225063Y-15185192D01*
D16*
X4360000Y-15496280D02*
X4360000Y-15676280D01*
X4270000Y-15586280D02*
X4450000Y-15586280D01*
X4450000Y-15586280D02*
G75*
G02*
X4270000Y-15586280I-90000J0D01*
G01*
X4270000Y-15586280D02*
G75*
G02*
X4450000Y-15586280I90000J0D01*
G01*
D11*
X4815539Y-15677764D02*
X4701253Y-15677764D01*
X4758396Y-15677764D02*
X4758396Y-15477764D01*
X4758396Y-15477764D02*
X4739348Y-15506335D01*
X4739348Y-15506335D02*
X4720301Y-15525383D01*
X4720301Y-15525383D02*
X4701253Y-15534907D01*
X4901253Y-15658716D02*
X4910777Y-15668240D01*
X4910777Y-15668240D02*
X4901253Y-15677764D01*
X4901253Y-15677764D02*
X4891729Y-15668240D01*
X4891729Y-15668240D02*
X4901253Y-15658716D01*
X4901253Y-15658716D02*
X4901253Y-15677764D01*
X5025063Y-15563478D02*
X5006015Y-15553954D01*
X5006015Y-15553954D02*
X4996491Y-15544430D01*
X4996491Y-15544430D02*
X4986967Y-15525383D01*
X4986967Y-15525383D02*
X4986967Y-15515859D01*
X4986967Y-15515859D02*
X4996491Y-15496811D01*
X4996491Y-15496811D02*
X5006015Y-15487288D01*
X5006015Y-15487288D02*
X5025063Y-15477764D01*
X5025063Y-15477764D02*
X5063158Y-15477764D01*
X5063158Y-15477764D02*
X5082205Y-15487288D01*
X5082205Y-15487288D02*
X5091729Y-15496811D01*
X5091729Y-15496811D02*
X5101253Y-15515859D01*
X5101253Y-15515859D02*
X5101253Y-15525383D01*
X5101253Y-15525383D02*
X5091729Y-15544430D01*
X5091729Y-15544430D02*
X5082205Y-15553954D01*
X5082205Y-15553954D02*
X5063158Y-15563478D01*
X5063158Y-15563478D02*
X5025063Y-15563478D01*
X5025063Y-15563478D02*
X5006015Y-15573002D01*
X5006015Y-15573002D02*
X4996491Y-15582526D01*
X4996491Y-15582526D02*
X4986967Y-15601573D01*
X4986967Y-15601573D02*
X4986967Y-15639668D01*
X4986967Y-15639668D02*
X4996491Y-15658716D01*
X4996491Y-15658716D02*
X5006015Y-15668240D01*
X5006015Y-15668240D02*
X5025063Y-15677764D01*
X5025063Y-15677764D02*
X5063158Y-15677764D01*
X5063158Y-15677764D02*
X5082205Y-15668240D01*
X5082205Y-15668240D02*
X5091729Y-15658716D01*
X5091729Y-15658716D02*
X5101253Y-15639668D01*
X5101253Y-15639668D02*
X5101253Y-15601573D01*
X5101253Y-15601573D02*
X5091729Y-15582526D01*
X5091729Y-15582526D02*
X5082205Y-15573002D01*
X5082205Y-15573002D02*
X5063158Y-15563478D01*
X5225063Y-15477764D02*
X5244110Y-15477764D01*
X5244110Y-15477764D02*
X5263158Y-15487288D01*
X5263158Y-15487288D02*
X5272682Y-15496811D01*
X5272682Y-15496811D02*
X5282205Y-15515859D01*
X5282205Y-15515859D02*
X5291729Y-15553954D01*
X5291729Y-15553954D02*
X5291729Y-15601573D01*
X5291729Y-15601573D02*
X5282205Y-15639668D01*
X5282205Y-15639668D02*
X5272682Y-15658716D01*
X5272682Y-15658716D02*
X5263158Y-15668240D01*
X5263158Y-15668240D02*
X5244110Y-15677764D01*
X5244110Y-15677764D02*
X5225063Y-15677764D01*
X5225063Y-15677764D02*
X5206015Y-15668240D01*
X5206015Y-15668240D02*
X5196491Y-15658716D01*
X5196491Y-15658716D02*
X5186967Y-15639668D01*
X5186967Y-15639668D02*
X5177444Y-15601573D01*
X5177444Y-15601573D02*
X5177444Y-15553954D01*
X5177444Y-15553954D02*
X5186967Y-15515859D01*
X5186967Y-15515859D02*
X5196491Y-15496811D01*
X5196491Y-15496811D02*
X5206015Y-15487288D01*
X5206015Y-15487288D02*
X5225063Y-15477764D01*
X5415539Y-15477764D02*
X5434586Y-15477764D01*
X5434586Y-15477764D02*
X5453634Y-15487288D01*
X5453634Y-15487288D02*
X5463158Y-15496811D01*
X5463158Y-15496811D02*
X5472682Y-15515859D01*
X5472682Y-15515859D02*
X5482205Y-15553954D01*
X5482205Y-15553954D02*
X5482205Y-15601573D01*
X5482205Y-15601573D02*
X5472682Y-15639668D01*
X5472682Y-15639668D02*
X5463158Y-15658716D01*
X5463158Y-15658716D02*
X5453634Y-15668240D01*
X5453634Y-15668240D02*
X5434586Y-15677764D01*
X5434586Y-15677764D02*
X5415539Y-15677764D01*
X5415539Y-15677764D02*
X5396491Y-15668240D01*
X5396491Y-15668240D02*
X5386967Y-15658716D01*
X5386967Y-15658716D02*
X5377444Y-15639668D01*
X5377444Y-15639668D02*
X5367920Y-15601573D01*
X5367920Y-15601573D02*
X5367920Y-15553954D01*
X5367920Y-15553954D02*
X5377444Y-15515859D01*
X5377444Y-15515859D02*
X5386967Y-15496811D01*
X5386967Y-15496811D02*
X5396491Y-15487288D01*
X5396491Y-15487288D02*
X5415539Y-15477764D01*
X5567920Y-15677764D02*
X5567920Y-15544430D01*
X5567920Y-15563478D02*
X5577444Y-15553954D01*
X5577444Y-15553954D02*
X5596491Y-15544430D01*
X5596491Y-15544430D02*
X5625063Y-15544430D01*
X5625063Y-15544430D02*
X5644110Y-15553954D01*
X5644110Y-15553954D02*
X5653634Y-15573002D01*
X5653634Y-15573002D02*
X5653634Y-15677764D01*
X5653634Y-15573002D02*
X5663158Y-15553954D01*
X5663158Y-15553954D02*
X5682205Y-15544430D01*
X5682205Y-15544430D02*
X5710777Y-15544430D01*
X5710777Y-15544430D02*
X5729824Y-15553954D01*
X5729824Y-15553954D02*
X5739348Y-15573002D01*
X5739348Y-15573002D02*
X5739348Y-15677764D01*
X5834586Y-15677764D02*
X5834586Y-15544430D01*
X5834586Y-15563478D02*
X5844110Y-15553954D01*
X5844110Y-15553954D02*
X5863158Y-15544430D01*
X5863158Y-15544430D02*
X5891729Y-15544430D01*
X5891729Y-15544430D02*
X5910777Y-15553954D01*
X5910777Y-15553954D02*
X5920301Y-15573002D01*
X5920301Y-15573002D02*
X5920301Y-15677764D01*
X5920301Y-15573002D02*
X5929824Y-15553954D01*
X5929824Y-15553954D02*
X5948872Y-15544430D01*
X5948872Y-15544430D02*
X5977443Y-15544430D01*
X5977443Y-15544430D02*
X5996491Y-15553954D01*
X5996491Y-15553954D02*
X6006015Y-15573002D01*
X6006015Y-15573002D02*
X6006015Y-15677764D01*
X6396491Y-15468240D02*
X6225063Y-15725383D01*
X6653634Y-15477764D02*
X6672682Y-15477764D01*
X6672682Y-15477764D02*
X6691729Y-15487288D01*
X6691729Y-15487288D02*
X6701253Y-15496811D01*
X6701253Y-15496811D02*
X6710777Y-15515859D01*
X6710777Y-15515859D02*
X6720301Y-15553954D01*
X6720301Y-15553954D02*
X6720301Y-15601573D01*
X6720301Y-15601573D02*
X6710777Y-15639668D01*
X6710777Y-15639668D02*
X6701253Y-15658716D01*
X6701253Y-15658716D02*
X6691729Y-15668240D01*
X6691729Y-15668240D02*
X6672682Y-15677764D01*
X6672682Y-15677764D02*
X6653634Y-15677764D01*
X6653634Y-15677764D02*
X6634586Y-15668240D01*
X6634586Y-15668240D02*
X6625063Y-15658716D01*
X6625063Y-15658716D02*
X6615539Y-15639668D01*
X6615539Y-15639668D02*
X6606015Y-15601573D01*
X6606015Y-15601573D02*
X6606015Y-15553954D01*
X6606015Y-15553954D02*
X6615539Y-15515859D01*
X6615539Y-15515859D02*
X6625063Y-15496811D01*
X6625063Y-15496811D02*
X6634586Y-15487288D01*
X6634586Y-15487288D02*
X6653634Y-15477764D01*
X6806015Y-15658716D02*
X6815539Y-15668240D01*
X6815539Y-15668240D02*
X6806015Y-15677764D01*
X6806015Y-15677764D02*
X6796491Y-15668240D01*
X6796491Y-15668240D02*
X6806015Y-15658716D01*
X6806015Y-15658716D02*
X6806015Y-15677764D01*
X6939348Y-15477764D02*
X6958396Y-15477764D01*
X6958396Y-15477764D02*
X6977444Y-15487288D01*
X6977444Y-15487288D02*
X6986967Y-15496811D01*
X6986967Y-15496811D02*
X6996491Y-15515859D01*
X6996491Y-15515859D02*
X7006015Y-15553954D01*
X7006015Y-15553954D02*
X7006015Y-15601573D01*
X7006015Y-15601573D02*
X6996491Y-15639668D01*
X6996491Y-15639668D02*
X6986967Y-15658716D01*
X6986967Y-15658716D02*
X6977444Y-15668240D01*
X6977444Y-15668240D02*
X6958396Y-15677764D01*
X6958396Y-15677764D02*
X6939348Y-15677764D01*
X6939348Y-15677764D02*
X6920301Y-15668240D01*
X6920301Y-15668240D02*
X6910777Y-15658716D01*
X6910777Y-15658716D02*
X6901253Y-15639668D01*
X6901253Y-15639668D02*
X6891729Y-15601573D01*
X6891729Y-15601573D02*
X6891729Y-15553954D01*
X6891729Y-15553954D02*
X6901253Y-15515859D01*
X6901253Y-15515859D02*
X6910777Y-15496811D01*
X6910777Y-15496811D02*
X6920301Y-15487288D01*
X6920301Y-15487288D02*
X6939348Y-15477764D01*
X7072682Y-15477764D02*
X7206015Y-15477764D01*
X7206015Y-15477764D02*
X7120301Y-15677764D01*
X7320301Y-15477764D02*
X7339348Y-15477764D01*
X7339348Y-15477764D02*
X7358396Y-15487288D01*
X7358396Y-15487288D02*
X7367920Y-15496811D01*
X7367920Y-15496811D02*
X7377444Y-15515859D01*
X7377444Y-15515859D02*
X7386967Y-15553954D01*
X7386967Y-15553954D02*
X7386967Y-15601573D01*
X7386967Y-15601573D02*
X7377444Y-15639668D01*
X7377444Y-15639668D02*
X7367920Y-15658716D01*
X7367920Y-15658716D02*
X7358396Y-15668240D01*
X7358396Y-15668240D02*
X7339348Y-15677764D01*
X7339348Y-15677764D02*
X7320301Y-15677764D01*
X7320301Y-15677764D02*
X7301253Y-15668240D01*
X7301253Y-15668240D02*
X7291729Y-15658716D01*
X7291729Y-15658716D02*
X7282206Y-15639668D01*
X7282206Y-15639668D02*
X7272682Y-15601573D01*
X7272682Y-15601573D02*
X7272682Y-15553954D01*
X7272682Y-15553954D02*
X7282206Y-15515859D01*
X7282206Y-15515859D02*
X7291729Y-15496811D01*
X7291729Y-15496811D02*
X7301253Y-15487288D01*
X7301253Y-15487288D02*
X7320301Y-15477764D01*
X7482206Y-15677764D02*
X7520301Y-15677764D01*
X7520301Y-15677764D02*
X7539348Y-15668240D01*
X7539348Y-15668240D02*
X7548872Y-15658716D01*
X7548872Y-15658716D02*
X7567920Y-15630145D01*
X7567920Y-15630145D02*
X7577444Y-15592049D01*
X7577444Y-15592049D02*
X7577444Y-15515859D01*
X7577444Y-15515859D02*
X7567920Y-15496811D01*
X7567920Y-15496811D02*
X7558396Y-15487288D01*
X7558396Y-15487288D02*
X7539348Y-15477764D01*
X7539348Y-15477764D02*
X7501253Y-15477764D01*
X7501253Y-15477764D02*
X7482206Y-15487288D01*
X7482206Y-15487288D02*
X7472682Y-15496811D01*
X7472682Y-15496811D02*
X7463158Y-15515859D01*
X7463158Y-15515859D02*
X7463158Y-15563478D01*
X7463158Y-15563478D02*
X7472682Y-15582526D01*
X7472682Y-15582526D02*
X7482206Y-15592049D01*
X7482206Y-15592049D02*
X7501253Y-15601573D01*
X7501253Y-15601573D02*
X7539348Y-15601573D01*
X7539348Y-15601573D02*
X7558396Y-15592049D01*
X7558396Y-15592049D02*
X7567920Y-15582526D01*
X7567920Y-15582526D02*
X7577444Y-15563478D01*
X7653634Y-15477764D02*
X7653634Y-15515859D01*
X7729825Y-15477764D02*
X7729825Y-15515859D01*
X8025063Y-15753954D02*
X8015539Y-15744430D01*
X8015539Y-15744430D02*
X7996491Y-15715859D01*
X7996491Y-15715859D02*
X7986968Y-15696811D01*
X7986968Y-15696811D02*
X7977444Y-15668240D01*
X7977444Y-15668240D02*
X7967920Y-15620621D01*
X7967920Y-15620621D02*
X7967920Y-15582526D01*
X7967920Y-15582526D02*
X7977444Y-15534907D01*
X7977444Y-15534907D02*
X7986968Y-15506335D01*
X7986968Y-15506335D02*
X7996491Y-15487288D01*
X7996491Y-15487288D02*
X8015539Y-15458716D01*
X8015539Y-15458716D02*
X8025063Y-15449192D01*
X8206015Y-15677764D02*
X8091729Y-15677764D01*
X8148872Y-15677764D02*
X8148872Y-15477764D01*
X8148872Y-15477764D02*
X8129825Y-15506335D01*
X8129825Y-15506335D02*
X8110777Y-15525383D01*
X8110777Y-15525383D02*
X8091729Y-15534907D01*
X8282206Y-15496811D02*
X8291729Y-15487288D01*
X8291729Y-15487288D02*
X8310777Y-15477764D01*
X8310777Y-15477764D02*
X8358396Y-15477764D01*
X8358396Y-15477764D02*
X8377444Y-15487288D01*
X8377444Y-15487288D02*
X8386968Y-15496811D01*
X8386968Y-15496811D02*
X8396491Y-15515859D01*
X8396491Y-15515859D02*
X8396491Y-15534907D01*
X8396491Y-15534907D02*
X8386968Y-15563478D01*
X8386968Y-15563478D02*
X8272682Y-15677764D01*
X8272682Y-15677764D02*
X8396491Y-15677764D01*
X8634587Y-15677764D02*
X8634587Y-15477764D01*
X8720301Y-15677764D02*
X8720301Y-15573002D01*
X8720301Y-15573002D02*
X8710777Y-15553954D01*
X8710777Y-15553954D02*
X8691730Y-15544430D01*
X8691730Y-15544430D02*
X8663158Y-15544430D01*
X8663158Y-15544430D02*
X8644111Y-15553954D01*
X8644111Y-15553954D02*
X8634587Y-15563478D01*
X8844111Y-15677764D02*
X8825063Y-15668240D01*
X8825063Y-15668240D02*
X8815539Y-15658716D01*
X8815539Y-15658716D02*
X8806015Y-15639668D01*
X8806015Y-15639668D02*
X8806015Y-15582526D01*
X8806015Y-15582526D02*
X8815539Y-15563478D01*
X8815539Y-15563478D02*
X8825063Y-15553954D01*
X8825063Y-15553954D02*
X8844111Y-15544430D01*
X8844111Y-15544430D02*
X8872682Y-15544430D01*
X8872682Y-15544430D02*
X8891730Y-15553954D01*
X8891730Y-15553954D02*
X8901253Y-15563478D01*
X8901253Y-15563478D02*
X8910777Y-15582526D01*
X8910777Y-15582526D02*
X8910777Y-15639668D01*
X8910777Y-15639668D02*
X8901253Y-15658716D01*
X8901253Y-15658716D02*
X8891730Y-15668240D01*
X8891730Y-15668240D02*
X8872682Y-15677764D01*
X8872682Y-15677764D02*
X8844111Y-15677764D01*
X9025063Y-15677764D02*
X9006015Y-15668240D01*
X9006015Y-15668240D02*
X8996492Y-15649192D01*
X8996492Y-15649192D02*
X8996492Y-15477764D01*
X9177444Y-15668240D02*
X9158396Y-15677764D01*
X9158396Y-15677764D02*
X9120301Y-15677764D01*
X9120301Y-15677764D02*
X9101253Y-15668240D01*
X9101253Y-15668240D02*
X9091730Y-15649192D01*
X9091730Y-15649192D02*
X9091730Y-15573002D01*
X9091730Y-15573002D02*
X9101253Y-15553954D01*
X9101253Y-15553954D02*
X9120301Y-15544430D01*
X9120301Y-15544430D02*
X9158396Y-15544430D01*
X9158396Y-15544430D02*
X9177444Y-15553954D01*
X9177444Y-15553954D02*
X9186968Y-15573002D01*
X9186968Y-15573002D02*
X9186968Y-15592049D01*
X9186968Y-15592049D02*
X9091730Y-15611097D01*
X9263158Y-15668240D02*
X9282206Y-15677764D01*
X9282206Y-15677764D02*
X9320301Y-15677764D01*
X9320301Y-15677764D02*
X9339349Y-15668240D01*
X9339349Y-15668240D02*
X9348873Y-15649192D01*
X9348873Y-15649192D02*
X9348873Y-15639668D01*
X9348873Y-15639668D02*
X9339349Y-15620621D01*
X9339349Y-15620621D02*
X9320301Y-15611097D01*
X9320301Y-15611097D02*
X9291730Y-15611097D01*
X9291730Y-15611097D02*
X9272682Y-15601573D01*
X9272682Y-15601573D02*
X9263158Y-15582526D01*
X9263158Y-15582526D02*
X9263158Y-15573002D01*
X9263158Y-15573002D02*
X9272682Y-15553954D01*
X9272682Y-15553954D02*
X9291730Y-15544430D01*
X9291730Y-15544430D02*
X9320301Y-15544430D01*
X9320301Y-15544430D02*
X9339349Y-15553954D01*
X9415539Y-15753954D02*
X9425063Y-15744430D01*
X9425063Y-15744430D02*
X9444111Y-15715859D01*
X9444111Y-15715859D02*
X9453634Y-15696811D01*
X9453634Y-15696811D02*
X9463158Y-15668240D01*
X9463158Y-15668240D02*
X9472682Y-15620621D01*
X9472682Y-15620621D02*
X9472682Y-15582526D01*
X9472682Y-15582526D02*
X9463158Y-15534907D01*
X9463158Y-15534907D02*
X9453634Y-15506335D01*
X9453634Y-15506335D02*
X9444111Y-15487288D01*
X9444111Y-15487288D02*
X9425063Y-15458716D01*
X9425063Y-15458716D02*
X9415539Y-15449192D01*
M02*
