%TF.GenerationSoftware,KiCad,Pcbnew,8.0.0-rc1*%
%TF.CreationDate,2024-02-28T14:24:43+09:00*%
%TF.ProjectId,KDL,4b444c2e-6b69-4636-9164-5f7063625858,rev?*%
%TF.SameCoordinates,Original*%
%TF.FileFunction,Paste,Top*%
%TF.FilePolarity,Positive*%
%FSLAX46Y46*%
G04 Gerber Fmt 4.6, Leading zero omitted, Abs format (unit mm)*
G04 Created by KiCad (PCBNEW 8.0.0-rc1) date 2024-02-28 14:24:43*
%MOMM*%
%LPD*%
G01*
G04 APERTURE LIST*
%ADD10R,1.600200X1.117600*%
%ADD11R,1.981200X0.558800*%
%ADD12R,1.117600X1.600200*%
%ADD13R,1.600000X0.855600*%
%ADD14R,0.855600X1.600000*%
%ADD15R,1.320800X0.558800*%
%ADD16R,1.450000X1.600000*%
%ADD17C,0.100000*%
%ADD18C,0.508000*%
G04 APERTURE END LIST*
D10*
%TO.C,R15*%
X110600000Y-100997000D03*
X110600000Y-98203000D03*
%TD*%
D11*
%TO.C,U7*%
X103750000Y-74790000D03*
X103750000Y-73520000D03*
X103750000Y-72250000D03*
X103750000Y-70980000D03*
X98822400Y-70980000D03*
X98822400Y-72250000D03*
X98822400Y-73520000D03*
X98822400Y-74790000D03*
%TD*%
D10*
%TO.C,R21*%
X80750000Y-70853000D03*
X80750000Y-73647000D03*
%TD*%
%TO.C,R13*%
X118500000Y-94197000D03*
X118500000Y-91403000D03*
%TD*%
D12*
%TO.C,R3*%
X111147000Y-94250000D03*
X108353000Y-94250000D03*
%TD*%
D13*
%TO.C,C6*%
X108250000Y-75694398D03*
X108250000Y-78750000D03*
%TD*%
D10*
%TO.C,R6*%
X118500000Y-78750000D03*
X118500000Y-75956000D03*
%TD*%
D14*
%TO.C,C2*%
X115277801Y-62752800D03*
X112222199Y-62752800D03*
%TD*%
D10*
%TO.C,R2*%
X115000000Y-75855800D03*
X115000000Y-78649800D03*
%TD*%
%TO.C,R4*%
X121500000Y-75956000D03*
X121500000Y-78750000D03*
%TD*%
%TO.C,R8*%
X107000000Y-116603000D03*
X107000000Y-119397000D03*
%TD*%
D15*
%TO.C,CR1*%
X78250000Y-65099998D03*
X78250000Y-67000000D03*
X80282000Y-66049999D03*
%TD*%
D14*
%TO.C,C4*%
X121527801Y-59252800D03*
X118472199Y-59252800D03*
%TD*%
D10*
%TO.C,R11*%
X107288000Y-103620000D03*
X107288000Y-106414000D03*
%TD*%
D14*
%TO.C,C3*%
X115277801Y-59252800D03*
X112222199Y-59252800D03*
%TD*%
D13*
%TO.C,C1*%
X65750000Y-107805602D03*
X65750000Y-104750000D03*
%TD*%
D10*
%TO.C,R7*%
X116299000Y-103316000D03*
X116299000Y-106110000D03*
%TD*%
D12*
%TO.C,R5*%
X111294000Y-91250000D03*
X108500000Y-91250000D03*
%TD*%
D10*
%TO.C,R16*%
X107500000Y-98203000D03*
X107500000Y-100997000D03*
%TD*%
%TO.C,R9*%
X116200000Y-110103000D03*
X116200000Y-112897000D03*
%TD*%
%TO.C,R17*%
X65750000Y-114897000D03*
X65750000Y-112103000D03*
%TD*%
%TO.C,R19*%
X118800000Y-98003000D03*
X118800000Y-100797000D03*
%TD*%
%TO.C,R18*%
X65750000Y-119103000D03*
X65750000Y-121897000D03*
%TD*%
%TO.C,R14*%
X121100000Y-91403000D03*
X121100000Y-94197000D03*
%TD*%
D16*
%TO.C,S1*%
X94500000Y-73500000D03*
X85100000Y-73500000D03*
%TD*%
D10*
%TO.C,R1*%
X111500000Y-78649800D03*
X111500000Y-75855800D03*
%TD*%
%TO.C,R10*%
X107086000Y-110230000D03*
X107086000Y-113024000D03*
%TD*%
%TO.C,R12*%
X115900000Y-116700000D03*
X115900000Y-119494000D03*
%TD*%
D14*
%TO.C,C5*%
X121555602Y-62752800D03*
X118500000Y-62752800D03*
%TD*%
D10*
%TO.C,R20*%
X121500000Y-98003000D03*
X121500000Y-100797000D03*
%TD*%
D17*
X100196115Y-62125219D02*
X100196115Y-62934742D01*
X100196115Y-62934742D02*
X100148496Y-63029980D01*
X100148496Y-63029980D02*
X100100877Y-63077600D01*
X100100877Y-63077600D02*
X100005639Y-63125219D01*
X100005639Y-63125219D02*
X99815163Y-63125219D01*
X99815163Y-63125219D02*
X99719925Y-63077600D01*
X99719925Y-63077600D02*
X99672306Y-63029980D01*
X99672306Y-63029980D02*
X99624687Y-62934742D01*
X99624687Y-62934742D02*
X99624687Y-62125219D01*
X99386592Y-63220457D02*
X98624687Y-63220457D01*
X98529448Y-62125219D02*
X97958020Y-62125219D01*
X98243734Y-63125219D02*
X98243734Y-62125219D01*
X97719924Y-62125219D02*
X97053258Y-63125219D01*
X97053258Y-62125219D02*
X97719924Y-63125219D01*
X99946115Y-67375219D02*
X99946115Y-68184742D01*
X99946115Y-68184742D02*
X99898496Y-68279980D01*
X99898496Y-68279980D02*
X99850877Y-68327600D01*
X99850877Y-68327600D02*
X99755639Y-68375219D01*
X99755639Y-68375219D02*
X99565163Y-68375219D01*
X99565163Y-68375219D02*
X99469925Y-68327600D01*
X99469925Y-68327600D02*
X99422306Y-68279980D01*
X99422306Y-68279980D02*
X99374687Y-68184742D01*
X99374687Y-68184742D02*
X99374687Y-67375219D01*
X99136592Y-68470457D02*
X98374687Y-68470457D01*
X97565163Y-68375219D02*
X97898496Y-67899028D01*
X98136591Y-68375219D02*
X98136591Y-67375219D01*
X98136591Y-67375219D02*
X97755639Y-67375219D01*
X97755639Y-67375219D02*
X97660401Y-67422838D01*
X97660401Y-67422838D02*
X97612782Y-67470457D01*
X97612782Y-67470457D02*
X97565163Y-67565695D01*
X97565163Y-67565695D02*
X97565163Y-67708552D01*
X97565163Y-67708552D02*
X97612782Y-67803790D01*
X97612782Y-67803790D02*
X97660401Y-67851409D01*
X97660401Y-67851409D02*
X97755639Y-67899028D01*
X97755639Y-67899028D02*
X98136591Y-67899028D01*
X97231829Y-67375219D02*
X96565163Y-68375219D01*
X96565163Y-67375219D02*
X97231829Y-68375219D01*
X108124687Y-63029980D02*
X108172306Y-63077600D01*
X108172306Y-63077600D02*
X108315163Y-63125219D01*
X108315163Y-63125219D02*
X108410401Y-63125219D01*
X108410401Y-63125219D02*
X108553258Y-63077600D01*
X108553258Y-63077600D02*
X108648496Y-62982361D01*
X108648496Y-62982361D02*
X108696115Y-62887123D01*
X108696115Y-62887123D02*
X108743734Y-62696647D01*
X108743734Y-62696647D02*
X108743734Y-62553790D01*
X108743734Y-62553790D02*
X108696115Y-62363314D01*
X108696115Y-62363314D02*
X108648496Y-62268076D01*
X108648496Y-62268076D02*
X108553258Y-62172838D01*
X108553258Y-62172838D02*
X108410401Y-62125219D01*
X108410401Y-62125219D02*
X108315163Y-62125219D01*
X108315163Y-62125219D02*
X108172306Y-62172838D01*
X108172306Y-62172838D02*
X108124687Y-62220457D01*
X107743734Y-62839504D02*
X107267544Y-62839504D01*
X107838972Y-63125219D02*
X107505639Y-62125219D01*
X107505639Y-62125219D02*
X107172306Y-63125219D01*
X106838972Y-63125219D02*
X106838972Y-62125219D01*
X106838972Y-62125219D02*
X106267544Y-63125219D01*
X106267544Y-63125219D02*
X106267544Y-62125219D01*
X105791353Y-63125219D02*
X105791353Y-62125219D01*
X105791353Y-62601409D02*
X105219925Y-62601409D01*
X105219925Y-63125219D02*
X105219925Y-62125219D01*
X95743734Y-62839504D02*
X95267544Y-62839504D01*
X95838972Y-63125219D02*
X95505639Y-62125219D01*
X95505639Y-62125219D02*
X95172306Y-63125219D01*
X94838972Y-63125219D02*
X94838972Y-62125219D01*
X94362782Y-63125219D02*
X94362782Y-62125219D01*
X94362782Y-62125219D02*
X93791354Y-63125219D01*
X93791354Y-63125219D02*
X93791354Y-62125219D01*
X93124687Y-62125219D02*
X93029449Y-62125219D01*
X93029449Y-62125219D02*
X92934211Y-62172838D01*
X92934211Y-62172838D02*
X92886592Y-62220457D01*
X92886592Y-62220457D02*
X92838973Y-62315695D01*
X92838973Y-62315695D02*
X92791354Y-62506171D01*
X92791354Y-62506171D02*
X92791354Y-62744266D01*
X92791354Y-62744266D02*
X92838973Y-62934742D01*
X92838973Y-62934742D02*
X92886592Y-63029980D01*
X92886592Y-63029980D02*
X92934211Y-63077600D01*
X92934211Y-63077600D02*
X93029449Y-63125219D01*
X93029449Y-63125219D02*
X93124687Y-63125219D01*
X93124687Y-63125219D02*
X93219925Y-63077600D01*
X93219925Y-63077600D02*
X93267544Y-63029980D01*
X93267544Y-63029980D02*
X93315163Y-62934742D01*
X93315163Y-62934742D02*
X93362782Y-62744266D01*
X93362782Y-62744266D02*
X93362782Y-62506171D01*
X93362782Y-62506171D02*
X93315163Y-62315695D01*
X93315163Y-62315695D02*
X93267544Y-62220457D01*
X93267544Y-62220457D02*
X93219925Y-62172838D01*
X93219925Y-62172838D02*
X93124687Y-62125219D01*
X103993734Y-68327600D02*
X103850877Y-68375219D01*
X103850877Y-68375219D02*
X103612782Y-68375219D01*
X103612782Y-68375219D02*
X103517544Y-68327600D01*
X103517544Y-68327600D02*
X103469925Y-68279980D01*
X103469925Y-68279980D02*
X103422306Y-68184742D01*
X103422306Y-68184742D02*
X103422306Y-68089504D01*
X103422306Y-68089504D02*
X103469925Y-67994266D01*
X103469925Y-67994266D02*
X103517544Y-67946647D01*
X103517544Y-67946647D02*
X103612782Y-67899028D01*
X103612782Y-67899028D02*
X103803258Y-67851409D01*
X103803258Y-67851409D02*
X103898496Y-67803790D01*
X103898496Y-67803790D02*
X103946115Y-67756171D01*
X103946115Y-67756171D02*
X103993734Y-67660933D01*
X103993734Y-67660933D02*
X103993734Y-67565695D01*
X103993734Y-67565695D02*
X103946115Y-67470457D01*
X103946115Y-67470457D02*
X103898496Y-67422838D01*
X103898496Y-67422838D02*
X103803258Y-67375219D01*
X103803258Y-67375219D02*
X103565163Y-67375219D01*
X103565163Y-67375219D02*
X103422306Y-67422838D01*
X102422306Y-68279980D02*
X102469925Y-68327600D01*
X102469925Y-68327600D02*
X102612782Y-68375219D01*
X102612782Y-68375219D02*
X102708020Y-68375219D01*
X102708020Y-68375219D02*
X102850877Y-68327600D01*
X102850877Y-68327600D02*
X102946115Y-68232361D01*
X102946115Y-68232361D02*
X102993734Y-68137123D01*
X102993734Y-68137123D02*
X103041353Y-67946647D01*
X103041353Y-67946647D02*
X103041353Y-67803790D01*
X103041353Y-67803790D02*
X102993734Y-67613314D01*
X102993734Y-67613314D02*
X102946115Y-67518076D01*
X102946115Y-67518076D02*
X102850877Y-67422838D01*
X102850877Y-67422838D02*
X102708020Y-67375219D01*
X102708020Y-67375219D02*
X102612782Y-67375219D01*
X102612782Y-67375219D02*
X102469925Y-67422838D01*
X102469925Y-67422838D02*
X102422306Y-67470457D01*
X101517544Y-68375219D02*
X101993734Y-68375219D01*
X101993734Y-68375219D02*
X101993734Y-67375219D01*
X87588972Y-62125219D02*
X87255639Y-63125219D01*
X87255639Y-63125219D02*
X86922306Y-62125219D01*
X86255639Y-62601409D02*
X86112782Y-62649028D01*
X86112782Y-62649028D02*
X86065163Y-62696647D01*
X86065163Y-62696647D02*
X86017544Y-62791885D01*
X86017544Y-62791885D02*
X86017544Y-62934742D01*
X86017544Y-62934742D02*
X86065163Y-63029980D01*
X86065163Y-63029980D02*
X86112782Y-63077600D01*
X86112782Y-63077600D02*
X86208020Y-63125219D01*
X86208020Y-63125219D02*
X86588972Y-63125219D01*
X86588972Y-63125219D02*
X86588972Y-62125219D01*
X86588972Y-62125219D02*
X86255639Y-62125219D01*
X86255639Y-62125219D02*
X86160401Y-62172838D01*
X86160401Y-62172838D02*
X86112782Y-62220457D01*
X86112782Y-62220457D02*
X86065163Y-62315695D01*
X86065163Y-62315695D02*
X86065163Y-62410933D01*
X86065163Y-62410933D02*
X86112782Y-62506171D01*
X86112782Y-62506171D02*
X86160401Y-62553790D01*
X86160401Y-62553790D02*
X86255639Y-62601409D01*
X86255639Y-62601409D02*
X86588972Y-62601409D01*
X85588972Y-62125219D02*
X85588972Y-62934742D01*
X85588972Y-62934742D02*
X85541353Y-63029980D01*
X85541353Y-63029980D02*
X85493734Y-63077600D01*
X85493734Y-63077600D02*
X85398496Y-63125219D01*
X85398496Y-63125219D02*
X85208020Y-63125219D01*
X85208020Y-63125219D02*
X85112782Y-63077600D01*
X85112782Y-63077600D02*
X85065163Y-63029980D01*
X85065163Y-63029980D02*
X85017544Y-62934742D01*
X85017544Y-62934742D02*
X85017544Y-62125219D01*
X84588972Y-63077600D02*
X84446115Y-63125219D01*
X84446115Y-63125219D02*
X84208020Y-63125219D01*
X84208020Y-63125219D02*
X84112782Y-63077600D01*
X84112782Y-63077600D02*
X84065163Y-63029980D01*
X84065163Y-63029980D02*
X84017544Y-62934742D01*
X84017544Y-62934742D02*
X84017544Y-62839504D01*
X84017544Y-62839504D02*
X84065163Y-62744266D01*
X84065163Y-62744266D02*
X84112782Y-62696647D01*
X84112782Y-62696647D02*
X84208020Y-62649028D01*
X84208020Y-62649028D02*
X84398496Y-62601409D01*
X84398496Y-62601409D02*
X84493734Y-62553790D01*
X84493734Y-62553790D02*
X84541353Y-62506171D01*
X84541353Y-62506171D02*
X84588972Y-62410933D01*
X84588972Y-62410933D02*
X84588972Y-62315695D01*
X84588972Y-62315695D02*
X84541353Y-62220457D01*
X84541353Y-62220457D02*
X84493734Y-62172838D01*
X84493734Y-62172838D02*
X84398496Y-62125219D01*
X84398496Y-62125219D02*
X84160401Y-62125219D01*
X84160401Y-62125219D02*
X84017544Y-62172838D01*
X86672306Y-67422838D02*
X86767544Y-67375219D01*
X86767544Y-67375219D02*
X86910401Y-67375219D01*
X86910401Y-67375219D02*
X87053258Y-67422838D01*
X87053258Y-67422838D02*
X87148496Y-67518076D01*
X87148496Y-67518076D02*
X87196115Y-67613314D01*
X87196115Y-67613314D02*
X87243734Y-67803790D01*
X87243734Y-67803790D02*
X87243734Y-67946647D01*
X87243734Y-67946647D02*
X87196115Y-68137123D01*
X87196115Y-68137123D02*
X87148496Y-68232361D01*
X87148496Y-68232361D02*
X87053258Y-68327600D01*
X87053258Y-68327600D02*
X86910401Y-68375219D01*
X86910401Y-68375219D02*
X86815163Y-68375219D01*
X86815163Y-68375219D02*
X86672306Y-68327600D01*
X86672306Y-68327600D02*
X86624687Y-68279980D01*
X86624687Y-68279980D02*
X86624687Y-67946647D01*
X86624687Y-67946647D02*
X86815163Y-67946647D01*
X86196115Y-68375219D02*
X86196115Y-67375219D01*
X86196115Y-67375219D02*
X85624687Y-68375219D01*
X85624687Y-68375219D02*
X85624687Y-67375219D01*
X85148496Y-68375219D02*
X85148496Y-67375219D01*
X85148496Y-67375219D02*
X84910401Y-67375219D01*
X84910401Y-67375219D02*
X84767544Y-67422838D01*
X84767544Y-67422838D02*
X84672306Y-67518076D01*
X84672306Y-67518076D02*
X84624687Y-67613314D01*
X84624687Y-67613314D02*
X84577068Y-67803790D01*
X84577068Y-67803790D02*
X84577068Y-67946647D01*
X84577068Y-67946647D02*
X84624687Y-68137123D01*
X84624687Y-68137123D02*
X84672306Y-68232361D01*
X84672306Y-68232361D02*
X84767544Y-68327600D01*
X84767544Y-68327600D02*
X84910401Y-68375219D01*
X84910401Y-68375219D02*
X85148496Y-68375219D01*
X107874687Y-68279980D02*
X107922306Y-68327600D01*
X107922306Y-68327600D02*
X108065163Y-68375219D01*
X108065163Y-68375219D02*
X108160401Y-68375219D01*
X108160401Y-68375219D02*
X108303258Y-68327600D01*
X108303258Y-68327600D02*
X108398496Y-68232361D01*
X108398496Y-68232361D02*
X108446115Y-68137123D01*
X108446115Y-68137123D02*
X108493734Y-67946647D01*
X108493734Y-67946647D02*
X108493734Y-67803790D01*
X108493734Y-67803790D02*
X108446115Y-67613314D01*
X108446115Y-67613314D02*
X108398496Y-67518076D01*
X108398496Y-67518076D02*
X108303258Y-67422838D01*
X108303258Y-67422838D02*
X108160401Y-67375219D01*
X108160401Y-67375219D02*
X108065163Y-67375219D01*
X108065163Y-67375219D02*
X107922306Y-67422838D01*
X107922306Y-67422838D02*
X107874687Y-67470457D01*
X107493734Y-68089504D02*
X107017544Y-68089504D01*
X107588972Y-68375219D02*
X107255639Y-67375219D01*
X107255639Y-67375219D02*
X106922306Y-68375219D01*
X106588972Y-68375219D02*
X106588972Y-67375219D01*
X106588972Y-67375219D02*
X106017544Y-68375219D01*
X106017544Y-68375219D02*
X106017544Y-67375219D01*
X105065163Y-68375219D02*
X105541353Y-68375219D01*
X105541353Y-68375219D02*
X105541353Y-67375219D01*
X103993734Y-63077600D02*
X103850877Y-63125219D01*
X103850877Y-63125219D02*
X103612782Y-63125219D01*
X103612782Y-63125219D02*
X103517544Y-63077600D01*
X103517544Y-63077600D02*
X103469925Y-63029980D01*
X103469925Y-63029980D02*
X103422306Y-62934742D01*
X103422306Y-62934742D02*
X103422306Y-62839504D01*
X103422306Y-62839504D02*
X103469925Y-62744266D01*
X103469925Y-62744266D02*
X103517544Y-62696647D01*
X103517544Y-62696647D02*
X103612782Y-62649028D01*
X103612782Y-62649028D02*
X103803258Y-62601409D01*
X103803258Y-62601409D02*
X103898496Y-62553790D01*
X103898496Y-62553790D02*
X103946115Y-62506171D01*
X103946115Y-62506171D02*
X103993734Y-62410933D01*
X103993734Y-62410933D02*
X103993734Y-62315695D01*
X103993734Y-62315695D02*
X103946115Y-62220457D01*
X103946115Y-62220457D02*
X103898496Y-62172838D01*
X103898496Y-62172838D02*
X103803258Y-62125219D01*
X103803258Y-62125219D02*
X103565163Y-62125219D01*
X103565163Y-62125219D02*
X103422306Y-62172838D01*
X102993734Y-63125219D02*
X102993734Y-62125219D01*
X102993734Y-62125219D02*
X102755639Y-62125219D01*
X102755639Y-62125219D02*
X102612782Y-62172838D01*
X102612782Y-62172838D02*
X102517544Y-62268076D01*
X102517544Y-62268076D02*
X102469925Y-62363314D01*
X102469925Y-62363314D02*
X102422306Y-62553790D01*
X102422306Y-62553790D02*
X102422306Y-62696647D01*
X102422306Y-62696647D02*
X102469925Y-62887123D01*
X102469925Y-62887123D02*
X102517544Y-62982361D01*
X102517544Y-62982361D02*
X102612782Y-63077600D01*
X102612782Y-63077600D02*
X102755639Y-63125219D01*
X102755639Y-63125219D02*
X102993734Y-63125219D01*
X102041353Y-62839504D02*
X101565163Y-62839504D01*
X102136591Y-63125219D02*
X101803258Y-62125219D01*
X101803258Y-62125219D02*
X101469925Y-63125219D01*
X91196115Y-68375219D02*
X91196115Y-67375219D01*
X91196115Y-67375219D02*
X90958020Y-67375219D01*
X90958020Y-67375219D02*
X90815163Y-67422838D01*
X90815163Y-67422838D02*
X90719925Y-67518076D01*
X90719925Y-67518076D02*
X90672306Y-67613314D01*
X90672306Y-67613314D02*
X90624687Y-67803790D01*
X90624687Y-67803790D02*
X90624687Y-67946647D01*
X90624687Y-67946647D02*
X90672306Y-68137123D01*
X90672306Y-68137123D02*
X90719925Y-68232361D01*
X90719925Y-68232361D02*
X90815163Y-68327600D01*
X90815163Y-68327600D02*
X90958020Y-68375219D01*
X90958020Y-68375219D02*
X91196115Y-68375219D01*
X90196115Y-68375219D02*
X90196115Y-67375219D01*
X89719925Y-68375219D02*
X89719925Y-67375219D01*
X89719925Y-67375219D02*
X89148497Y-68375219D01*
X89148497Y-68375219D02*
X89148497Y-67375219D01*
X88148497Y-68375219D02*
X88719925Y-68375219D01*
X88434211Y-68375219D02*
X88434211Y-67375219D01*
X88434211Y-67375219D02*
X88529449Y-67518076D01*
X88529449Y-67518076D02*
X88624687Y-67613314D01*
X88624687Y-67613314D02*
X88719925Y-67660933D01*
X95743734Y-68089504D02*
X95267544Y-68089504D01*
X95838972Y-68375219D02*
X95505639Y-67375219D01*
X95505639Y-67375219D02*
X95172306Y-68375219D01*
X94838972Y-68375219D02*
X94838972Y-67375219D01*
X94362782Y-68375219D02*
X94362782Y-67375219D01*
X94362782Y-67375219D02*
X93791354Y-68375219D01*
X93791354Y-68375219D02*
X93791354Y-67375219D01*
X92791354Y-68375219D02*
X93362782Y-68375219D01*
X93077068Y-68375219D02*
X93077068Y-67375219D01*
X93077068Y-67375219D02*
X93172306Y-67518076D01*
X93172306Y-67518076D02*
X93267544Y-67613314D01*
X93267544Y-67613314D02*
X93362782Y-67660933D01*
X91696115Y-63125219D02*
X91696115Y-62125219D01*
X91696115Y-62125219D02*
X91458020Y-62125219D01*
X91458020Y-62125219D02*
X91315163Y-62172838D01*
X91315163Y-62172838D02*
X91219925Y-62268076D01*
X91219925Y-62268076D02*
X91172306Y-62363314D01*
X91172306Y-62363314D02*
X91124687Y-62553790D01*
X91124687Y-62553790D02*
X91124687Y-62696647D01*
X91124687Y-62696647D02*
X91172306Y-62887123D01*
X91172306Y-62887123D02*
X91219925Y-62982361D01*
X91219925Y-62982361D02*
X91315163Y-63077600D01*
X91315163Y-63077600D02*
X91458020Y-63125219D01*
X91458020Y-63125219D02*
X91696115Y-63125219D01*
X90696115Y-63125219D02*
X90696115Y-62125219D01*
X90219925Y-63125219D02*
X90219925Y-62125219D01*
X90219925Y-62125219D02*
X89648497Y-63125219D01*
X89648497Y-63125219D02*
X89648497Y-62125219D01*
X88981830Y-62125219D02*
X88886592Y-62125219D01*
X88886592Y-62125219D02*
X88791354Y-62172838D01*
X88791354Y-62172838D02*
X88743735Y-62220457D01*
X88743735Y-62220457D02*
X88696116Y-62315695D01*
X88696116Y-62315695D02*
X88648497Y-62506171D01*
X88648497Y-62506171D02*
X88648497Y-62744266D01*
X88648497Y-62744266D02*
X88696116Y-62934742D01*
X88696116Y-62934742D02*
X88743735Y-63029980D01*
X88743735Y-63029980D02*
X88791354Y-63077600D01*
X88791354Y-63077600D02*
X88886592Y-63125219D01*
X88886592Y-63125219D02*
X88981830Y-63125219D01*
X88981830Y-63125219D02*
X89077068Y-63077600D01*
X89077068Y-63077600D02*
X89124687Y-63029980D01*
X89124687Y-63029980D02*
X89172306Y-62934742D01*
X89172306Y-62934742D02*
X89219925Y-62744266D01*
X89219925Y-62744266D02*
X89219925Y-62506171D01*
X89219925Y-62506171D02*
X89172306Y-62315695D01*
X89172306Y-62315695D02*
X89124687Y-62220457D01*
X89124687Y-62220457D02*
X89077068Y-62172838D01*
X89077068Y-62172838D02*
X88981830Y-62125219D01*
D18*
%TO.C,J3*%
X117351199Y-44543200D02*
G75*
G02*
X116589199Y-44543200I-381000J0D01*
G01*
X116589199Y-44543200D02*
G75*
G02*
X117351199Y-44543200I381000J0D01*
G01*
%TD*%
M02*
